<?xml version="1.0" encoding="UTF-8"?>
<svg id="Layer_2" data-name="Layer 2" xmlns="http://www.w3.org/2000/svg" viewBox="0 0 21.79 1968.3">
  <defs>
    <style>
      .cls-1 {
        fill: #efdd6b;
      }
    </style>
  </defs>
  <g id="_1" data-name="1">
    <g id="Layer_5" data-name="Layer 5">
      <g>
        <path class="cls-1" d="M11.64,902.43c-10.83,1.43-12.3-16.89-11.1-24.45.5-3.17,3.68-7.69,3.82-9.46.24-2.9-5.01-11.86-4.05-21.22.59-5.77,4.61-9.52,4.88-11.36.15-.98-2.68-4.62-3.36-6.43-1.85-4.87-2.11-10.31-1.29-15.47.5-3.18,4.48-9.49,4.48-10.4,0-1.54-2.37-3.34-2.9-4.89-2.14-6.29-2.96-14.92-.51-21.2.75-1.92,3.43-4.52,3.58-5.57.17-1.16-2.07-3.38-2.66-5.12-3.21-9.44-3.24-15.32.28-24.66.47-1.25,2.37-3.2,2.36-3.56,0-.52-2.1-1.97-2.63-3.27-3.32-8.11-3.08-15.86-.12-24.02.5-1.37,2.64-3.54,2.64-4.17,0-.36-2.91-4.5-3.52-6.32-1.55-4.69-1.82-10.88-1-15.77.52-3.1,4.52-8.86,4.52-9.38,0-.36-2.65-3.93-3.22-5.61-1.79-5.23-2.21-11.85-1.09-17.29.55-2.7,4.31-8.09,4.31-8.57,0-.57-2.42-3.29-2.94-4.88-1.77-5.41-2.72-12.62-1.59-18.24.51-2.51,4.45-7.46,4.5-8.36.06-1.03-2.19-3.42-2.74-5.04-1.94-5.78-2.81-10.84-1.75-17.04.51-3,4.54-9.17,4.46-10.39-.05-.74-3.68-5.8-4.25-8.58-1.1-5.34-.84-11.21,1.09-16.29.71-1.86,3.24-5.02,3.36-5.78.09-.56-3.9-7.28-4.45-10.42-1.12-6.5-.9-11.58,1.82-17.56.68-1.51,2.78-2.65,2.65-4.14-.13-1.41-2.67-3.92-3.4-5.76-1.88-4.73-2.13-11.48-1.28-16.51.51-3.01,4.54-9.16,4.46-10.39-.05-.81-3.93-6.2-4.46-9.38-.85-5.07-.6-11.73,1.28-16.51.69-1.77,3.2-4.21,3.2-5.59,0-1.55-2.37-3.34-2.9-4.89-3.31-9.72-2.7-18.94,3.12-27.46-6.58-6.19-6.17-18.81-3.12-26.74.62-1.62,2.94-3.52,3.09-5.06.09-.98-3.81-5.26-4.47-8.4-1.54-7.33-.87-17.5,4.5-23.04-5.83-8.52-6.43-17.74-3.12-27.46.53-1.54,2.91-3.35,2.9-4.89,0-1.22-2.16-3.36-2.73-5.05-2.98-8.76-2.76-14.53.13-23.26.47-1.43,2.52-3.25,2.58-4.18.08-1.21-3.95-7.39-4.46-10.39-.84-4.96-.43-11.77,1.29-16.5.71-1.94,3.22-4.21,3.36-5.76.1-1.14-2.64-4.56-3.35-6.45-1.86-4.91-2.16-11.29-1.29-16.49.53-3.15,4.45-8.69,4.49-9.39.05-.92-3.95-6.2-4.49-9.37-.88-5.17-.57-11.59,1.29-16.49.7-1.85,3.25-5.03,3.36-5.78.16-1.03-2.68-4.52-3.35-6.44-1.81-5.18-2.19-11.9-1.09-17.29.65-3.21,4.26-7.54,4.45-8.75.15-.98-2.68-4.62-3.36-6.43-1.86-4.91-2.16-11.29-1.29-16.49.5-2.96,4.77-9.49,4.66-10.21-.13-.84-2.41-3.36-3.07-5.07-2.06-5.34-2.49-10.47-1.59-16.19.47-2.96,4.52-9.82,4.49-10.39s-4.02-7.35-4.49-10.41c-.81-5.19-.63-11.62,1.28-16.5.66-1.68,3.28-4.4,3.21-5.58-.02-.44-3.22-5.32-3.87-7.98-1.45-5.97-1.35-12.1.68-17.89.67-1.92,3.51-5.41,3.35-6.44-.21-1.39-4.04-5.88-4.66-9.56C-.73,17.11.52,0,10.9,0c10.91,0,11.74,19.09,9.53,26.9-.65,2.29-3.6,6.7-3.63,7.17-.08,1.22,3.95,7.38,4.46,10.39,1.05,6.16.2,11.29-1.75,17.04-.57,1.69-2.73,3.83-2.73,5.05,0,1.42,2.54,3.75,3.2,5.6,1.73,4.87,2.09,11.38,1.28,16.5-.47,2.96-4.52,9.82-4.49,10.39.04.63,4.05,6.93,4.5,9.38,1.03,5.61.44,11.94-1.59,17.21-.66,1.71-2.94,4.23-3.07,5.07-.15.97,2.68,4.62,3.36,6.43,1.86,4.91,2.16,11.3,1.29,16.49-.52,3.1-4.53,8.86-4.52,9.38,0,.58,1.78,2.3,2.25,3.55,2.42,6.43,3.43,12.63,2.27,19.56-.52,3.1-4.52,8.86-4.52,9.38s4,6.29,4.52,9.38c.86,5.11.41,11.61-1.3,16.48-.67,1.92-3.51,5.41-3.35,6.44.18,1.21,3.79,5.55,4.45,8.75,1.4,6.86.38,12.22-1.79,18.62-.59,1.73-2.84,3.96-2.66,5.12.12.75,2.66,3.93,3.37,5.78,1.87,4.92,2.16,11.31,1.29,16.49-.62,3.68-4.44,8.17-4.66,9.56-.13.86,3.29,5.7,3.93,7.89,1.4,4.76,1.36,9.94.51,14.82-.53,3.06-4.3,9.75-4.25,10.6s3.92,6.19,4.46,9.38c.98,5.83.46,11.73-1.59,17.2-.58,1.55-2.86,4.23-2.9,4.9-.07,1.17,2.55,3.9,3.21,5.58,1.87,4.78,2.13,11.43,1.28,16.51-.51,3-4.54,9.17-4.46,10.39.06.93,2.1,2.74,2.58,4.18,2.66,8.04,3.33,14.31.3,22.41-.58,1.55-2.86,4.23-2.9,4.9-.08,1.32,2.34,3.38,2.9,4.88,2.91,7.82,2.44,14.78-.17,22.55-.53,1.57-2.88,4.26-2.82,5.07.06.7,2.03,1.96,2.57,3.27,2.34,5.65,2.97,11.71,2,17.79-.5,3.18-4.48,9.49-4.48,10.4,0,1.07,2.94,4.74,3.66,7.16,1.77,5.93,1.55,12.91-.48,18.71-.7,1.99-3.22,4.95-3.35,5.79-.16,1.03,2.68,4.52,3.35,6.44,1.81,5.16,2.2,11.92,1.09,17.29-.57,2.78-4.21,7.84-4.25,8.58-.08,1.23,3.95,7.38,4.46,10.39.5,2.99.65,8.93.18,11.88-.5,3.13-4.62,8.23-4.67,9.21-.03.57,4.02,7.43,4.49,10.39s.63,8.05.27,10.95c-.44,3.57-4.8,10.38-4.76,11.13.03.6,3.72,5.85,4.29,8.58,1.44,7.03.93,16.9-4.5,22.03,5.65,8.24,6.62,18.06,3.12,27.46-.56,1.5-2.98,3.55-2.9,4.88.04.69,3.96,6.24,4.49,9.39,1.13,6.72.06,12.34-2.27,18.55-.47,1.24-2.25,2.97-2.25,3.55s2.43,3.29,2.95,4.88c2.64,8.08,2.62,14.43-.31,22.42-.51,1.4-2.56,3.37-2.6,4.18-.05.91,3.95,6.21,4.49,9.37.88,5.18.64,12.64-1.28,17.52-.66,1.68-3.28,4.4-3.21,5.58.04.69,3.96,6.24,4.49,9.39,1.41,8.39-.01,15.99-4.71,22.96,5.29,5.48,5.86,14.94,4.7,22.24-.47,2.96-4.52,9.82-4.49,10.39.04.67,3.97,6.25,4.49,9.39.98,5.83.47,11.74-1.59,17.2-.58,1.55-2.87,4.25-2.9,4.9-.03.57,4.02,7.43,4.49,10.39,1.2,7.58-.13,23.19-9.62,24.45ZM10.9,895.48c6.05-5.57,5.4-17.53,0-23.31-6.27,5.99-5.79,17.22,0,23.31ZM11.9,863.01c4.82-1.11,3.61-20.66-.99-23.33-7.15,2.77-4.34,24.55.99,23.33ZM12.41,830.52c3.36-7.25,4.27-16.11-1.5-22.31-3.26,2.57-4.89,8.64-4.61,12.66.14,2.01,3.86,11.33,6.11,9.66ZM11.9,798.04c4.08-.96,4.06-19.99-.99-22.31-6.22,3.01-4.87,23.7.99,22.31ZM11.9,766.56c3.83-.93,4.51-20.91-1-23.33-6.71,3.19-4.29,24.61,1,23.33ZM12.4,734.07c3.09-7.38,4.11-15.92-1.5-22.31-6.11,5.15-6.77,19.34,1.5,22.31ZM9.51,680.39c-3.63,6.7-5.75,18.84,2.9,22.21,3.82-7.66,2.89-14.48-.06-22.27l-2.83.06ZM10.9,671.11c5.75-6.4,5-16.68,0-23.31-6.62,6.37-5.83,16.67,0,23.31ZM9.41,617.33c-2.05,4.51-3.59,7.34-2.97,12.59.25,2.13,2.73,9.36,5.46,8.73,4.22-.98,4.56-21.39-2.49-21.31ZM11.9,607.17c4.75-1.1,3.5-19.71-.99-22.31-6.23,3.09-5.05,23.71.99,22.31ZM9.45,575.66c4.05,2.69,5.44-7.81,5.52-10.08.15-4.18-1.29-7.4-2.56-11.2-5.35.91-6.54,9.01-5.81,13.46.16.98,2.51,7.59,2.86,7.82ZM11.9,544.22c4.32-6.23,4.42-16.73-1-22.31-6.1,5.13-6.41,18.44,1,22.31ZM10.9,512.73c5.57-5.88,5.33-17.29,0-23.31-6.28,5.87-6.28,17.44,0,23.31ZM11.9,480.26c4.79-6.87,4.35-16.86-1-23.33-5.44,6.19-7.2,18.85,1,23.33ZM12.41,448.79c3.26-7.51,4.18-16.69-1.5-23.33-2.78,3.28-4.83,8.3-4.59,12.64.11,2.04,3.49,12.62,6.09,10.69ZM12.41,416.3c2.77-6.96,4.59-16.76-1.5-22.31-6.11,5.14-6.77,19.34,1.5,22.31ZM12.41,384.83c3.03-7.39,4.45-17.09-1.5-23.33-2.78,3.29-4.83,8.29-4.59,12.64.11,2.04,3.49,12.63,6.09,10.69ZM9.4,330.01c-3.29,7.08-5.69,17.82,2.5,22.33,3.54-.84,5.3-22.59-2.5-22.33ZM9.45,319.82c3.6,2.39,5.82-7.4,5.95-9.74.22-4.15-1.82-8.66-2.99-12.55-5.7,1.11-6.58,9.74-5.81,14.48.16.99,2.5,7.58,2.85,7.81ZM9.4,265.04c-3.56,6.87-5.57,17.86,2.5,22.33,3.63-.87,5.26-22.11-2.5-22.33ZM11.9,254.88c3.77-.91,4.02-20.87-1-23.33-5.44,6.19-7.2,18.85,1,23.33ZM10.9,223.39c5.47-5.74,5.61-17.68,0-23.31-6.67,6.26-5.58,16.64,0,23.31ZM12.41,190.92c3.55-7.62,4.07-16.56-1.5-23.33-3.57,3.05-4.91,8.09-4.57,12.65.15,2.02,3.44,12.64,6.07,10.68ZM11.9,158.43c4.56-6.32,4.38-16.6-1-22.31-6.06,5.27-6.68,18.34,1,22.31ZM11.9,125.95c4.44-1.03,3.98-19.55-.99-22.31-6.65,2.67-4.83,23.67.99,22.31ZM12.41,94.47c2.94-7.32,4.51-17.1-1.5-23.33-3.57,3.05-4.91,8.09-4.57,12.65.15,2.02,3.44,12.64,6.07,10.68ZM10.9,61.97c6.13-5.62,5.09-17.23,0-23.31-6.23,6.69-5.8,16.44,0,23.31ZM11.9,29.49c4.24-6.17,4.46-16.79-1-22.31-6.1,5.13-6.41,18.44,1,22.31Z"/>
        <g>
          <path class="cls-1" d="M11.64,1803.4c-10.83,1.43-12.3-16.89-11.1-24.45.5-3.17,3.68-7.69,3.82-9.46.24-2.9-5.01-11.86-4.05-21.22.59-5.77,4.61-9.52,4.88-11.36.15-.98-2.68-4.62-3.36-6.43-1.85-4.87-2.11-10.31-1.29-15.47.5-3.18,4.48-9.49,4.48-10.4,0-1.54-2.37-3.34-2.9-4.89-2.14-6.29-2.96-14.92-.51-21.2.75-1.92,3.43-4.52,3.58-5.57.17-1.16-2.07-3.38-2.66-5.12-3.21-9.44-3.24-15.32.28-24.66.47-1.25,2.37-3.2,2.36-3.56,0-.52-2.1-1.97-2.63-3.27-3.32-8.11-3.08-15.86-.12-24.02.5-1.37,2.64-3.54,2.64-4.17,0-.36-2.91-4.5-3.52-6.32-1.55-4.69-1.82-10.88-1-15.77.52-3.1,4.52-8.86,4.52-9.38,0-.36-2.65-3.93-3.22-5.61-1.79-5.23-2.21-11.85-1.09-17.29.55-2.7,4.31-8.09,4.31-8.57,0-.57-2.42-3.29-2.94-4.88-1.77-5.41-2.72-12.62-1.59-18.24.51-2.51,4.45-7.46,4.5-8.36.06-1.03-2.19-3.42-2.74-5.04-1.94-5.78-2.81-10.84-1.75-17.04.51-3,4.54-9.17,4.46-10.39-.05-.74-3.68-5.8-4.25-8.58-1.1-5.34-.84-11.21,1.09-16.29.71-1.86,3.24-5.02,3.36-5.78.09-.56-3.9-7.28-4.45-10.42-1.12-6.5-.9-11.58,1.82-17.56.68-1.51,2.78-2.65,2.65-4.14-.13-1.41-2.67-3.92-3.4-5.76-1.88-4.73-2.13-11.48-1.28-16.51.51-3.01,4.54-9.16,4.46-10.39-.05-.81-3.93-6.2-4.46-9.38-.85-5.07-.6-11.73,1.28-16.51.69-1.77,3.2-4.21,3.2-5.59,0-1.55-2.37-3.34-2.9-4.89-3.31-9.72-2.7-18.94,3.12-27.46-6.58-6.19-6.17-18.81-3.12-26.74.62-1.62,2.94-3.52,3.09-5.06.09-.98-3.81-5.26-4.47-8.4-1.54-7.33-.87-17.5,4.5-23.04-5.83-8.52-6.43-17.74-3.12-27.46.53-1.54,2.91-3.35,2.9-4.89,0-1.22-2.16-3.36-2.73-5.05-2.98-8.76-2.76-14.53.13-23.26.47-1.43,2.52-3.25,2.58-4.18.08-1.21-3.95-7.39-4.46-10.39-.84-4.96-.43-11.77,1.29-16.5.71-1.94,3.22-4.21,3.36-5.76.1-1.14-2.64-4.56-3.35-6.45-1.86-4.91-2.16-11.29-1.29-16.49.53-3.15,4.45-8.69,4.49-9.39.05-.92-3.95-6.2-4.49-9.37-.88-5.17-.57-11.59,1.29-16.49.7-1.85,3.25-5.03,3.36-5.78.16-1.03-2.68-4.52-3.35-6.44-1.81-5.18-2.19-11.9-1.09-17.29.65-3.21,4.26-7.54,4.45-8.75.15-.98-2.68-4.62-3.36-6.43-1.86-4.91-2.16-11.29-1.29-16.49.5-2.96,4.77-9.49,4.66-10.21-.13-.84-2.41-3.36-3.07-5.07-2.06-5.34-2.49-10.47-1.59-16.19.47-2.96,4.52-9.82,4.49-10.39s-4.02-7.35-4.49-10.41c-.81-5.19-.63-11.62,1.28-16.5.66-1.68,3.28-4.4,3.21-5.58-.02-.44-3.22-5.32-3.87-7.98-1.45-5.97-1.35-12.1.68-17.89.67-1.92,3.51-5.41,3.35-6.44-.21-1.39-4.04-5.88-4.66-9.56-1.27-7.58-.02-24.69,10.37-24.69,10.91,0,11.74,19.09,9.53,26.9-.65,2.29-3.6,6.7-3.63,7.17-.08,1.22,3.95,7.38,4.46,10.39,1.05,6.16.2,11.29-1.75,17.04-.57,1.69-2.73,3.83-2.73,5.05,0,1.42,2.54,3.75,3.2,5.6,1.73,4.87,2.09,11.38,1.28,16.5-.47,2.96-4.52,9.82-4.49,10.39.04.63,4.05,6.93,4.5,9.38,1.03,5.61.44,11.94-1.59,17.21-.66,1.71-2.94,4.23-3.07,5.07-.15.97,2.68,4.62,3.36,6.43,1.86,4.91,2.16,11.3,1.29,16.49-.52,3.1-4.53,8.86-4.52,9.38,0,.58,1.78,2.3,2.25,3.55,2.42,6.43,3.43,12.63,2.27,19.56-.52,3.1-4.52,8.86-4.52,9.38s4,6.29,4.52,9.38c.86,5.11.41,11.61-1.3,16.48-.67,1.92-3.51,5.41-3.35,6.44.18,1.21,3.79,5.55,4.45,8.75,1.4,6.86.38,12.22-1.79,18.62-.59,1.73-2.84,3.96-2.66,5.12.12.75,2.66,3.93,3.37,5.78,1.87,4.92,2.16,11.31,1.29,16.49-.62,3.68-4.44,8.17-4.66,9.56-.13.86,3.29,5.7,3.93,7.89,1.4,4.76,1.36,9.94.51,14.82-.53,3.06-4.3,9.75-4.25,10.6s3.92,6.19,4.46,9.38c.98,5.83.46,11.73-1.59,17.2-.58,1.55-2.86,4.23-2.9,4.9-.07,1.17,2.55,3.9,3.21,5.58,1.87,4.78,2.13,11.43,1.28,16.51-.51,3-4.54,9.17-4.46,10.39.06.93,2.1,2.74,2.58,4.18,2.66,8.04,3.33,14.31.3,22.41-.58,1.55-2.86,4.23-2.9,4.9-.08,1.32,2.34,3.38,2.9,4.88,2.91,7.82,2.44,14.78-.17,22.55-.53,1.57-2.88,4.26-2.82,5.07.06.7,2.03,1.96,2.57,3.27,2.34,5.65,2.97,11.71,2,17.79-.5,3.18-4.48,9.49-4.48,10.4,0,1.07,2.94,4.74,3.66,7.16,1.77,5.93,1.55,12.91-.48,18.71-.7,1.99-3.22,4.95-3.35,5.79-.16,1.03,2.68,4.52,3.35,6.44,1.81,5.16,2.2,11.92,1.09,17.29-.57,2.78-4.21,7.84-4.25,8.58-.08,1.23,3.95,7.38,4.46,10.39.5,2.99.65,8.93.18,11.88-.5,3.13-4.62,8.23-4.67,9.21-.03.57,4.02,7.43,4.49,10.39.46,2.93.63,8.05.27,10.95-.44,3.57-4.8,10.38-4.76,11.13.03.6,3.72,5.85,4.29,8.58,1.44,7.03.93,16.9-4.5,22.03,5.65,8.24,6.62,18.06,3.12,27.46-.56,1.5-2.98,3.55-2.9,4.88.04.69,3.96,6.24,4.49,9.39,1.13,6.72.06,12.34-2.27,18.55-.47,1.24-2.25,2.97-2.25,3.55s2.43,3.29,2.95,4.88c2.64,8.08,2.62,14.43-.31,22.42-.51,1.4-2.56,3.37-2.6,4.18-.05.91,3.95,6.21,4.49,9.37.88,5.18.64,12.64-1.28,17.52-.66,1.68-3.28,4.4-3.21,5.58.04.69,3.96,6.24,4.49,9.39,1.41,8.39-.01,15.99-4.71,22.96,5.29,5.48,5.86,14.94,4.7,22.24-.47,2.96-4.52,9.82-4.49,10.39.04.67,3.97,6.25,4.49,9.39.98,5.83.47,11.74-1.59,17.2-.58,1.55-2.87,4.25-2.9,4.9-.03.57,4.02,7.43,4.49,10.39,1.2,7.58-.13,23.19-9.62,24.45ZM10.9,1796.45c6.05-5.57,5.4-17.53,0-23.31-6.27,5.99-5.79,17.22,0,23.31ZM11.9,1763.98c4.82-1.11,3.61-20.66-.99-23.33-7.15,2.77-4.34,24.55.99,23.33ZM12.41,1731.49c3.36-7.25,4.27-16.11-1.5-22.31-3.26,2.57-4.89,8.64-4.61,12.66.14,2.01,3.86,11.33,6.11,9.66ZM11.9,1699.01c4.08-.96,4.06-19.99-.99-22.31-6.22,3.01-4.87,23.7.99,22.31ZM11.9,1667.53c3.83-.93,4.51-20.91-1-23.33-6.71,3.19-4.29,24.61,1,23.33ZM12.4,1635.04c3.09-7.38,4.11-15.92-1.5-22.31-6.11,5.15-6.77,19.34,1.5,22.31ZM9.51,1581.36c-3.63,6.7-5.75,18.84,2.9,22.21,3.82-7.66,2.89-14.48-.06-22.27l-2.83.06ZM10.9,1572.08c5.75-6.4,5-16.68,0-23.31-6.62,6.37-5.83,16.67,0,23.31ZM9.41,1518.3c-2.05,4.51-3.59,7.34-2.97,12.59.25,2.13,2.73,9.36,5.46,8.73,4.22-.98,4.56-21.39-2.49-21.31ZM11.9,1508.14c4.75-1.1,3.5-19.71-.99-22.31-6.23,3.09-5.05,23.71.99,22.31ZM9.45,1476.63c4.05,2.69,5.44-7.81,5.52-10.08.15-4.18-1.29-7.4-2.56-11.2-5.35.91-6.54,9.01-5.81,13.46.16.98,2.51,7.59,2.86,7.82ZM11.9,1445.19c4.32-6.23,4.42-16.73-1-22.31-6.1,5.13-6.41,18.44,1,22.31ZM10.9,1413.7c5.57-5.88,5.33-17.29,0-23.31-6.28,5.87-6.28,17.44,0,23.31ZM11.9,1381.23c4.79-6.87,4.35-16.86-1-23.33-5.44,6.19-7.2,18.85,1,23.33ZM12.41,1349.76c3.26-7.51,4.18-16.69-1.5-23.33-2.78,3.28-4.83,8.3-4.59,12.64.11,2.04,3.49,12.62,6.09,10.69ZM12.41,1317.27c2.77-6.96,4.59-16.76-1.5-22.31-6.11,5.14-6.77,19.34,1.5,22.31ZM12.41,1285.8c3.03-7.39,4.45-17.09-1.5-23.33-2.78,3.29-4.83,8.29-4.59,12.64.11,2.04,3.49,12.63,6.09,10.69ZM9.4,1230.98c-3.29,7.08-5.69,17.82,2.5,22.33,3.54-.84,5.3-22.59-2.5-22.33ZM9.45,1220.79c3.6,2.39,5.82-7.4,5.95-9.74.22-4.15-1.82-8.66-2.99-12.55-5.7,1.11-6.58,9.74-5.81,14.48.16.99,2.5,7.58,2.85,7.81ZM9.4,1166.01c-3.56,6.87-5.57,17.86,2.5,22.33,3.63-.87,5.26-22.11-2.5-22.33ZM11.9,1155.85c3.77-.91,4.02-20.87-1-23.33-5.44,6.19-7.2,18.85,1,23.33ZM10.9,1124.36c5.47-5.74,5.61-17.68,0-23.31-6.67,6.26-5.58,16.64,0,23.31ZM12.41,1091.89c3.55-7.62,4.07-16.56-1.5-23.33-3.57,3.05-4.91,8.09-4.57,12.65.15,2.02,3.44,12.64,6.07,10.68ZM11.9,1059.4c4.56-6.32,4.38-16.6-1-22.31-6.06,5.27-6.68,18.34,1,22.31ZM11.9,1026.92c4.44-1.03,3.98-19.55-.99-22.31-6.65,2.67-4.83,23.67.99,22.31ZM12.41,995.44c2.94-7.32,4.51-17.1-1.5-23.33-3.57,3.05-4.91,8.09-4.57,12.65.15,2.02,3.44,12.64,6.07,10.68ZM10.9,962.93c6.13-5.62,5.09-17.23,0-23.31-6.23,6.69-5.8,16.44,0,23.31ZM11.9,930.46c4.24-6.17,4.46-16.79-1-22.31-6.1,5.13-6.41,18.44,1,22.31Z"/>
          <path class="cls-1" d="M6.55,1967.65c.44.11.84.29,1.2.5,2.09.25,4.21.12,6.32.09.89-.46,1.79-.89,2.71-1.28,0-.02-.02-.05-.02-.07,0-.52,4-6.28,4.52-9.38.87-5.2.57-11.59-1.29-16.49-.69-1.81-3.51-5.46-3.36-6.43.13-.84,2.41-3.36,3.07-5.07,2.03-5.27,2.63-11.6,1.59-17.21-.45-2.45-4.46-8.75-4.5-9.38-.03-.57,4.02-7.43,4.49-10.39.81-5.11.45-11.62-1.28-16.5-.66-1.85-3.21-4.18-3.2-5.6,0-1.22,2.16-3.36,2.73-5.05,1.96-5.75,2.8-10.88,1.75-17.04-.51-3.01-4.54-9.17-4.46-10.39.03-.47,2.98-4.88,3.63-7.17,2.2-7.81,1.37-26.9-9.53-26.9-10.38,0-11.63,17.11-10.37,24.69.62,3.68,4.44,8.17,4.66,9.56.16,1.03-2.68,4.52-3.35,6.44-2.03,5.79-2.13,11.92-.68,17.89.64,2.66,3.84,7.54,3.86,7.98.07,1.18-2.55,3.89-3.21,5.58-1.91,4.88-2.08,11.32-1.28,16.5.48,3.06,4.46,9.84,4.49,10.41s-4.02,7.43-4.49,10.39c-.91,5.72-.47,10.85,1.59,16.19.66,1.71,2.93,4.22,3.07,5.07.11.72-4.16,7.25-4.66,10.21-.87,5.2-.57,11.58,1.29,16.49.52,1.38,2.26,3.8,3,5.32.62.18,1.21.52,1.72,1.04ZM10.9,1811.07c5.45,5.52,5.24,16.14,1,22.31-7.41-3.87-7.1-17.18-1-22.31ZM10.9,1865.85c-5.8-6.87-6.23-16.62,0-23.31,5.09,6.08,6.12,17.69,0,23.31ZM10.9,1875.03c6.01,6.23,4.45,16.01,1.5,23.33-2.63,1.96-5.93-8.66-6.07-10.68-.33-4.56,1.01-9.6,4.57-12.65ZM11.9,1929.83c-5.82,1.35-7.64-19.64-.99-22.31,4.98,2.77,5.43,21.28.99,22.31ZM10.9,1940c5.38,5.71,5.55,15.99,1,22.31-7.68-3.97-7.06-17.04-1-22.31Z"/>
        </g>
      </g>
    </g>
  </g>
</svg>