<?xml version="1.0" encoding="UTF-8"?>
<svg id="Layer_2" data-name="Layer 2" xmlns="http://www.w3.org/2000/svg" viewBox="0 0 1968.3 21.79">
  <defs>
    <style>
      .cls-1 {
        fill: #efdd6b;
      }
    </style>
  </defs>
  <g id="_1" data-name="1">
    <g id="Layer_5" data-name="Layer 5">
      <g>
        <path class="cls-1" d="M1065.87,11.64c-1.43-10.83,16.89-12.3,24.45-11.1,3.17.5,7.69,3.68,9.46,3.82,2.9.24,11.86-5.01,21.22-4.05,5.77.59,9.52,4.61,11.36,4.88.98.15,4.62-2.68,6.43-3.36,4.87-1.85,10.31-2.11,15.47-1.29,3.18.5,9.49,4.48,10.4,4.48,1.54,0,3.34-2.37,4.89-2.9,6.29-2.14,14.92-2.96,21.2-.51,1.92.75,4.52,3.43,5.57,3.58,1.16.17,3.38-2.07,5.12-2.66,9.44-3.21,15.32-3.24,24.66.28,1.25.47,3.2,2.37,3.56,2.36.52,0,1.97-2.1,3.27-2.63,8.11-3.32,15.86-3.08,24.02-.12,1.37.5,3.54,2.64,4.17,2.64.36,0,4.5-2.91,6.32-3.52,4.69-1.55,10.88-1.82,15.77-1,3.1.52,8.86,4.52,9.38,4.52.36,0,3.93-2.65,5.61-3.22,5.23-1.79,11.85-2.21,17.29-1.09,2.7.55,8.09,4.31,8.57,4.31.57,0,3.29-2.42,4.88-2.94,5.41-1.77,12.62-2.72,18.24-1.59,2.51.51,7.46,4.45,8.36,4.5,1.03.06,3.42-2.19,5.04-2.74,5.78-1.94,10.84-2.81,17.04-1.75,3,.51,9.17,4.54,10.39,4.46.74-.05,5.8-3.68,8.58-4.25,5.34-1.1,11.21-.84,16.29,1.09,1.86.71,5.02,3.24,5.78,3.36.56.09,7.28-3.9,10.42-4.45,6.5-1.12,11.58-.9,17.56,1.82,1.51.68,2.65,2.78,4.14,2.65,1.41-.13,3.92-2.67,5.76-3.4,4.73-1.88,11.48-2.13,16.51-1.28,3.01.51,9.16,4.54,10.39,4.46.81-.05,6.2-3.93,9.38-4.46,5.07-.85,11.73-.6,16.51,1.28,1.77.69,4.21,3.2,5.59,3.2,1.55,0,3.34-2.37,4.89-2.9,9.72-3.31,18.94-2.7,27.46,3.12,6.19-6.58,18.81-6.17,26.74-3.12,1.62.62,3.52,2.94,5.06,3.09.98.09,5.26-3.81,8.4-4.47,7.33-1.54,17.5-.87,23.04,4.5,8.52-5.83,17.74-6.43,27.46-3.12,1.54.53,3.35,2.91,4.89,2.9,1.22,0,3.36-2.16,5.05-2.73,8.76-2.98,14.53-2.76,23.26.13,1.43.47,3.25,2.52,4.18,2.58,1.21.08,7.39-3.95,10.39-4.46,4.96-.84,11.77-.43,16.5,1.29,1.94.71,4.21,3.22,5.76,3.36,1.14.1,4.56-2.64,6.45-3.35,4.91-1.86,11.29-2.16,16.49-1.29,3.15.53,8.69,4.45,9.39,4.49.92.05,6.2-3.95,9.37-4.49,5.17-.88,11.59-.57,16.49,1.29,1.85.7,5.03,3.25,5.78,3.36,1.03.16,4.52-2.68,6.44-3.35,5.18-1.81,11.9-2.19,17.29-1.09,3.21.65,7.54,4.26,8.75,4.45.98.15,4.62-2.68,6.43-3.36,4.91-1.86,11.29-2.16,16.49-1.29,2.96.5,9.49,4.77,10.21,4.66.84-.13,3.36-2.41,5.07-3.07,5.34-2.06,10.47-2.49,16.19-1.59,2.96.47,9.82,4.52,10.39,4.49s7.35-4.02,10.41-4.49c5.19-.81,11.62-.63,16.5,1.28,1.68.66,4.4,3.28,5.58,3.21.44-.02,5.32-3.22,7.98-3.87,5.97-1.45,12.1-1.35,17.89.68,1.92.67,5.41,3.51,6.44,3.35,1.39-.21,5.88-4.04,9.56-4.66,7.58-1.27,24.69-.02,24.69,10.37,0,10.91-19.09,11.74-26.9,9.53-2.29-.65-6.7-3.6-7.17-3.63-1.22-.08-7.38,3.95-10.39,4.46-6.16,1.05-11.29.2-17.04-1.75-1.69-.57-3.83-2.73-5.05-2.73-1.42,0-3.75,2.54-5.6,3.2-4.87,1.73-11.38,2.09-16.5,1.28-2.96-.47-9.82-4.52-10.39-4.49-.63.04-6.93,4.05-9.38,4.5-5.61,1.03-11.94.44-17.21-1.59-1.71-.66-4.23-2.94-5.07-3.07-.97-.15-4.62,2.68-6.43,3.36-4.91,1.86-11.3,2.16-16.49,1.29-3.1-.52-8.86-4.53-9.38-4.52-.58,0-2.3,1.78-3.55,2.25-6.43,2.42-12.63,3.43-19.56,2.27-3.1-.52-8.86-4.52-9.38-4.52s-6.29,4-9.38,4.52c-5.11.86-11.61.41-16.48-1.3-1.92-.67-5.41-3.51-6.44-3.35-1.21.18-5.55,3.79-8.75,4.45-6.86,1.4-12.22.38-18.62-1.79-1.73-.59-3.96-2.84-5.12-2.66-.75.12-3.93,2.66-5.78,3.37-4.92,1.87-11.31,2.16-16.49,1.29-3.68-.62-8.17-4.44-9.56-4.66-.86-.13-5.7,3.29-7.89,3.93-4.76,1.4-9.94,1.36-14.82.51-3.06-.53-9.75-4.3-10.6-4.25s-6.19,3.92-9.38,4.46c-5.83.98-11.73.46-17.2-1.59-1.55-.58-4.23-2.86-4.9-2.9-1.17-.07-3.9,2.55-5.58,3.21-4.78,1.87-11.43,2.13-16.51,1.28-3-.51-9.17-4.54-10.39-4.46-.93.06-2.74,2.1-4.18,2.58-8.04,2.66-14.31,3.33-22.41.3-1.55-.58-4.23-2.86-4.9-2.9-1.32-.08-3.38,2.34-4.88,2.9-7.82,2.91-14.78,2.44-22.55-.17-1.57-.53-4.26-2.88-5.07-2.82-.7.06-1.96,2.03-3.27,2.57-5.65,2.34-11.71,2.97-17.79,2-3.18-.5-9.49-4.48-10.4-4.48-1.07,0-4.74,2.94-7.16,3.66-5.93,1.77-12.91,1.55-18.71-.48-1.99-.7-4.95-3.22-5.79-3.35-1.03-.16-4.52,2.68-6.44,3.35-5.16,1.81-11.92,2.2-17.29,1.09-2.78-.57-7.84-4.21-8.58-4.25-1.23-.08-7.38,3.95-10.39,4.46-2.99.5-8.93.65-11.88.18-3.13-.5-8.23-4.62-9.21-4.67-.57-.03-7.43,4.02-10.39,4.49s-8.05.63-10.95.27c-3.57-.44-10.38-4.8-11.13-4.76-.6.03-5.85,3.72-8.58,4.29-7.03,1.44-16.9.93-22.03-4.5-8.24,5.65-18.06,6.62-27.46,3.12-1.5-.56-3.55-2.98-4.88-2.9-.69.04-6.24,3.96-9.39,4.49-6.72,1.13-12.34.06-18.55-2.27-1.24-.47-2.97-2.25-3.55-2.25s-3.29,2.43-4.88,2.95c-8.08,2.64-14.43,2.62-22.42-.31-1.4-.51-3.37-2.56-4.18-2.6-.91-.05-6.21,3.95-9.37,4.49-5.18.88-12.64.64-17.52-1.28-1.68-.66-4.4-3.28-5.58-3.21-.69.04-6.24,3.96-9.39,4.49-8.39,1.41-15.99-.01-22.96-4.71-5.48,5.29-14.94,5.86-22.24,4.7-2.96-.47-9.82-4.52-10.39-4.49-.67.04-6.25,3.97-9.39,4.49-5.83.98-11.74.47-17.2-1.59-1.55-.58-4.25-2.87-4.9-2.9-.57-.03-7.43,4.02-10.39,4.49-7.58,1.2-23.19-.13-24.45-9.62ZM1072.82,10.9c5.57,6.05,17.53,5.4,23.31,0-5.99-6.27-17.22-5.79-23.31,0ZM1105.29,11.9c1.11,4.82,20.66,3.61,23.33-.99-2.77-7.15-24.55-4.34-23.33.99ZM1137.78,12.41c7.25,3.36,16.11,4.27,22.31-1.5-2.57-3.26-8.64-4.89-12.66-4.61-2.01.14-11.33,3.86-9.66,6.11ZM1170.26,11.9c.96,4.08,19.99,4.06,22.31-.99-3.01-6.22-23.7-4.87-22.31.99ZM1201.74,11.9c.93,3.83,20.91,4.51,23.33-1-3.19-6.71-24.61-4.29-23.33,1ZM1234.23,12.4c7.38,3.09,15.92,4.11,22.31-1.5-5.15-6.11-19.34-6.77-22.31,1.5ZM1287.91,9.51c-6.7-3.63-18.84-5.75-22.21,2.9,7.66,3.82,14.48,2.89,22.27-.06l-.06-2.83ZM1297.19,10.9c6.4,5.75,16.68,5,23.31,0-6.37-6.62-16.67-5.83-23.31,0ZM1350.97,9.41c-4.51-2.05-7.34-3.59-12.59-2.97-2.13.25-9.36,2.73-8.73,5.46.98,4.22,21.39,4.56,21.31-2.49ZM1361.13,11.9c1.1,4.75,19.71,3.5,22.31-.99-3.09-6.23-23.71-5.05-22.31.99ZM1392.64,9.45c-2.69,4.05,7.81,5.44,10.08,5.52,4.18.15,7.4-1.29,11.2-2.56-.91-5.35-9.01-6.54-13.46-5.81-.98.16-7.59,2.51-7.82,2.86ZM1424.08,11.9c6.23,4.32,16.73,4.42,22.31-1-5.13-6.1-18.44-6.41-22.31,1ZM1455.57,10.9c5.88,5.57,17.29,5.33,23.31,0-5.87-6.28-17.44-6.28-23.31,0ZM1488.04,11.9c6.87,4.79,16.86,4.35,23.33-1-6.19-5.44-18.85-7.2-23.33,1ZM1519.51,12.41c7.51,3.26,16.69,4.18,23.33-1.5-3.28-2.78-8.3-4.83-12.64-4.59-2.04.11-12.62,3.49-10.69,6.09ZM1552,12.41c6.96,2.77,16.76,4.59,22.31-1.5-5.14-6.11-19.34-6.77-22.31,1.5ZM1583.47,12.41c7.39,3.03,17.09,4.45,23.33-1.5-3.29-2.78-8.29-4.83-12.64-4.59-2.04.11-12.63,3.49-10.69,6.09ZM1638.29,9.4c-7.08-3.29-17.82-5.69-22.33,2.5.84,3.54,22.59,5.3,22.33-2.5ZM1648.49,9.45c-2.39,3.6,7.4,5.82,9.74,5.95,4.15.22,8.66-1.82,12.55-2.99-1.11-5.7-9.74-6.58-14.48-5.81-.99.16-7.58,2.5-7.81,2.85ZM1703.26,9.4c-6.87-3.56-17.86-5.57-22.33,2.5.87,3.63,22.11,5.26,22.33-2.5ZM1713.42,11.9c.91,3.77,20.87,4.02,23.33-1-6.19-5.44-18.85-7.2-23.33,1ZM1744.91,10.9c5.74,5.47,17.68,5.61,23.31,0-6.26-6.67-16.64-5.58-23.31,0ZM1777.38,12.41c7.62,3.55,16.56,4.07,23.33-1.5-3.05-3.57-8.09-4.91-12.65-4.57-2.02.15-12.64,3.44-10.68,6.07ZM1809.87,11.9c6.32,4.56,16.6,4.38,22.31-1-5.27-6.06-18.34-6.68-22.31,1ZM1842.36,11.9c1.03,4.44,19.55,3.98,22.31-.99-2.67-6.65-23.67-4.83-22.31.99ZM1873.83,12.41c7.32,2.94,17.1,4.51,23.33-1.5-3.05-3.57-8.09-4.91-12.65-4.57-2.02.15-12.64,3.44-10.68,6.07ZM1906.34,10.9c5.62,6.13,17.23,5.09,23.31,0-6.69-6.23-16.44-5.8-23.31,0ZM1938.81,11.9c6.17,4.24,16.79,4.46,22.31-1-5.13-6.1-18.44-6.41-22.31,1Z"/>
        <g>
          <path class="cls-1" d="M164.9,11.64c-1.43-10.83,16.89-12.3,24.45-11.1,3.17.5,7.69,3.68,9.46,3.82,2.9.24,11.86-5.01,21.22-4.05,5.77.59,9.52,4.61,11.36,4.88.98.15,4.62-2.68,6.43-3.36,4.87-1.85,10.31-2.11,15.47-1.29,3.18.5,9.49,4.48,10.4,4.48,1.54,0,3.34-2.37,4.89-2.9,6.29-2.14,14.92-2.96,21.2-.51,1.92.75,4.52,3.43,5.57,3.58,1.16.17,3.38-2.07,5.12-2.66,9.44-3.21,15.32-3.24,24.66.28,1.25.47,3.2,2.37,3.56,2.36.52,0,1.97-2.1,3.27-2.63,8.11-3.32,15.86-3.08,24.02-.12,1.37.5,3.54,2.64,4.17,2.64.36,0,4.5-2.91,6.32-3.52,4.69-1.55,10.88-1.82,15.77-1,3.1.52,8.86,4.52,9.38,4.52.36,0,3.93-2.65,5.61-3.22,5.23-1.79,11.85-2.21,17.29-1.09,2.7.55,8.09,4.31,8.57,4.31.57,0,3.29-2.42,4.88-2.94,5.41-1.77,12.62-2.72,18.24-1.59,2.51.51,7.46,4.45,8.36,4.5,1.03.06,3.42-2.19,5.04-2.74,5.78-1.94,10.84-2.81,17.04-1.75,3,.51,9.17,4.54,10.39,4.46.74-.05,5.8-3.68,8.58-4.25,5.34-1.1,11.21-.84,16.29,1.09,1.86.71,5.02,3.24,5.78,3.36.56.09,7.28-3.9,10.42-4.45,6.5-1.12,11.58-.9,17.56,1.82,1.51.68,2.65,2.78,4.14,2.65,1.41-.13,3.92-2.67,5.76-3.4,4.73-1.88,11.48-2.13,16.51-1.28,3.01.51,9.16,4.54,10.39,4.46.81-.05,6.2-3.93,9.38-4.46,5.07-.85,11.73-.6,16.51,1.28,1.77.69,4.21,3.2,5.59,3.2,1.55,0,3.34-2.37,4.89-2.9,9.72-3.31,18.94-2.7,27.46,3.12,6.19-6.58,18.81-6.17,26.74-3.12,1.62.62,3.52,2.94,5.06,3.09.98.09,5.26-3.81,8.4-4.47,7.33-1.54,17.5-.87,23.04,4.5,8.52-5.83,17.74-6.43,27.46-3.12,1.54.53,3.35,2.91,4.89,2.9,1.22,0,3.36-2.16,5.05-2.73,8.76-2.98,14.53-2.76,23.26.13,1.43.47,3.25,2.52,4.18,2.58,1.21.08,7.39-3.95,10.39-4.46,4.96-.84,11.77-.43,16.5,1.29,1.94.71,4.21,3.22,5.76,3.36,1.14.1,4.56-2.64,6.45-3.35,4.91-1.86,11.29-2.16,16.49-1.29,3.15.53,8.69,4.45,9.39,4.49.92.05,6.2-3.95,9.37-4.49,5.17-.88,11.59-.57,16.49,1.29,1.85.7,5.03,3.25,5.78,3.36,1.03.16,4.52-2.68,6.44-3.35,5.18-1.81,11.9-2.19,17.29-1.09,3.21.65,7.54,4.26,8.75,4.45.98.15,4.62-2.68,6.43-3.36,4.91-1.86,11.29-2.16,16.49-1.29,2.96.5,9.49,4.77,10.21,4.66.84-.13,3.36-2.41,5.07-3.07,5.34-2.06,10.47-2.49,16.19-1.59,2.96.47,9.82,4.52,10.39,4.49s7.35-4.02,10.41-4.49c5.19-.81,11.62-.63,16.5,1.28,1.68.66,4.4,3.28,5.58,3.21.44-.02,5.32-3.22,7.98-3.87,5.97-1.45,12.1-1.35,17.89.68,1.92.67,5.41,3.51,6.44,3.35,1.39-.21,5.88-4.04,9.56-4.66,7.58-1.27,24.69-.02,24.69,10.37,0,10.91-19.09,11.74-26.9,9.53-2.29-.65-6.7-3.6-7.17-3.63-1.22-.08-7.38,3.95-10.39,4.46-6.16,1.05-11.29.2-17.04-1.75-1.69-.57-3.83-2.73-5.05-2.73-1.42,0-3.75,2.54-5.6,3.2-4.87,1.73-11.38,2.09-16.5,1.28-2.96-.47-9.82-4.52-10.39-4.49-.63.04-6.93,4.05-9.38,4.5-5.61,1.03-11.94.44-17.21-1.59-1.71-.66-4.23-2.94-5.07-3.07-.97-.15-4.62,2.68-6.43,3.36-4.91,1.86-11.3,2.16-16.49,1.29-3.1-.52-8.86-4.53-9.38-4.52-.58,0-2.3,1.78-3.55,2.25-6.43,2.42-12.63,3.43-19.56,2.27-3.1-.52-8.86-4.52-9.38-4.52s-6.29,4-9.38,4.52c-5.11.86-11.61.41-16.48-1.3-1.92-.67-5.41-3.51-6.44-3.35-1.21.18-5.55,3.79-8.75,4.45-6.86,1.4-12.22.38-18.62-1.79-1.73-.59-3.96-2.84-5.12-2.66-.75.12-3.93,2.66-5.78,3.37-4.92,1.87-11.31,2.16-16.49,1.29-3.68-.62-8.17-4.44-9.56-4.66-.86-.13-5.7,3.29-7.89,3.93-4.76,1.4-9.94,1.36-14.82.51-3.06-.53-9.75-4.3-10.6-4.25s-6.19,3.92-9.38,4.46c-5.83.98-11.73.46-17.2-1.59-1.55-.58-4.23-2.86-4.9-2.9-1.17-.07-3.9,2.55-5.58,3.21-4.78,1.87-11.43,2.13-16.51,1.28-3-.51-9.17-4.54-10.39-4.46-.93.06-2.74,2.1-4.18,2.58-8.04,2.66-14.31,3.33-22.41.3-1.55-.58-4.23-2.86-4.9-2.9-1.32-.08-3.38,2.34-4.88,2.9-7.82,2.91-14.78,2.44-22.55-.17-1.57-.53-4.26-2.88-5.07-2.82-.7.06-1.96,2.03-3.27,2.57-5.65,2.34-11.71,2.97-17.79,2-3.18-.5-9.49-4.48-10.4-4.48-1.07,0-4.74,2.94-7.16,3.66-5.93,1.77-12.91,1.55-18.71-.48-1.99-.7-4.95-3.22-5.79-3.35-1.03-.16-4.52,2.68-6.44,3.35-5.16,1.81-11.92,2.2-17.29,1.09-2.78-.57-7.84-4.21-8.58-4.25-1.23-.08-7.38,3.95-10.39,4.46-2.99.5-8.93.65-11.88.18-3.13-.5-8.23-4.62-9.21-4.67-.57-.03-7.43,4.02-10.39,4.49-2.93.46-8.05.63-10.95.27-3.57-.44-10.38-4.8-11.13-4.76-.6.03-5.85,3.72-8.58,4.29-7.03,1.44-16.9.93-22.03-4.5-8.24,5.65-18.06,6.62-27.46,3.12-1.5-.56-3.55-2.98-4.88-2.9-.69.04-6.24,3.96-9.39,4.49-6.72,1.13-12.34.06-18.55-2.27-1.24-.47-2.97-2.25-3.55-2.25s-3.29,2.43-4.88,2.95c-8.08,2.64-14.43,2.62-22.42-.31-1.4-.51-3.37-2.56-4.18-2.6-.91-.05-6.21,3.95-9.37,4.49-5.18.88-12.64.64-17.52-1.28-1.68-.66-4.4-3.28-5.58-3.21-.69.04-6.24,3.96-9.39,4.49-8.39,1.41-15.99-.01-22.96-4.71-5.48,5.29-14.94,5.86-22.24,4.7-2.96-.47-9.82-4.52-10.39-4.49-.67.04-6.25,3.97-9.39,4.49-5.83.98-11.74.47-17.2-1.59-1.55-.58-4.25-2.87-4.9-2.9-.57-.03-7.43,4.02-10.39,4.49-7.58,1.2-23.19-.13-24.45-9.62ZM171.85,10.9c5.57,6.05,17.53,5.4,23.31,0-5.99-6.27-17.22-5.79-23.31,0ZM204.32,11.9c1.11,4.82,20.66,3.61,23.33-.99-2.77-7.15-24.55-4.34-23.33.99ZM236.81,12.41c7.25,3.36,16.11,4.27,22.31-1.5-2.57-3.26-8.64-4.89-12.66-4.61-2.01.14-11.33,3.86-9.66,6.11ZM269.29,11.9c.96,4.08,19.99,4.06,22.31-.99-3.01-6.22-23.7-4.87-22.31.99ZM300.77,11.9c.93,3.83,20.91,4.51,23.33-1-3.19-6.71-24.61-4.29-23.33,1ZM333.26,12.4c7.38,3.09,15.92,4.11,22.31-1.5-5.15-6.11-19.34-6.77-22.31,1.5ZM386.94,9.51c-6.7-3.63-18.84-5.75-22.21,2.9,7.66,3.82,14.48,2.89,22.27-.06l-.06-2.83ZM396.22,10.9c6.4,5.75,16.68,5,23.31,0-6.37-6.62-16.67-5.83-23.31,0ZM450,9.41c-4.51-2.05-7.34-3.59-12.59-2.97-2.13.25-9.36,2.73-8.73,5.46.98,4.22,21.39,4.56,21.31-2.49ZM460.16,11.9c1.1,4.75,19.71,3.5,22.31-.99-3.09-6.23-23.71-5.05-22.31.99ZM491.67,9.45c-2.69,4.05,7.81,5.44,10.08,5.52,4.18.15,7.4-1.29,11.2-2.56-.91-5.35-9.01-6.54-13.46-5.81-.98.16-7.59,2.51-7.82,2.86ZM523.11,11.9c6.23,4.32,16.73,4.42,22.31-1-5.13-6.1-18.44-6.41-22.31,1ZM554.6,10.9c5.88,5.57,17.29,5.33,23.31,0-5.87-6.28-17.44-6.28-23.31,0ZM587.07,11.9c6.87,4.79,16.86,4.35,23.33-1-6.19-5.44-18.85-7.2-23.33,1ZM618.54,12.41c7.51,3.26,16.69,4.18,23.33-1.5-3.28-2.78-8.3-4.83-12.64-4.59-2.04.11-12.62,3.49-10.69,6.09ZM651.03,12.41c6.96,2.77,16.76,4.59,22.31-1.5-5.14-6.11-19.34-6.77-22.31,1.5ZM682.5,12.41c7.39,3.03,17.09,4.45,23.33-1.5-3.29-2.78-8.29-4.83-12.64-4.59-2.04.11-12.63,3.49-10.69,6.09ZM737.32,9.4c-7.08-3.29-17.82-5.69-22.33,2.5.84,3.54,22.59,5.3,22.33-2.5ZM747.52,9.45c-2.39,3.6,7.4,5.82,9.74,5.95,4.15.22,8.66-1.82,12.55-2.99-1.11-5.7-9.74-6.58-14.48-5.81-.99.16-7.58,2.5-7.81,2.85ZM802.29,9.4c-6.87-3.56-17.86-5.57-22.33,2.5.87,3.63,22.11,5.26,22.33-2.5ZM812.45,11.9c.91,3.77,20.87,4.02,23.33-1-6.19-5.44-18.85-7.2-23.33,1ZM843.94,10.9c5.74,5.47,17.68,5.61,23.31,0-6.26-6.67-16.64-5.58-23.31,0ZM876.41,12.41c7.62,3.55,16.56,4.07,23.33-1.5-3.05-3.57-8.09-4.91-12.65-4.57-2.02.15-12.64,3.44-10.68,6.07ZM908.9,11.9c6.32,4.56,16.6,4.38,22.31-1-5.27-6.06-18.34-6.68-22.31,1ZM941.39,11.9c1.03,4.44,19.55,3.98,22.31-.99-2.67-6.65-23.67-4.83-22.31.99ZM972.86,12.41c7.32,2.94,17.1,4.51,23.33-1.5-3.05-3.57-8.09-4.91-12.65-4.57-2.02.15-12.64,3.44-10.68,6.07ZM1005.37,10.9c5.62,6.13,17.23,5.09,23.31,0-6.69-6.23-16.44-5.8-23.31,0ZM1037.84,11.9c6.17,4.24,16.79,4.46,22.31-1-5.13-6.1-18.44-6.41-22.31,1Z"/>
          <path class="cls-1" d="M.65,6.55c-.11.44-.29.84-.5,1.2C-.1,9.84.03,11.96.06,14.06c.46.89.89,1.79,1.28,2.71.02,0,.05-.02.07-.02.52,0,6.28,4,9.38,4.52,5.2.87,11.59.57,16.49-1.29,1.81-.69,5.46-3.51,6.43-3.36.84.13,3.36,2.41,5.07,3.07,5.27,2.03,11.6,2.63,17.21,1.59,2.45-.45,8.75-4.46,9.38-4.5.57-.03,7.43,4.02,10.39,4.49,5.11.81,11.62.45,16.5-1.28,1.85-.66,4.18-3.21,5.6-3.2,1.22,0,3.36,2.16,5.05,2.73,5.75,1.96,10.88,2.8,17.04,1.75,3.01-.51,9.17-4.54,10.39-4.46.47.03,4.88,2.98,7.17,3.63,7.81,2.2,26.9,1.37,26.9-9.53,0-10.38-17.11-11.63-24.69-10.37-3.68.62-8.17,4.44-9.56,4.66-1.03.16-4.52-2.68-6.44-3.35-5.79-2.03-11.92-2.13-17.89-.68-2.66.64-7.54,3.84-7.98,3.86-1.18.07-3.89-2.55-5.58-3.21-4.88-1.91-11.32-2.08-16.5-1.28-3.06.48-9.84,4.46-10.41,4.49s-7.43-4.02-10.39-4.49c-5.72-.91-10.85-.47-16.19,1.59-1.71.66-4.22,2.93-5.07,3.07-.72.11-7.25-4.16-10.21-4.66C18.3-.33,11.92-.03,7.01,1.83c-1.38.52-3.8,2.26-5.32,3-.18.62-.52,1.21-1.04,1.72ZM157.23,10.9c-5.52,5.45-16.14,5.24-22.31,1,3.87-7.41,17.18-7.1,22.31-1ZM102.45,10.9c6.87-5.8,16.62-6.23,23.31,0-6.08,5.09-17.69,6.12-23.31,0ZM93.27,10.9c-6.23,6.01-16.01,4.45-23.33,1.5-1.96-2.63,8.66-5.93,10.68-6.07,4.56-.33,9.6,1.01,12.65,4.57ZM38.47,11.9c-1.35-5.82,19.64-7.64,22.31-.99-2.77,4.98-21.28,5.43-22.31.99ZM28.3,10.9c-5.71,5.38-15.99,5.55-22.31,1,3.97-7.68,17.04-7.06,22.31-1Z"/>
        </g>
      </g>
    </g>
  </g>
</svg>