<?xml version="1.0" encoding="UTF-8"?>
<svg id="Layer_2" data-name="Layer 2" xmlns="http://www.w3.org/2000/svg" viewBox="0 0 282.56 371.66">
  <defs>
    <style>
      .cls-1 {
        fill: #f4dd6a;
      }

      .cls-1, .cls-2, .cls-3, .cls-4, .cls-5, .cls-6 {
        stroke-miterlimit: 10;
      }

      .cls-1, .cls-2, .cls-3, .cls-5, .cls-6 {
        stroke: #231f20;
      }

      .cls-1, .cls-3, .cls-4, .cls-5 {
        stroke-width: 3px;
      }

      .cls-7 {
        fill: #ffeb37;
      }

      .cls-8 {
        fill: #c92744;
      }

      .cls-2 {
        stroke-width: 5.45px;
      }

      .cls-2, .cls-3, .cls-9 {
        fill: #d0cac6;
      }

      .cls-10 {
        fill: #2a2b2a;
      }

      .cls-11 {
        fill-rule: evenodd;
      }

      .cls-11, .cls-12 {
        fill: #191818;
      }

      .cls-13 {
        fill: #262626;
      }

      .cls-14 {
        fill: #f8f1f3;
      }

      .cls-15 {
        fill: #2787c8;
      }

      .cls-4 {
        fill: #eee9e5;
        stroke: #000;
      }

      .cls-16 {
        fill: #f2dabd;
      }

      .cls-17 {
        fill: #37b34a;
      }

      .cls-18 {
        fill: #110e0e;
      }

      .cls-19 {
        fill: #1b75bb;
      }

      .cls-20 {
        fill: #efeded;
      }

      .cls-21 {
        fill: #be1e2d;
      }

      .cls-22 {
        fill: #50b74f;
      }

      .cls-23 {
        fill: #e9d333;
      }

      .cls-5, .cls-6 {
        fill: none;
      }

      .cls-24 {
        fill: #b89e89;
      }

      .cls-6 {
        stroke-width: 2.72px;
      }

      .cls-25 {
        fill: #e9caac;
      }
    </style>
  </defs>
  <g id="_1" data-name="1">
    <g id="Layer_5" data-name="Layer 5">
      <g id="OG_Emb_Machine" data-name="OG Emb Machine">
        <rect class="cls-6" x="179.45" y="161.1" width="28.88" height="20.09"/>
        <rect class="cls-3" x="118.3" y="1.95" width="21.88" height="72.25"/>
        <rect class="cls-3" x="29.27" y="78.24" width="201.56" height="20.01"/>
        <g>
          <polyline class="cls-1" points="77.92 252.84 77.92 130.12 115.33 72.75 142.89 72.75 179.65 130.12 179.65 252.6"/>
          <rect class="cls-1" x="16.55" y="252.91" width="224.46" height="47.13" rx="11.54" ry="11.54"/>
          <path class="cls-1" d="M207.86,272.42H49.7s-19.14,2.39-18.6,27.08h195.35c.55-24.69-18.6-27.08-18.6-27.08Z"/>
          <rect class="cls-3" x="70.01" y="298.26" width="117.55" height="40.99"/>
          <g>
            <path class="cls-3" d="M85.12,311.78c-.22-18.15-17.72-19.36-17.72-19.36H20.58s-17.5,1.21-17.72,19.36l-1.31,43.33h84.88l-1.31-43.33Z"/>
            <polyline class="cls-5" points="43.66 355.87 43.66 370.16 30.97 370.16 57.01 370.16"/>
          </g>
          <g>
            <g>
              <path class="cls-3" d="M257.25,311.78c-.22-18.15-17.72-19.36-17.72-19.36h-46.82s-17.5,1.21-17.72,19.36l-1.31,43.33h84.88l-1.31-43.33Z"/>
              <polyline class="cls-5" points="215.79 355.87 215.79 370.16 203.1 370.16 229.14 370.16"/>
            </g>
            <line class="cls-1" x1="2.4" y1="319.69" x2="257.35" y2="319.69"/>
          </g>
        </g>
        <path class="cls-20" d="M192.51,47.47c-1.72-.5-7.54-.18-9.74.22-2.87.52-2.77,1.92-2.77,1.92h15.59s.21-1.2-3.08-2.15Z"/>
        <path class="cls-25" d="M191.9,46.34h-8.22l-2.82,47.53s.95,2.94,7.18,2.94c5.8,0,6.68-2.94,6.68-2.94l-2.82-47.53Z"/>
        <path class="cls-24" d="M190.99,46.36c0,.5-1.43.91-3.2.91s-3.2-.41-3.2-.91,1.43-.91,3.2-.91,3.2.41,3.2.91Z"/>
        <path class="cls-14" d="M195.58,49.62s-.76,1.3-3.28,2.17c-2.51.87-4.52.85-4.52.85,0,0-2,.02-4.52-.85-2.51-.87-3.28-2.17-3.28-2.17,0,0-3.65,36.61-2.94,38.64,1.71,4.89,10.73,4.87,10.73,4.87,0,0,9.02.02,10.73-4.87.71-2.04-2.94-38.64-2.94-38.64Z"/>
        <path class="cls-20" d="M183.48,49.62s-.1,1.46,4.31,1.52c4.45.07,4.31-1.52,4.31-1.52h3.49s-.5,3.25-7.69,3.24c-7.4-.01-7.89-3.24-7.89-3.24h3.49Z"/>
        <g>
          <path class="cls-10" d="M215.4,40.08c-1.72-.5-7.54-.18-9.74.22-2.87.52-2.77,1.92-2.77,1.92h15.59s.21-1.2-3.08-2.15Z"/>
          <path class="cls-25" d="M214.8,38.95h-8.22l-2.82,47.53s.95,2.94,7.18,2.94c5.8,0,6.68-2.94,6.68-2.94l-2.82-47.53Z"/>
          <ellipse class="cls-16" cx="210.69" cy="38.97" rx="4.11" ry="1.34"/>
          <path class="cls-24" d="M213.89,38.97c0,.5-1.43.91-3.2.91s-3.2-.41-3.2-.91,1.43-.91,3.2-.91,3.2.41,3.2.91Z"/>
          <path class="cls-13" d="M218.48,42.23s-.76,1.3-3.28,2.17c-2.51.87-4.52.85-4.52.85,0,0-2,.02-4.52-.85-2.51-.87-3.28-2.17-3.28-2.17,0,0-3.65,36.61-2.94,38.64,1.71,4.89,10.73,4.87,10.73,4.87,0,0,9.02.02,10.73-4.87.71-2.04-2.94-38.64-2.94-38.64Z"/>
          <path class="cls-10" d="M206.38,42.23s-.1,1.46,4.31,1.52c4.45.07,4.31-1.52,4.31-1.52h3.49s-.5,3.25-7.69,3.24c-7.4-.01-7.89-3.24-7.89-3.24h3.49Z"/>
          <ellipse class="cls-16" cx="187.79" cy="46.36" rx="4.11" ry="1.34"/>
          <path class="cls-8" d="M169.61,40.08c-1.72-.5-7.54-.18-9.74.22-2.87.52-2.77,1.92-2.77,1.92h15.59s.21-1.2-3.08-2.15Z"/>
          <path class="cls-25" d="M169,38.95h-8.22l-2.82,47.53s.95,2.94,7.18,2.94c5.8,0,6.68-2.94,6.68-2.94l-2.82-47.53Z"/>
          <ellipse class="cls-16" cx="164.89" cy="38.97" rx="4.11" ry="1.34"/>
          <path class="cls-24" d="M168.09,38.97c0,.5-1.43.91-3.2.91s-3.2-.41-3.2-.91,1.43-.91,3.2-.91,3.2.41,3.2.91Z"/>
          <path class="cls-21" d="M172.69,42.23s-.76,1.3-3.28,2.17c-2.51.87-4.52.85-4.52.85,0,0-2,.02-4.52-.85-2.51-.87-3.28-2.17-3.28-2.17,0,0-3.65,36.61-2.94,38.64,1.71,4.89,10.73,4.87,10.73,4.87,0,0,9.02.02,10.73-4.87.71-2.04-2.94-38.64-2.94-38.64Z"/>
          <path class="cls-8" d="M160.59,42.23s-.1,1.46,4.31,1.52c4.45.07,4.31-1.52,4.31-1.52h3.49s-.5,3.25-7.69,3.24c-7.4-.01-7.89-3.24-7.89-3.24h3.49Z"/>
          <path class="cls-21" d="M171.39,48.04c1.99-1.88,3.17-4.44,3.91-7.04.85-2.99,1.18-6.13,1.26-9.22s-.1-6.5-.36-9.74-.57-6.63-.86-9.94-.52-6.44-.26-9.66c.03-.41.07-.82.12-1.22.02-.13-.32-.07-.33.04-.37,3.19-.23,6.39.03,9.57s.58,6.61.86,9.91.52,6.51.5,9.78-.27,6.32-.99,9.39c-.62,2.64-1.64,5.29-3.44,7.36-.22.25-.45.49-.7.72-.05.05-.03.1.03.12.07.02.18-.01.23-.06h0Z"/>
          <path class="cls-14" d="M194.27,56.24c1.43-3.09,2.87-6.22,3.6-9.56s.66-7.09.37-10.63c-.15-1.79-.33-3.57-.47-5.35s-.22-3.66-.25-5.49c-.07-3.57-.07-7.14-.09-10.71s-.01-7.08,0-10.62c0-.43,0-.86,0-1.29,0-.14-.33-.07-.33.04-.01,3.53-.01,7.06,0,10.58s.02,7.06.07,10.59c.02,1.82.06,3.64.17,5.45s.29,3.61.45,5.42c.32,3.56.58,7.16.01,10.71s-1.88,6.57-3.29,9.67c-.18.39-.36.79-.54,1.18-.07.14.26.11.31,0h0Z"/>
          <path class="cls-13" d="M217.11,50.17c1.31-2.83,2.02-5.91,2.12-9.02.1-3.29-.43-6.55-1-9.78s-1.1-6.53-1.57-9.8-.87-6.57-1.21-9.87-.62-6.58-.85-9.88c-.03-.41-.05-.82-.08-1.23,0-.11-.34-.04-.33.09.21,3.3.47,6.6.8,9.89s.71,6.55,1.16,9.81.95,6.51,1.51,9.75,1.18,6.5,1.24,9.8c.05,3.13-.47,6.25-1.64,9.16-.14.36-.3.72-.46,1.07-.07.14.26.11.31,0h0Z"/>
        </g>
        <g>
          <path class="cls-15" d="M99,40.08c-1.72-.5-7.54-.18-9.74.22-2.87.52-2.77,1.92-2.77,1.92h15.59s.21-1.2-3.08-2.15Z"/>
          <path class="cls-25" d="M98.4,38.95h-8.22l-2.82,47.53s.95,2.94,7.18,2.94c5.8,0,6.68-2.94,6.68-2.94l-2.82-47.53Z"/>
          <ellipse class="cls-16" cx="94.29" cy="38.97" rx="4.11" ry="1.34"/>
          <path class="cls-24" d="M97.49,38.97c0,.5-1.43.91-3.2.91s-3.2-.41-3.2-.91,1.43-.91,3.2-.91,3.2.41,3.2.91Z"/>
          <path class="cls-19" d="M102.08,42.23s-.76,1.3-3.28,2.17c-2.51.87-4.52.85-4.52.85,0,0-2,.02-4.52-.85-2.51-.87-3.28-2.17-3.28-2.17,0,0-3.65,36.61-2.94,38.64,1.71,4.89,10.73,4.87,10.73,4.87,0,0,9.02.02,10.73-4.87.71-2.04-2.94-38.64-2.94-38.64Z"/>
          <path class="cls-15" d="M89.98,42.23s-.1,1.46,4.31,1.52c4.45.07,4.31-1.52,4.31-1.52h3.49s-.5,3.25-7.69,3.24c-7.4-.01-7.89-3.24-7.89-3.24h3.49Z"/>
          <path class="cls-7" d="M76.11,47.47c-1.72-.5-7.54-.18-9.74.22-2.87.52-2.77,1.92-2.77,1.92h15.59s.21-1.2-3.08-2.15Z"/>
          <path class="cls-25" d="M75.5,46.34h-8.22l-2.82,47.53s.95,2.94,7.18,2.94c5.8,0,6.68-2.94,6.68-2.94l-2.82-47.53Z"/>
          <ellipse class="cls-16" cx="71.39" cy="46.36" rx="4.11" ry="1.34"/>
          <path class="cls-24" d="M74.59,46.36c0,.5-1.43.91-3.2.91s-3.2-.41-3.2-.91,1.43-.91,3.2-.91,3.2.41,3.2.91Z"/>
          <path class="cls-23" d="M79.18,49.62s-.76,1.3-3.28,2.17c-2.51.87-4.52.85-4.52.85,0,0-2,.02-4.52-.85-2.51-.87-3.28-2.17-3.28-2.17,0,0-3.65,36.61-2.94,38.64,1.71,4.89,10.73,4.87,10.73,4.87,0,0,9.02.02,10.73-4.87.71-2.04-2.94-38.64-2.94-38.64Z"/>
          <path class="cls-7" d="M67.09,49.62s-.1,1.46,4.31,1.52c4.45.07,4.31-1.52,4.31-1.52h3.49s-.5,3.25-7.69,3.24c-7.4-.01-7.89-3.24-7.89-3.24h3.49Z"/>
          <path class="cls-22" d="M53.21,40.08c-1.72-.5-7.54-.18-9.74.22-2.87.52-2.77,1.92-2.77,1.92h15.59s.21-1.2-3.08-2.15Z"/>
          <path class="cls-25" d="M52.6,38.95h-8.22l-2.82,47.53s.95,2.94,7.18,2.94c5.8,0,6.68-2.94,6.68-2.94l-2.82-47.53Z"/>
          <ellipse class="cls-16" cx="48.49" cy="38.97" rx="4.11" ry="1.34"/>
          <path class="cls-24" d="M51.69,38.97c0,.5-1.43.91-3.2.91s-3.2-.41-3.2-.91,1.43-.91,3.2-.91,3.2.41,3.2.91Z"/>
          <path class="cls-17" d="M56.29,42.23s-.76,1.3-3.28,2.17c-2.51.87-4.52.85-4.52.85,0,0-2,.02-4.52-.85-2.51-.87-3.28-2.17-3.28-2.17,0,0-3.65,36.61-2.94,38.64,1.71,4.89,10.73,4.87,10.73,4.87,0,0,9.02.02,10.73-4.87.71-2.04-2.94-38.64-2.94-38.64Z"/>
          <path class="cls-22" d="M44.19,42.23s-.1,1.46,4.31,1.52c4.45.07,4.31-1.52,4.31-1.52h3.49s-.5,3.25-7.69,3.24c-7.4-.01-7.89-3.24-7.89-3.24h3.49Z"/>
          <path class="cls-17" d="M56.92,48c1.99-1.89,3.17-4.46,3.9-7.06.84-2.97,1.16-6.08,1.25-9.16.09-3.26-.1-6.52-.36-9.77s-.57-6.63-.86-9.94-.51-6.4-.26-9.6c.03-.42.07-.85.12-1.27.01-.09-.32-.03-.33.05-.37,3.18-.23,6.38.02,9.57s.58,6.61.86,9.91.51,6.49.5,9.74-.26,6.37-.99,9.45c-.63,2.65-1.65,5.31-3.47,7.38-.22.25-.45.48-.68.71-.06.05.05.06.08.06.07,0,.17-.03.22-.08h0Z"/>
          <path class="cls-23" d="M79.77,56.24c1.43-3.09,2.87-6.22,3.6-9.56s.66-7.09.37-10.63c-.15-1.79-.33-3.57-.47-5.35s-.22-3.66-.25-5.49c-.07-3.57-.07-7.14-.09-10.71s-.01-7.08,0-10.62c0-.43,0-.86,0-1.29,0-.14-.33-.07-.33.04-.01,3.53-.01,7.06,0,10.58s.02,7.06.07,10.59c.02,1.82.06,3.64.17,5.45s.29,3.61.45,5.42c.32,3.56.58,7.16.01,10.71s-1.88,6.57-3.29,9.67c-.18.39-.36.79-.54,1.18-.07.14.26.11.31,0h0Z"/>
        </g>
        <path class="cls-19" d="M102.61,50.17c1.31-2.83,2.02-5.91,2.12-9.02.1-3.29-.43-6.55-1-9.78s-1.1-6.53-1.57-9.8-.87-6.57-1.21-9.87-.62-6.58-.85-9.88c-.03-.41-.05-.82-.08-1.23,0-.11-.34-.04-.33.09.21,3.3.47,6.6.8,9.89s.71,6.55,1.16,9.81.95,6.51,1.51,9.75,1.18,6.5,1.24,9.8c.05,3.13-.47,6.25-1.64,9.16-.14.36-.3.72-.46,1.07-.07.14.26.11.31,0h0Z"/>
        <line class="cls-3" x1="39.62" y1="1.5" x2="218.58" y2="1.5"/>
        <ellipse class="cls-9" cx="158.68" cy="126.69" rx="6.17" ry="6.82"/>
        <ellipse class="cls-9" cx="149.14" cy="105.58" rx="6.17" ry="6.82"/>
        <ellipse class="cls-9" cx="139.6" cy="126.69" rx="6.17" ry="6.82"/>
        <ellipse class="cls-9" cx="130.05" cy="105.58" rx="6.17" ry="6.82"/>
        <ellipse class="cls-9" cx="120.51" cy="126.69" rx="6.17" ry="6.82"/>
        <ellipse class="cls-9" cx="110.97" cy="105.58" rx="6.17" ry="6.82"/>
        <ellipse class="cls-9" cx="101.43" cy="126.69" rx="6.17" ry="6.82"/>
        <g>
          <path class="cls-12" d="M101.37,133.69c-3.51,0-6.37-3.16-6.37-7.05s2.86-7.05,6.37-7.05,6.37,3.16,6.37,7.05-2.86,7.05-6.37,7.05ZM101.37,119.88c-3.37,0-6.11,3.03-6.11,6.76s2.74,6.76,6.11,6.76,6.11-3.03,6.11-6.76-2.74-6.76-6.11-6.76Z"/>
          <g>
            <g>
              <g>
                <path class="cls-11" d="M101.37,120.75c.13,0,.23.11.23.25s-.1.25-.23.25-.23-.11-.23-.25.1-.25.23-.25Z"/>
                <g>
                  <path class="cls-11" d="M96.48,126.66c0,.14-.1.25-.23.25s-.23-.11-.23-.25.1-.25.23-.25.23.11.23.25Z"/>
                  <path class="cls-11" d="M106.71,126.66c0,.14-.1.25-.23.25s-.23-.11-.23-.25.1-.25.23-.25.23.11.23.25Z"/>
                </g>
              </g>
              <g>
                <path class="cls-11" d="M99.98,120.95c.12-.04.25.04.28.18.03.13-.04.27-.16.31-.12.04-.25-.04-.28-.18-.03-.14.04-.27.16-.31Z"/>
                <g>
                  <path class="cls-11" d="M96.65,128.06c.03.13-.04.27-.16.31-.12.04-.25-.04-.28-.18-.03-.13.04-.27.16-.31.12-.04.25.04.28.18Z"/>
                  <path class="cls-11" d="M106.52,125.13c.03.13-.04.27-.16.31-.12.04-.25-.04-.28-.18-.03-.13.04-.27.16-.31.12-.04.25.04.28.18Z"/>
                </g>
              </g>
              <g>
                <path class="cls-11" d="M98.7,121.54c.11-.07.25-.03.31.09.06.12.03.28-.08.35-.11.07-.25.03-.31-.09-.06-.12-.03-.28.08-.35Z"/>
                <g>
                  <path class="cls-11" d="M97.14,129.36c.06.12.03.28-.08.35-.11.07-.25.03-.31-.09-.06-.12-.03-.28.08-.35.11-.07.25-.03.31.09Z"/>
                  <path class="cls-11" d="M105.99,123.7c.06.12.03.28-.08.35-.11.07-.25.03-.31-.09-.06-.12-.03-.28.08-.35.11-.07.25-.03.31.09Z"/>
                </g>
              </g>
              <g>
                <g>
                  <path class="cls-11" d="M104.82,130.48c.09-.1.23-.1.32,0,.09.1.09.26,0,.36-.09.1-.23.1-.32,0-.09-.1-.09-.26,0-.36Z"/>
                  <path class="cls-11" d="M97.59,122.48c.09-.1.23-.1.32,0,.09.1.09.26,0,.36-.09.1-.23.1-.32,0-.09-.1-.09-.26,0-.36Z"/>
                </g>
                <g>
                  <path class="cls-11" d="M97.91,130.48c.09.1.09.26,0,.36-.09.1-.23.1-.32,0-.09-.1-.09-.26,0-.36.09-.1.23-.1.32,0Z"/>
                  <path class="cls-11" d="M105.14,122.48c.09.1.09.26,0,.36-.09.1-.23.1-.32,0-.09-.1-.09-.26,0-.36.09-.1.23-.1.32,0Z"/>
                </g>
              </g>
              <g>
                <g>
                  <path class="cls-11" d="M105.6,129.36c.06-.12.2-.16.31-.09.11.07.15.22.08.35-.06.12-.2.16-.31.09-.11-.07-.15-.22-.08-.35Z"/>
                  <path class="cls-11" d="M96.74,123.7c.06-.12.2-.16.31-.09.11.07.15.22.08.35-.06.12-.2.16-.31.09-.11-.07-.15-.22-.08-.35Z"/>
                </g>
                <path class="cls-11" d="M104.04,121.54c.11.07.15.22.08.35-.06.12-.2.16-.31.09-.11-.07-.15-.22-.08-.35.06-.12.2-.16.31-.09Z"/>
              </g>
              <g>
                <g>
                  <path class="cls-11" d="M106.08,128.06c.03-.13.16-.22.28-.18.12.04.19.17.16.31-.03.13-.16.21-.28.18-.12-.04-.19-.17-.16-.31Z"/>
                  <path class="cls-11" d="M96.21,125.13c.03-.13.16-.21.28-.18.12.04.19.17.16.31-.03.13-.16.22-.28.18-.12-.04-.19-.17-.16-.31Z"/>
                </g>
                <path class="cls-11" d="M102.75,120.95c.12.04.19.17.16.31-.03.13-.16.21-.28.18-.12-.04-.19-.17-.16-.31.03-.13.16-.21.28-.18Z"/>
              </g>
            </g>
            <path class="cls-12" d="M101.37,133.11c-3.22,0-5.85-2.9-5.85-6.47s2.62-6.47,5.85-6.47,5.85,2.9,5.85,6.47-2.62,6.47-5.85,6.47ZM101.37,120.33c-3.14,0-5.7,2.83-5.7,6.31s2.56,6.31,5.7,6.31,5.7-2.83,5.7-6.31-2.56-6.31-5.7-6.31Z"/>
            <path class="cls-11" d="M100.86,117.78h1c.05,0,.09.03.12.07.03.05.03.1,0,.15l-.5,1.11c-.02.05-.07.09-.13.09s-.1-.03-.13-.09l-.5-1.11s-.02-.1,0-.15c.03-.05.07-.07.12-.07Z"/>
          </g>
        </g>
        <g>
          <path class="cls-12" d="M120.45,133.69c-3.51,0-6.37-3.16-6.37-7.05s2.86-7.05,6.37-7.05,6.37,3.16,6.37,7.05-2.86,7.05-6.37,7.05ZM120.45,119.88c-3.37,0-6.11,3.03-6.11,6.76s2.74,6.76,6.11,6.76,6.11-3.03,6.11-6.76-2.74-6.76-6.11-6.76Z"/>
          <g>
            <g>
              <g>
                <path class="cls-11" d="M120.45,120.75c.13,0,.23.11.23.25s-.1.25-.23.25-.23-.11-.23-.25.1-.25.23-.25Z"/>
                <g>
                  <path class="cls-11" d="M115.56,126.66c0,.14-.1.25-.23.25s-.23-.11-.23-.25.1-.25.23-.25.23.11.23.25Z"/>
                  <path class="cls-11" d="M125.79,126.66c0,.14-.1.25-.23.25s-.23-.11-.23-.25.1-.25.23-.25.23.11.23.25Z"/>
                </g>
              </g>
              <g>
                <path class="cls-11" d="M119.07,120.95c.12-.04.25.04.28.18.03.13-.04.27-.16.31-.12.04-.25-.04-.28-.18-.03-.14.04-.27.16-.31Z"/>
                <g>
                  <path class="cls-11" d="M115.73,128.06c.03.13-.04.27-.16.31-.12.04-.25-.04-.28-.18-.03-.13.04-.27.16-.31.12-.04.25.04.28.18Z"/>
                  <path class="cls-11" d="M125.61,125.13c.03.13-.04.27-.16.31-.12.04-.25-.04-.28-.18-.03-.13.04-.27.16-.31.12-.04.25.04.28.18Z"/>
                </g>
              </g>
              <g>
                <path class="cls-11" d="M117.78,121.54c.11-.07.25-.03.31.09.06.12.03.28-.08.35-.11.07-.25.03-.31-.09-.06-.12-.03-.28.08-.35Z"/>
                <g>
                  <path class="cls-11" d="M116.22,129.36c.06.12.03.28-.08.35-.11.07-.25.03-.31-.09-.06-.12-.03-.28.08-.35.11-.07.25-.03.31.09Z"/>
                  <path class="cls-11" d="M125.07,123.7c.06.12.03.28-.08.35-.11.07-.25.03-.31-.09-.06-.12-.03-.28.08-.35.11-.07.25-.03.31.09Z"/>
                </g>
              </g>
              <g>
                <g>
                  <path class="cls-11" d="M123.9,130.48c.09-.1.23-.1.32,0,.09.1.09.26,0,.36-.09.1-.23.1-.32,0-.09-.1-.09-.26,0-.36Z"/>
                  <path class="cls-11" d="M116.67,122.48c.09-.1.23-.1.32,0,.09.1.09.26,0,.36-.09.1-.23.1-.32,0-.09-.1-.09-.26,0-.36Z"/>
                </g>
                <g>
                  <path class="cls-11" d="M117,130.48c.09.1.09.26,0,.36-.09.1-.23.1-.32,0-.09-.1-.09-.26,0-.36.09-.1.23-.1.32,0Z"/>
                  <path class="cls-11" d="M124.22,122.48c.09.1.09.26,0,.36-.09.1-.23.1-.32,0-.09-.1-.09-.26,0-.36.09-.1.23-.1.32,0Z"/>
                </g>
              </g>
              <g>
                <g>
                  <path class="cls-11" d="M124.68,129.36c.06-.12.2-.16.31-.09.11.07.15.22.08.35-.06.12-.2.16-.31.09-.11-.07-.15-.22-.08-.35Z"/>
                  <path class="cls-11" d="M115.82,123.7c.06-.12.2-.16.31-.09.11.07.15.22.08.35-.06.12-.2.16-.31.09-.11-.07-.15-.22-.08-.35Z"/>
                </g>
                <path class="cls-11" d="M123.12,121.54c.11.07.15.22.08.35-.06.12-.2.16-.31.09-.11-.07-.15-.22-.08-.35.06-.12.2-.16.31-.09Z"/>
              </g>
              <g>
                <g>
                  <path class="cls-11" d="M125.16,128.06c.03-.13.16-.22.28-.18.12.04.19.17.16.31-.03.13-.16.21-.28.18-.12-.04-.19-.17-.16-.31Z"/>
                  <path class="cls-11" d="M115.29,125.13c.03-.13.16-.21.28-.18.12.04.19.17.16.31-.03.13-.16.22-.28.18-.12-.04-.19-.17-.16-.31Z"/>
                </g>
                <path class="cls-11" d="M121.83,120.95c.12.04.19.17.16.31-.03.13-.16.21-.28.18-.12-.04-.19-.17-.16-.31.03-.13.16-.21.28-.18Z"/>
              </g>
            </g>
            <path class="cls-12" d="M120.45,133.11c-3.22,0-5.85-2.9-5.85-6.47s2.62-6.47,5.85-6.47,5.85,2.9,5.85,6.47-2.62,6.47-5.85,6.47ZM120.45,120.33c-3.14,0-5.7,2.83-5.7,6.31s2.56,6.31,5.7,6.31,5.7-2.83,5.7-6.31-2.56-6.31-5.7-6.31Z"/>
            <path class="cls-11" d="M119.95,117.78h1c.05,0,.09.03.12.07.03.05.03.1,0,.15l-.5,1.11c-.02.05-.07.09-.13.09s-.1-.03-.13-.09l-.5-1.11s-.02-.1,0-.15c.03-.05.07-.07.12-.07Z"/>
          </g>
        </g>
        <g>
          <path class="cls-12" d="M139.53,133.69c-3.51,0-6.37-3.16-6.37-7.05s2.86-7.05,6.37-7.05,6.37,3.16,6.37,7.05-2.86,7.05-6.37,7.05ZM139.53,119.88c-3.37,0-6.11,3.03-6.11,6.76s2.74,6.76,6.11,6.76,6.11-3.03,6.11-6.76-2.74-6.76-6.11-6.76Z"/>
          <g>
            <g>
              <g>
                <path class="cls-11" d="M139.53,120.75c.13,0,.23.11.23.25s-.1.25-.23.25-.23-.11-.23-.25.1-.25.23-.25Z"/>
                <g>
                  <path class="cls-11" d="M134.65,126.66c0,.14-.1.25-.23.25s-.23-.11-.23-.25.1-.25.23-.25.23.11.23.25Z"/>
                  <path class="cls-11" d="M144.87,126.66c0,.14-.1.25-.23.25s-.23-.11-.23-.25.1-.25.23-.25.23.11.23.25Z"/>
                </g>
              </g>
              <g>
                <path class="cls-11" d="M138.15,120.95c.12-.04.25.04.28.18.03.13-.04.27-.16.31-.12.04-.25-.04-.28-.18-.03-.14.04-.27.16-.31Z"/>
                <g>
                  <path class="cls-11" d="M134.81,128.06c.03.13-.04.27-.16.31-.12.04-.25-.04-.28-.18-.03-.13.04-.27.16-.31.12-.04.25.04.28.18Z"/>
                  <path class="cls-11" d="M144.69,125.13c.03.13-.04.27-.16.31-.12.04-.25-.04-.28-.18-.03-.13.04-.27.16-.31.12-.04.25.04.28.18Z"/>
                </g>
              </g>
              <g>
                <path class="cls-11" d="M136.86,121.54c.11-.07.25-.03.31.09.06.12.03.28-.08.35-.11.07-.25.03-.31-.09-.06-.12-.03-.28.08-.35Z"/>
                <g>
                  <path class="cls-11" d="M135.3,129.36c.06.12.03.28-.08.35-.11.07-.25.03-.31-.09-.06-.12-.03-.28.08-.35.11-.07.25-.03.31.09Z"/>
                  <path class="cls-11" d="M144.15,123.7c.06.12.03.28-.08.35-.11.07-.25.03-.31-.09-.06-.12-.03-.28.08-.35.11-.07.25-.03.31.09Z"/>
                </g>
              </g>
              <g>
                <g>
                  <path class="cls-11" d="M142.98,130.48c.09-.1.23-.1.32,0,.09.1.09.26,0,.36-.09.1-.23.1-.32,0-.09-.1-.09-.26,0-.36Z"/>
                  <path class="cls-11" d="M135.75,122.48c.09-.1.23-.1.32,0,.09.1.09.26,0,.36-.09.1-.23.1-.32,0-.09-.1-.09-.26,0-.36Z"/>
                </g>
                <g>
                  <path class="cls-11" d="M136.08,130.48c.09.1.09.26,0,.36-.09.1-.23.1-.32,0-.09-.1-.09-.26,0-.36.09-.1.23-.1.32,0Z"/>
                  <path class="cls-11" d="M143.31,122.48c.09.1.09.26,0,.36-.09.1-.23.1-.32,0-.09-.1-.09-.26,0-.36.09-.1.23-.1.32,0Z"/>
                </g>
              </g>
              <g>
                <g>
                  <path class="cls-11" d="M143.76,129.36c.06-.12.2-.16.31-.09.11.07.15.22.08.35-.06.12-.2.16-.31.09-.11-.07-.15-.22-.08-.35Z"/>
                  <path class="cls-11" d="M134.9,123.7c.06-.12.2-.16.31-.09.11.07.15.22.08.35-.06.12-.2.16-.31.09-.11-.07-.15-.22-.08-.35Z"/>
                </g>
                <path class="cls-11" d="M142.2,121.54c.11.07.15.22.08.35-.06.12-.2.16-.31.09-.11-.07-.15-.22-.08-.35.06-.12.2-.16.31-.09Z"/>
              </g>
              <g>
                <g>
                  <path class="cls-11" d="M144.25,128.06c.03-.13.16-.22.28-.18.12.04.19.17.16.31-.03.13-.16.21-.28.18-.12-.04-.19-.17-.16-.31Z"/>
                  <path class="cls-11" d="M134.37,125.13c.03-.13.16-.21.28-.18.12.04.19.17.16.31-.03.13-.16.22-.28.18-.12-.04-.19-.17-.16-.31Z"/>
                </g>
                <path class="cls-11" d="M140.91,120.95c.12.04.19.17.16.31-.03.13-.16.21-.28.18-.12-.04-.19-.17-.16-.31.03-.13.16-.21.28-.18Z"/>
              </g>
            </g>
            <path class="cls-12" d="M139.53,133.11c-3.22,0-5.85-2.9-5.85-6.47s2.62-6.47,5.85-6.47,5.85,2.9,5.85,6.47-2.62,6.47-5.85,6.47ZM139.53,120.33c-3.14,0-5.7,2.83-5.7,6.31s2.56,6.31,5.7,6.31,5.7-2.83,5.7-6.31-2.56-6.31-5.7-6.31Z"/>
            <path class="cls-11" d="M139.03,117.78h1c.05,0,.09.03.12.07.03.05.03.1,0,.15l-.5,1.11c-.02.05-.07.09-.13.09s-.1-.03-.13-.09l-.5-1.11s-.02-.1,0-.15c.03-.05.07-.07.12-.07Z"/>
          </g>
        </g>
        <g>
          <path class="cls-12" d="M158.61,133.69c-3.51,0-6.37-3.16-6.37-7.05s2.86-7.05,6.37-7.05,6.37,3.16,6.37,7.05-2.86,7.05-6.37,7.05ZM158.61,119.88c-3.37,0-6.11,3.03-6.11,6.76s2.74,6.76,6.11,6.76,6.11-3.03,6.11-6.76-2.74-6.76-6.11-6.76Z"/>
          <g>
            <g>
              <g>
                <path class="cls-11" d="M158.61,120.75c.13,0,.23.11.23.25s-.1.25-.23.25-.23-.11-.23-.25.1-.25.23-.25Z"/>
                <g>
                  <path class="cls-11" d="M153.73,126.66c0,.14-.1.25-.23.25s-.23-.11-.23-.25.1-.25.23-.25.23.11.23.25Z"/>
                  <path class="cls-11" d="M163.95,126.66c0,.14-.1.25-.23.25s-.23-.11-.23-.25.1-.25.23-.25.23.11.23.25Z"/>
                </g>
              </g>
              <g>
                <path class="cls-11" d="M157.23,120.95c.12-.04.25.04.28.18.03.13-.04.27-.16.31-.12.04-.25-.04-.28-.18-.03-.14.04-.27.16-.31Z"/>
                <g>
                  <path class="cls-11" d="M153.89,128.06c.03.13-.04.27-.16.31-.12.04-.25-.04-.28-.18-.03-.13.04-.27.16-.31.12-.04.25.04.28.18Z"/>
                  <path class="cls-11" d="M163.77,125.13c.03.13-.04.27-.16.31-.12.04-.25-.04-.28-.18-.03-.13.04-.27.16-.31.12-.04.25.04.28.18Z"/>
                </g>
              </g>
              <g>
                <path class="cls-11" d="M155.94,121.54c.11-.07.25-.03.31.09.06.12.03.28-.08.35-.11.07-.25.03-.31-.09-.06-.12-.03-.28.08-.35Z"/>
                <g>
                  <path class="cls-11" d="M154.38,129.36c.06.12.03.28-.08.35-.11.07-.25.03-.31-.09-.06-.12-.03-.28.08-.35.11-.07.25-.03.31.09Z"/>
                  <path class="cls-11" d="M163.24,123.7c.06.12.03.28-.08.35-.11.07-.25.03-.31-.09-.06-.12-.03-.28.08-.35.11-.07.25-.03.31.09Z"/>
                </g>
              </g>
              <g>
                <g>
                  <path class="cls-11" d="M162.06,130.48c.09-.1.23-.1.32,0,.09.1.09.26,0,.36-.09.1-.23.1-.32,0-.09-.1-.09-.26,0-.36Z"/>
                  <path class="cls-11" d="M154.84,122.48c.09-.1.23-.1.32,0,.09.1.09.26,0,.36-.09.1-.23.1-.32,0-.09-.1-.09-.26,0-.36Z"/>
                </g>
                <g>
                  <path class="cls-11" d="M155.16,130.48c.09.1.09.26,0,.36-.09.1-.23.1-.32,0-.09-.1-.09-.26,0-.36.09-.1.23-.1.32,0Z"/>
                  <path class="cls-11" d="M162.39,122.48c.09.1.09.26,0,.36-.09.1-.23.1-.32,0-.09-.1-.09-.26,0-.36.09-.1.23-.1.32,0Z"/>
                </g>
              </g>
              <g>
                <g>
                  <path class="cls-11" d="M162.84,129.36c.06-.12.2-.16.31-.09.11.07.15.22.08.35-.06.12-.2.16-.31.09-.11-.07-.15-.22-.08-.35Z"/>
                  <path class="cls-11" d="M153.99,123.7c.06-.12.2-.16.31-.09.11.07.15.22.08.35-.06.12-.2.16-.31.09-.11-.07-.15-.22-.08-.35Z"/>
                </g>
                <path class="cls-11" d="M161.28,121.54c.11.07.15.22.08.35-.06.12-.2.16-.31.09-.11-.07-.15-.22-.08-.35.06-.12.2-.16.31-.09Z"/>
              </g>
              <g>
                <g>
                  <path class="cls-11" d="M163.33,128.06c.03-.13.16-.22.28-.18.12.04.19.17.16.31-.03.13-.16.21-.28.18-.12-.04-.19-.17-.16-.31Z"/>
                  <path class="cls-11" d="M153.45,125.13c.03-.13.16-.21.28-.18.12.04.19.17.16.31-.03.13-.16.22-.28.18-.12-.04-.19-.17-.16-.31Z"/>
                </g>
                <path class="cls-11" d="M159.99,120.95c.12.04.19.17.16.31-.03.13-.16.21-.28.18-.12-.04-.19-.17-.16-.31.03-.13.16-.21.28-.18Z"/>
              </g>
            </g>
            <path class="cls-12" d="M158.61,133.11c-3.22,0-5.85-2.9-5.85-6.47s2.62-6.47,5.85-6.47,5.85,2.9,5.85,6.47-2.62,6.47-5.85,6.47ZM158.61,120.33c-3.14,0-5.7,2.83-5.7,6.31s2.56,6.31,5.7,6.31,5.7-2.83,5.7-6.31-2.56-6.31-5.7-6.31Z"/>
            <path class="cls-11" d="M158.11,117.78h1c.05,0,.09.03.12.07.03.05.03.1,0,.15l-.5,1.11c-.02.05-.07.09-.13.09s-.1-.03-.13-.09l-.5-1.11s-.02-.1,0-.15c.03-.05.07-.07.12-.07Z"/>
          </g>
        </g>
        <g>
          <path class="cls-12" d="M149.07,112.58c-3.51,0-6.37-3.16-6.37-7.05s2.86-7.05,6.37-7.05,6.37,3.16,6.37,7.05-2.86,7.05-6.37,7.05ZM149.07,98.77c-3.37,0-6.11,3.03-6.11,6.76s2.74,6.76,6.11,6.76,6.11-3.03,6.11-6.76-2.74-6.76-6.11-6.76Z"/>
          <g>
            <g>
              <g>
                <path class="cls-11" d="M149.07,99.64c.13,0,.23.11.23.25s-.1.25-.23.25-.23-.11-.23-.25.1-.25.23-.25Z"/>
                <g>
                  <path class="cls-11" d="M144.19,105.55c0,.14-.1.25-.23.25s-.23-.11-.23-.25.1-.25.23-.25.23.11.23.25Z"/>
                  <path class="cls-11" d="M154.41,105.55c0,.14-.1.25-.23.25s-.23-.11-.23-.25.1-.25.23-.25.23.11.23.25Z"/>
                </g>
              </g>
              <g>
                <path class="cls-11" d="M147.69,99.84c.12-.04.25.04.28.18.03.13-.04.27-.16.31-.12.04-.25-.04-.28-.18-.03-.14.04-.27.16-.31Z"/>
                <g>
                  <path class="cls-11" d="M144.35,106.94c.03.13-.04.27-.16.31-.12.04-.25-.04-.28-.18-.03-.13.04-.27.16-.31.12-.04.25.04.28.18Z"/>
                  <path class="cls-11" d="M154.23,104.02c.03.13-.04.27-.16.31-.12.04-.25-.04-.28-.18-.03-.13.04-.27.16-.31.12-.04.25.04.28.18Z"/>
                </g>
              </g>
              <g>
                <path class="cls-11" d="M146.4,100.43c.11-.07.25-.03.31.09.06.12.03.28-.08.35-.11.07-.25.03-.31-.09-.06-.12-.03-.28.08-.35Z"/>
                <g>
                  <path class="cls-11" d="M144.84,108.25c.06.12.03.28-.08.35-.11.07-.25.03-.31-.09-.06-.12-.03-.28.08-.35.11-.07.25-.03.31.09Z"/>
                  <path class="cls-11" d="M153.7,102.59c.06.12.03.28-.08.35-.11.07-.25.03-.31-.09-.06-.12-.03-.28.08-.35.11-.07.25-.03.31.09Z"/>
                </g>
              </g>
              <g>
                <g>
                  <path class="cls-11" d="M152.52,109.37c.09-.1.23-.1.32,0,.09.1.09.26,0,.36-.09.1-.23.1-.32,0-.09-.1-.09-.26,0-.36Z"/>
                  <path class="cls-11" d="M145.29,101.37c.09-.1.23-.1.32,0,.09.1.09.26,0,.36-.09.1-.23.1-.32,0-.09-.1-.09-.26,0-.36Z"/>
                </g>
                <g>
                  <path class="cls-11" d="M145.62,109.37c.09.1.09.26,0,.36-.09.1-.23.1-.32,0-.09-.1-.09-.26,0-.36.09-.1.23-.1.32,0Z"/>
                  <path class="cls-11" d="M152.85,101.37c.09.1.09.26,0,.36-.09.1-.23.1-.32,0-.09-.1-.09-.26,0-.36.09-.1.23-.1.32,0Z"/>
                </g>
              </g>
              <g>
                <g>
                  <path class="cls-11" d="M153.3,108.25c.06-.12.2-.16.31-.09.11.07.15.22.08.35-.06.12-.2.16-.31.09-.11-.07-.15-.22-.08-.35Z"/>
                  <path class="cls-11" d="M144.45,102.59c.06-.12.2-.16.31-.09.11.07.15.22.08.35-.06.12-.2.16-.31.09-.11-.07-.15-.22-.08-.35Z"/>
                </g>
                <path class="cls-11" d="M151.74,100.43c.11.07.15.22.08.35-.06.12-.2.16-.31.09-.11-.07-.15-.22-.08-.35.06-.12.2-.16.31-.09Z"/>
              </g>
              <g>
                <g>
                  <path class="cls-11" d="M153.79,106.94c.03-.13.16-.22.28-.18.12.04.19.17.16.31-.03.13-.16.21-.28.18-.12-.04-.19-.17-.16-.31Z"/>
                  <path class="cls-11" d="M143.91,104.02c.03-.13.16-.21.28-.18.12.04.19.17.16.31-.03.13-.16.22-.28.18-.12-.04-.19-.17-.16-.31Z"/>
                </g>
                <path class="cls-11" d="M150.45,99.84c.12.04.19.17.16.31-.03.13-.16.21-.28.18-.12-.04-.19-.17-.16-.31.03-.13.16-.21.28-.18Z"/>
              </g>
            </g>
            <path class="cls-12" d="M149.07,112c-3.22,0-5.85-2.9-5.85-6.47s2.62-6.47,5.85-6.47,5.85,2.9,5.85,6.47-2.62,6.47-5.85,6.47ZM149.07,99.22c-3.14,0-5.7,2.83-5.7,6.31s2.56,6.31,5.7,6.31,5.7-2.83,5.7-6.31-2.56-6.31-5.7-6.31Z"/>
            <path class="cls-11" d="M148.57,96.67h1c.05,0,.09.03.12.07.03.05.03.1,0,.15l-.5,1.11c-.02.05-.07.09-.13.09s-.1-.03-.13-.09l-.5-1.11s-.02-.1,0-.15c.03-.05.07-.07.12-.07Z"/>
          </g>
        </g>
        <g>
          <path class="cls-12" d="M129.99,112.58c-3.51,0-6.37-3.16-6.37-7.05s2.86-7.05,6.37-7.05,6.37,3.16,6.37,7.05-2.86,7.05-6.37,7.05ZM129.99,98.77c-3.37,0-6.11,3.03-6.11,6.76s2.74,6.76,6.11,6.76,6.11-3.03,6.11-6.76-2.74-6.76-6.11-6.76Z"/>
          <g>
            <g>
              <g>
                <path class="cls-11" d="M129.99,99.64c.13,0,.23.11.23.25s-.1.25-.23.25-.23-.11-.23-.25.1-.25.23-.25Z"/>
                <g>
                  <path class="cls-11" d="M125.11,105.55c0,.14-.1.25-.23.25s-.23-.11-.23-.25.1-.25.23-.25.23.11.23.25Z"/>
                  <path class="cls-11" d="M135.33,105.55c0,.14-.1.25-.23.25s-.23-.11-.23-.25.1-.25.23-.25.23.11.23.25Z"/>
                </g>
              </g>
              <g>
                <path class="cls-11" d="M128.61,99.84c.12-.04.25.04.28.18.03.13-.04.27-.16.31-.12.04-.25-.04-.28-.18-.03-.14.04-.27.16-.31Z"/>
                <g>
                  <path class="cls-11" d="M125.27,106.94c.03.13-.04.27-.16.31-.12.04-.25-.04-.28-.18-.03-.13.04-.27.16-.31.12-.04.25.04.28.18Z"/>
                  <path class="cls-11" d="M135.15,104.02c.03.13-.04.27-.16.31-.12.04-.25-.04-.28-.18-.03-.13.04-.27.16-.31.12-.04.25.04.28.18Z"/>
                </g>
              </g>
              <g>
                <path class="cls-11" d="M127.32,100.43c.11-.07.25-.03.31.09.06.12.03.28-.08.35-.11.07-.25.03-.31-.09-.06-.12-.03-.28.08-.35Z"/>
                <g>
                  <path class="cls-11" d="M125.76,108.25c.06.12.03.28-.08.35-.11.07-.25.03-.31-.09-.06-.12-.03-.28.08-.35.11-.07.25-.03.31.09Z"/>
                  <path class="cls-11" d="M134.61,102.59c.06.12.03.28-.08.35-.11.07-.25.03-.31-.09-.06-.12-.03-.28.08-.35.11-.07.25-.03.31.09Z"/>
                </g>
              </g>
              <g>
                <g>
                  <path class="cls-11" d="M133.44,109.37c.09-.1.23-.1.32,0,.09.1.09.26,0,.36-.09.1-.23.1-.32,0-.09-.1-.09-.26,0-.36Z"/>
                  <path class="cls-11" d="M126.21,101.37c.09-.1.23-.1.32,0,.09.1.09.26,0,.36-.09.1-.23.1-.32,0-.09-.1-.09-.26,0-.36Z"/>
                </g>
                <g>
                  <path class="cls-11" d="M126.54,109.37c.09.1.09.26,0,.36-.09.1-.23.1-.32,0-.09-.1-.09-.26,0-.36.09-.1.23-.1.32,0Z"/>
                  <path class="cls-11" d="M133.77,101.37c.09.1.09.26,0,.36-.09.1-.23.1-.32,0-.09-.1-.09-.26,0-.36.09-.1.23-.1.32,0Z"/>
                </g>
              </g>
              <g>
                <g>
                  <path class="cls-11" d="M134.22,108.25c.06-.12.2-.16.31-.09.11.07.15.22.08.35-.06.12-.2.16-.31.09-.11-.07-.15-.22-.08-.35Z"/>
                  <path class="cls-11" d="M125.36,102.59c.06-.12.2-.16.31-.09.11.07.15.22.08.35-.06.12-.2.16-.31.09-.11-.07-.15-.22-.08-.35Z"/>
                </g>
                <path class="cls-11" d="M132.66,100.43c.11.07.15.22.08.35-.06.12-.2.16-.31.09-.11-.07-.15-.22-.08-.35.06-.12.2-.16.31-.09Z"/>
              </g>
              <g>
                <g>
                  <path class="cls-11" d="M134.71,106.94c.03-.13.16-.22.28-.18.12.04.19.17.16.31-.03.13-.16.21-.28.18-.12-.04-.19-.17-.16-.31Z"/>
                  <path class="cls-11" d="M124.83,104.02c.03-.13.16-.21.28-.18.12.04.19.17.16.31-.03.13-.16.22-.28.18-.12-.04-.19-.17-.16-.31Z"/>
                </g>
                <path class="cls-11" d="M131.37,99.84c.12.04.19.17.16.31-.03.13-.16.21-.28.18-.12-.04-.19-.17-.16-.31.03-.13.16-.21.28-.18Z"/>
              </g>
            </g>
            <path class="cls-12" d="M129.99,112c-3.22,0-5.85-2.9-5.85-6.47s2.62-6.47,5.85-6.47,5.85,2.9,5.85,6.47-2.62,6.47-5.85,6.47ZM129.99,99.22c-3.14,0-5.7,2.83-5.7,6.31s2.56,6.31,5.7,6.31,5.7-2.83,5.7-6.31-2.56-6.31-5.7-6.31Z"/>
            <path class="cls-11" d="M129.49,96.67h1c.05,0,.09.03.12.07.03.05.03.1,0,.15l-.5,1.11c-.02.05-.07.09-.13.09s-.1-.03-.13-.09l-.5-1.11s-.02-.1,0-.15c.03-.05.07-.07.12-.07Z"/>
          </g>
        </g>
        <g>
          <path class="cls-12" d="M110.91,112.58c-3.51,0-6.37-3.16-6.37-7.05s2.86-7.05,6.37-7.05,6.37,3.16,6.37,7.05-2.86,7.05-6.37,7.05ZM110.91,98.77c-3.37,0-6.11,3.03-6.11,6.76s2.74,6.76,6.11,6.76,6.11-3.03,6.11-6.76-2.74-6.76-6.11-6.76Z"/>
          <g>
            <g>
              <g>
                <path class="cls-11" d="M110.91,99.64c.13,0,.23.11.23.25s-.1.25-.23.25-.23-.11-.23-.25.1-.25.23-.25Z"/>
                <g>
                  <path class="cls-11" d="M106.02,105.55c0,.14-.1.25-.23.25s-.23-.11-.23-.25.1-.25.23-.25.23.11.23.25Z"/>
                  <path class="cls-11" d="M116.25,105.55c0,.14-.1.25-.23.25s-.23-.11-.23-.25.1-.25.23-.25.23.11.23.25Z"/>
                </g>
              </g>
              <g>
                <path class="cls-11" d="M109.52,99.84c.12-.04.25.04.28.18.03.13-.04.27-.16.31-.12.04-.25-.04-.28-.18-.03-.14.04-.27.16-.31Z"/>
                <g>
                  <path class="cls-11" d="M106.19,106.94c.03.13-.04.27-.16.31-.12.04-.25-.04-.28-.18-.03-.13.04-.27.16-.31.12-.04.25.04.28.18Z"/>
                  <path class="cls-11" d="M116.07,104.02c.03.13-.04.27-.16.31-.12.04-.25-.04-.28-.18-.03-.13.04-.27.16-.31.12-.04.25.04.28.18Z"/>
                </g>
              </g>
              <g>
                <path class="cls-11" d="M108.24,100.43c.11-.07.25-.03.31.09.06.12.03.28-.08.35-.11.07-.25.03-.31-.09-.06-.12-.03-.28.08-.35Z"/>
                <g>
                  <path class="cls-11" d="M106.68,108.25c.06.12.03.28-.08.35-.11.07-.25.03-.31-.09-.06-.12-.03-.28.08-.35.11-.07.25-.03.31.09Z"/>
                  <path class="cls-11" d="M115.53,102.59c.06.12.03.28-.08.35-.11.07-.25.03-.31-.09-.06-.12-.03-.28.08-.35.11-.07.25-.03.31.09Z"/>
                </g>
              </g>
              <g>
                <g>
                  <path class="cls-11" d="M114.36,109.37c.09-.1.23-.1.32,0,.09.1.09.26,0,.36-.09.1-.23.1-.32,0-.09-.1-.09-.26,0-.36Z"/>
                  <path class="cls-11" d="M107.13,101.37c.09-.1.23-.1.32,0,.09.1.09.26,0,.36-.09.1-.23.1-.32,0-.09-.1-.09-.26,0-.36Z"/>
                </g>
                <g>
                  <path class="cls-11" d="M107.45,109.37c.09.1.09.26,0,.36-.09.1-.23.1-.32,0-.09-.1-.09-.26,0-.36.09-.1.23-.1.32,0Z"/>
                  <path class="cls-11" d="M114.68,101.37c.09.1.09.26,0,.36-.09.1-.23.1-.32,0-.09-.1-.09-.26,0-.36.09-.1.23-.1.32,0Z"/>
                </g>
              </g>
              <g>
                <g>
                  <path class="cls-11" d="M115.14,108.25c.06-.12.2-.16.31-.09.11.07.15.22.08.35-.06.12-.2.16-.31.09-.11-.07-.15-.22-.08-.35Z"/>
                  <path class="cls-11" d="M106.28,102.59c.06-.12.2-.16.31-.09.11.07.15.22.08.35-.06.12-.2.16-.31.09-.11-.07-.15-.22-.08-.35Z"/>
                </g>
                <path class="cls-11" d="M113.58,100.43c.11.07.15.22.08.35-.06.12-.2.16-.31.09-.11-.07-.15-.22-.08-.35.06-.12.2-.16.31-.09Z"/>
              </g>
              <g>
                <g>
                  <path class="cls-11" d="M115.62,106.94c.03-.13.16-.22.28-.18.12.04.19.17.16.31-.03.13-.16.21-.28.18-.12-.04-.19-.17-.16-.31Z"/>
                  <path class="cls-11" d="M105.75,104.02c.03-.13.16-.21.28-.18.12.04.19.17.16.31-.03.13-.16.22-.28.18-.12-.04-.19-.17-.16-.31Z"/>
                </g>
                <path class="cls-11" d="M112.29,99.84c.12.04.19.17.16.31-.03.13-.16.21-.28.18-.12-.04-.19-.17-.16-.31.03-.13.16-.21.28-.18Z"/>
              </g>
            </g>
            <path class="cls-12" d="M110.91,112c-3.22,0-5.85-2.9-5.85-6.47s2.62-6.47,5.85-6.47,5.85,2.9,5.85,6.47-2.62,6.47-5.85,6.47ZM110.91,99.22c-3.14,0-5.7,2.83-5.7,6.31s2.56,6.31,5.7,6.31,5.7-2.83,5.7-6.31-2.56-6.31-5.7-6.31Z"/>
            <path class="cls-11" d="M110.41,96.67h1c.05,0,.09.03.12.07.03.05.03.1,0,.15l-.5,1.11c-.02.05-.07.09-.13.09s-.1-.03-.13-.09l-.5-1.11s-.02-.1,0-.15c.03-.05.07-.07.12-.07Z"/>
          </g>
        </g>
        <rect class="cls-4" x="207.73" y="110.5" width="73.34" height="121.64" rx="1.71" ry="1.71"/>
        <g>
          <line class="cls-2" x1="159.05" y1="252.6" x2="159.05" y2="145.61"/>
          <line class="cls-2" x1="147.07" y1="252.6" x2="147.07" y2="145.61"/>
          <line class="cls-2" x1="135.3" y1="252.6" x2="135.3" y2="141.82"/>
          <line class="cls-2" x1="122.9" y1="252.6" x2="122.9" y2="141.82"/>
          <line class="cls-2" x1="111.13" y1="252.6" x2="111.13" y2="145.61"/>
          <line class="cls-2" x1="99.15" y1="252.6" x2="99.15" y2="145.61"/>
        </g>
        <rect class="cls-4" x="216.72" y="123.75" width="55.35" height="84.4" rx="7.39" ry="7.39"/>
        <ellipse class="cls-9" cx="244.39" cy="220.77" rx="6.17" ry="6.82"/>
        <g>
          <path class="cls-12" d="M244.39,227.77c-3.51,0-6.37-3.16-6.37-7.05s2.86-7.05,6.37-7.05,6.37,3.16,6.37,7.05-2.86,7.05-6.37,7.05ZM244.39,213.96c-3.37,0-6.11,3.03-6.11,6.76s2.74,6.76,6.11,6.76,6.11-3.03,6.11-6.76-2.74-6.76-6.11-6.76Z"/>
          <g>
            <g>
              <g>
                <path class="cls-11" d="M244.39,226.61c-.13,0-.23-.11-.23-.25s.1-.25.23-.25.23.11.23.25-.1.25-.23.25Z"/>
                <g>
                  <path class="cls-11" d="M249.28,220.7c0-.14.1-.25.23-.25s.23.11.23.25-.1.25-.23.25-.23-.11-.23-.25Z"/>
                  <path class="cls-11" d="M239.05,220.7c0-.14.1-.25.23-.25s.23.11.23.25-.1.25-.23.25-.23-.11-.23-.25Z"/>
                </g>
              </g>
              <g>
                <path class="cls-11" d="M245.78,226.41c-.12.04-.25-.04-.28-.18-.03-.13.04-.27.16-.31.12-.04.25.04.28.18.03.14-.04.27-.16.31Z"/>
                <g>
                  <path class="cls-11" d="M249.11,219.3c-.03-.13.04-.27.16-.31.12-.04.25.04.28.18.03.13-.04.27-.16.31-.12.04-.25-.04-.28-.18Z"/>
                  <path class="cls-11" d="M239.24,222.23c-.03-.13.04-.27.16-.31.12-.04.25.04.28.18.03.13-.04.27-.16.31-.12.04-.25-.04-.28-.18Z"/>
                </g>
              </g>
              <g>
                <path class="cls-11" d="M247.06,225.82c-.11.07-.25.03-.31-.09-.06-.12-.03-.28.08-.35.11-.07.25-.03.31.09.06.12.03.28-.08.35Z"/>
                <g>
                  <path class="cls-11" d="M248.62,218c-.06-.12-.03-.28.08-.35.11-.07.25-.03.31.09.06.12.03.28-.08.35-.11.07-.25.03-.31-.09Z"/>
                  <path class="cls-11" d="M239.77,223.65c-.06-.12-.03-.28.08-.35.11-.07.25-.03.31.09.06.12.03.28-.08.35-.11.07-.25.03-.31-.09Z"/>
                </g>
              </g>
              <g>
                <g>
                  <path class="cls-11" d="M240.94,216.88c-.09.1-.23.1-.32,0-.09-.1-.09-.26,0-.36.09-.1.23-.1.32,0,.09.1.09.26,0,.36Z"/>
                  <path class="cls-11" d="M248.17,224.88c-.09.1-.23.1-.32,0-.09-.1-.09-.26,0-.36.09-.1.23-.1.32,0,.09.1.09.26,0,.36Z"/>
                </g>
                <g>
                  <path class="cls-11" d="M247.85,216.88c-.09-.1-.09-.26,0-.36.09-.1.23-.1.32,0,.09.1.09.26,0,.36-.09.1-.23.1-.32,0Z"/>
                  <path class="cls-11" d="M240.62,224.88c-.09-.1-.09-.26,0-.36.09-.1.23-.1.32,0,.09.1.09.26,0,.36-.09.1-.23.1-.32,0Z"/>
                </g>
              </g>
              <g>
                <g>
                  <path class="cls-11" d="M240.16,218c-.06.12-.2.16-.31.09-.11-.07-.15-.22-.08-.35.06-.12.2-.16.31-.09.11.07.15.22.08.35Z"/>
                  <path class="cls-11" d="M249.02,223.65c-.06.12-.2.16-.31.09-.11-.07-.15-.22-.08-.35.06-.12.2-.16.31-.09.11.07.15.22.08.35Z"/>
                </g>
                <path class="cls-11" d="M241.72,225.82c-.11-.07-.15-.22-.08-.35.06-.12.2-.16.31-.09.11.07.15.22.08.35-.06.12-.2.16-.31.09Z"/>
              </g>
              <g>
                <g>
                  <path class="cls-11" d="M239.68,219.3c-.03.13-.16.22-.28.18-.12-.04-.19-.17-.16-.31.03-.13.16-.21.28-.18.12.04.19.17.16.31Z"/>
                  <path class="cls-11" d="M249.55,222.23c-.03.13-.16.21-.28.18-.12-.04-.19-.17-.16-.31.03-.13.16-.22.28-.18.12.04.19.17.16.31Z"/>
                </g>
                <path class="cls-11" d="M243.01,226.41c-.12-.04-.19-.17-.16-.31.03-.13.16-.21.28-.18.12.04.19.17.16.31-.03.13-.16.21-.28.18Z"/>
              </g>
            </g>
            <path class="cls-12" d="M244.39,214.25c3.22,0,5.85,2.9,5.85,6.47s-2.62,6.47-5.85,6.47-5.85-2.9-5.85-6.47,2.62-6.47,5.85-6.47ZM244.39,227.03c3.14,0,5.7-2.83,5.7-6.31s-2.56-6.31-5.7-6.31-5.7,2.83-5.7,6.31,2.56,6.31,5.7,6.31Z"/>
          </g>
        </g>
        <g>
          <g>
            <path class="cls-18" d="M233.93,172.98c-.24-.37-.36-.86-.36-1.46,0-.66.12-1.28.36-1.87.24-.59.55-1.06.95-1.42.39-.36.81-.54,1.25-.54.14,0,.24.04.28.11.05.07.09.2.12.38.13-.03.28-.05.42-.05.31,0,.47.14.47.43,0,.17-.05.59-.14,1.24-.15.95-.22,1.61-.22,1.98,0,.12.02.22.07.3.05.07.11.11.19.11.12,0,.27-.1.44-.3.17-.2.41-.53.7-.98.08-.12.16-.17.26-.17.08,0,.15.05.2.15.05.1.07.23.07.41,0,.33-.06.59-.18.77-.26.42-.54.77-.84,1.06-.29.29-.58.43-.86.43-.21,0-.41-.09-.58-.28-.18-.19-.31-.44-.4-.76-.33.69-.75,1.04-1.26,1.04-.4,0-.71-.19-.95-.56ZM235.63,171.97c.13-.21.22-.5.28-.85l.36-2.27c-.27,0-.52.14-.75.39-.23.25-.41.58-.54,1-.13.41-.2.85-.2,1.31,0,.26.04.44.12.57.08.12.19.19.33.19s.28-.11.4-.32Z"/>
            <path class="cls-18" d="M242.46,169.6c.1.13.15.29.15.48,0,.11-.02.22-.06.35-.1.3-.25.56-.43.77-.19.21-.39.31-.62.31-.18,0-.33-.08-.46-.25-.12-.16-.19-.39-.19-.67,0-.16,0-.33.02-.51.01-.13.02-.22.02-.27,0-.07-.01-.12-.03-.15-.02-.03-.05-.05-.08-.05-.09,0-.21.14-.37.41-.15.28-.31.64-.46,1.09-.15.45-.28.93-.38,1.43-.07.4-.15.66-.24.79-.09.13-.24.2-.44.2-.24,0-.42-.16-.51-.49-.1-.33-.15-.86-.15-1.58,0-1.07.12-2.09.36-3.05.06-.24.15-.41.28-.53.13-.11.32-.17.55-.17.13,0,.22.02.27.06.05.04.08.12.08.23,0,.13-.05.43-.14.89-.06.33-.12.62-.15.87s-.07.55-.1.91c.21-.71.45-1.29.71-1.73.26-.44.52-.76.77-.95.25-.19.48-.28.68-.28.19,0,.33.07.43.2.1.14.15.34.15.6,0,.16-.04.45-.11.89h.09c.14,0,.26.06.36.19Z"/>
          </g>
          <path class="cls-18" d="M233.56,172.48c.07.08.11.17.11.29,0,.2-.05.37-.16.52-.11.15-.27.23-.5.24-.54,0-1.03-.04-1.46-.14-.48,1.13-1.05,2.06-1.73,2.81-.67.74-1.34,1.12-1.99,1.12-.6,0-1.05-.35-1.35-1.06-.3-.71-.47-1.65-.51-2.84-.41,1.32-.87,2.3-1.39,2.94-.52.64-1.06.96-1.65.96-.66,0-1.15-.45-1.49-1.36-.33-.9-.5-2.12-.5-3.65,0-1.11.09-2.33.27-3.66.05-.38.13-.64.26-.79.13-.15.33-.22.6-.22.21,0,.36.05.48.15.11.1.17.28.17.54,0,.05,0,.15-.02.31-.21,1.55-.31,2.87-.31,3.96,0,1.01.08,1.8.24,2.35.16.55.37.83.64.83.24,0,.53-.28.87-.83.34-.56.67-1.38,1.01-2.47.33-1.09.62-2.4.85-3.91.05-.35.16-.59.3-.72.15-.13.35-.2.6-.2.21,0,.37.05.47.15.1.1.15.26.15.46,0,.12,0,.22-.02.28-.19,1.23-.29,2.47-.29,3.7,0,.84.03,1.51.08,2.01.05.5.15.88.3,1.14.15.26.36.39.64.39.33,0,.69-.27,1.1-.82.4-.55.77-1.23,1.11-2.05-.42-.29-.73-.66-.94-1.12-.21-.46-.32-.98-.32-1.58s.08-1.1.25-1.51c.17-.41.4-.72.69-.92.29-.2.61-.31.97-.31.44,0,.78.17,1.04.52.26.35.38.82.38,1.43,0,.85-.17,1.8-.5,2.85.35.07.76.1,1.23.1.16,0,.27.04.34.11ZM230.84,171.78c.27-.85.4-1.55.4-2.1,0-.32-.04-.55-.11-.7-.08-.15-.18-.22-.31-.22-.18,0-.33.12-.45.36-.12.24-.17.58-.17,1.02,0,.74.22,1.29.65,1.64Z"/>
          <path class="cls-18" d="M238.03,161.42c.07.08.11.17.11.29,0,.2-.05.37-.16.52-.11.15-.27.23-.5.24-.54,0-1.03-.04-1.46-.14-.48,1.13-1.05,2.06-1.73,2.81s-1.34,1.12-1.99,1.12c-.6,0-1.05-.35-1.35-1.06-.3-.71-.47-1.65-.51-2.84-.41,1.32-.87,2.3-1.39,2.94-.52.64-1.06.96-1.65.96-.66,0-1.15-.45-1.49-1.36-.33-.9-.5-2.12-.5-3.65,0-1.11.09-2.33.27-3.66.05-.38.13-.64.26-.79.13-.15.33-.22.6-.22.21,0,.36.05.48.15.11.1.17.28.17.54,0,.05,0,.15-.02.31-.21,1.55-.31,2.87-.31,3.96,0,1.01.08,1.8.24,2.35.16.55.37.83.64.83.24,0,.53-.28.87-.83.34-.56.67-1.38,1.01-2.47.33-1.09.62-2.4.85-3.91.05-.35.16-.59.3-.72.15-.13.35-.2.6-.2.21,0,.37.05.47.15.1.1.15.26.15.46,0,.12,0,.22-.02.28-.19,1.23-.29,2.47-.29,3.7,0,.84.03,1.51.08,2.01.05.5.15.88.3,1.14.15.26.36.39.64.39.33,0,.69-.27,1.1-.82.4-.55.77-1.23,1.11-2.05-.42-.29-.73-.66-.94-1.12-.21-.46-.32-.98-.32-1.58s.08-1.1.25-1.51c.17-.41.4-.72.69-.92.29-.2.61-.31.97-.31.44,0,.78.17,1.04.52.26.35.38.82.38,1.43,0,.85-.17,1.8-.5,2.85.35.07.76.1,1.23.1.16,0,.27.04.34.11ZM235.31,160.72c.27-.85.4-1.55.4-2.1,0-.32-.04-.55-.11-.7-.08-.15-.18-.22-.31-.22-.18,0-.33.12-.45.36-.12.24-.17.58-.17,1.02,0,.74.22,1.29.65,1.64Z"/>
          <g>
            <path class="cls-18" d="M263.06,169.18c-.37-.36-.56-.77-.56-1.22,0-.39.13-.73.39-1.02.26-.29.64-.43,1.14-.43.18,0,.38.02.62.06.24.04.42.06.54.08-.01-.39-.09-.76-.23-1.11-.14-.35-.32-.68-.54-1-.22-.32-.42-.61-.61-.85-.42.89-.84,1.62-1.25,2.21-.41.59-.87,1.14-1.36,1.67-.24.27-.5.41-.77.41-.22,0-.39-.09-.53-.26-.14-.17-.2-.39-.2-.64,0-.3.1-.58.29-.83l.27-.36c.75-1.02,1.31-1.87,1.69-2.53.24-.44.49-.96.74-1.56.25-.6.58-1.42.99-2.46.26-.66.8-.99,1.61-.99.38,0,.65.04.8.11.15.08.22.2.22.36,0,.09-.03.23-.08.43-.05.2-.13.39-.22.59-.24.54-.37,1-.37,1.38,0,.23.07.47.21.74.14.27.36.61.66,1.02.43.63.76,1.17.99,1.61.22.44.34.93.34,1.46,0,.63-.13,1.23-.4,1.79-.27.56-.64,1.02-1.11,1.37-.48.35-1.02.52-1.63.52-.71,0-1.25-.18-1.62-.54Z"/>
            <path class="cls-18" d="M246.17,176.18c-.64-.76-.95-1.78-.95-3.05,0-.72.1-1.59.29-2.62l1.37-7.01c.03-.13.1-.49.21-1.08s.17-1.23.17-1.91c0-.39-.07-.69-.21-.88-.14-.2-.33-.29-.57-.29-.44,0-.96.23-1.55.7-.59.47-1.21,1.18-1.86,2.15-.21.31-.44.47-.69.47-.21,0-.39-.11-.54-.33-.16-.22-.23-.47-.23-.75,0-.51.21-1.08.62-1.72,1.51-2.29,3.27-3.43,5.3-3.43.9,0,1.61.3,2.12.91.51.6.76,1.5.76,2.67,0,.83-.05,1.6-.15,2.3-.1.7-.28,1.66-.53,2.87l-.91,4.49c-.03.15-.08.41-.16.78s-.13.73-.18,1.07c-.04.34-.07.67-.07.99,0,.52.13.94.4,1.25.27.31.64.47,1.13.47.89,0,1.78-.52,2.69-1.57.91-1.05,1.75-2.73,2.53-5.06.78-2.33,1.38-5.31,1.81-8.94.1-.83.25-1.41.45-1.74.2-.33.59-.49,1.16-.49.52,0,.9.17,1.15.51.25.34.38.9.38,1.67,0,.44-.05,1.02-.14,1.74-.1.72-.24,1.72-.43,3.02-.4,2.5-.72,4.8-.95,6.89-.12.95-.18,1.65-.18,2.11,0,.67.14,1.18.41,1.53.27.35.64.53,1.1.53.49,0,.96-.18,1.43-.54.47-.36,1.02-.96,1.65-1.79.18-.23.38-.34.6-.34.19,0,.34.1.45.29s.17.47.17.81c0,.64-.14,1.14-.42,1.52-.77,1.03-1.53,1.78-2.28,2.26-.75.47-1.54.71-2.37.71-1.23,0-2.16-.35-2.81-1.04-.65-.69-.97-1.6-.97-2.71,0-.62.12-1.83.35-3.63-.74,2.4-1.67,4.23-2.8,5.49-1.13,1.26-2.43,1.89-3.91,1.89-1.24,0-2.18-.38-2.81-1.14Z"/>
          </g>
        </g>
      </g>
    </g>
  </g>
</svg>