<?xml version="1.0" encoding="UTF-8"?>
<svg id="Layer_2" data-name="Layer 2" xmlns="http://www.w3.org/2000/svg" viewBox="0 0 519.33 201.19">
  <defs>
    <style>
      .cls-1 {
        fill: #ebdb67;
      }

      .cls-2 {
        fill: #231f20;
      }
    </style>
  </defs>
  <g id="_1" data-name="1">
    <g id="Layer_5" data-name="Layer 5">
      <g>
        <g>
          <path class="cls-2" d="M139.52,160.76c-2.6-3.48-3.9-8.03-3.9-13.67,0-6.18,1.3-12.03,3.9-17.55,2.6-5.52,6.06-9.96,10.38-13.32,4.32-3.36,8.91-5.04,13.76-5.04,1.54,0,2.58.33,3.11.99.27.34.52.82.75,1.44.42,1.15,1.62,1.86,2.89,1.74.75-.07,1.52-.11,2.31-.11,3.44,0,5.16,1.35,5.16,4.05,0,1.62-.53,5.49-1.58,11.59-1.62,8.88-2.42,15.06-2.42,18.54,0,1.16.26,2.09.79,2.78.53.69,1.21,1.04,2.06,1.04,1.33,0,2.95-.94,4.85-2.84,1.9-1.89,4.46-4.96,7.7-9.21.84-1.08,1.79-1.62,2.85-1.62.91,0,1.63.46,2.16,1.39.53.93.79,2.2.79,3.82,0,3.09-.67,5.48-2,7.18-2.88,3.94-5.94,7.26-9.17,9.96-3.23,2.7-6.36,4.06-9.38,4.06-2.32,0-4.45-.87-6.38-2.61-.92-.83-1.73-1.8-2.44-2.92-1-1.58-3.36-1.79-4.54-.33-3.16,3.9-6.9,5.85-11.2,5.85s-7.84-1.74-10.44-5.21ZM158.18,151.26c1.41-2.01,2.42-4.67,3.06-8l3.17-17.34c.39-2.15-2-3.8-4.03-2.77-1.18.59-2.32,1.41-3.41,2.44-2.5,2.36-4.48,5.47-5.96,9.33-1.48,3.86-2.21,7.96-2.21,12.28,0,2.4.44,4.17,1.32,5.33.88,1.16,2.09,1.74,3.64,1.74s3.02-1,4.43-3.01Z"/>
          <path class="cls-2" d="M233.07,129.08c1.09,1.2,1.63,2.68,1.63,4.46,0,1-.21,2.09-.63,3.24-1.13,2.86-2.71,5.25-4.74,7.18-2.04,1.93-4.29,2.9-6.75,2.9-1.97,0-3.64-.77-5.01-2.32-1.37-1.54-2.05-3.63-2.05-6.26,0-1.47.07-3.05.21-4.75.14-1.23.21-2.09.21-2.55,0-.62-.12-1.08-.37-1.39-.25-.31-.54-.46-.9-.46-.98,0-2.32,1.29-4.01,3.88-1.69,2.59-3.37,6.01-5.06,10.25-1.69,4.25-3.06,8.73-4.11,13.44-.77,3.71-1.65,6.18-2.64,7.42-.98,1.24-2.6,1.85-4.85,1.85-2.67,0-4.55-1.54-5.64-4.63-1.09-3.09-1.63-8.03-1.63-14.83,0-10.04,1.3-19.58,3.9-28.62.63-2.24,1.67-3.88,3.11-4.92,1.44-1.04,3.46-1.56,6.06-1.56,1.41,0,2.39.19,2.95.58.56.39.84,1.12.84,2.2,0,1.24-.53,4.02-1.58,8.34-.7,3.09-1.26,5.79-1.69,8.11-.42,2.32-.77,5.18-1.05,8.57,2.32-6.64,4.92-12.05,7.8-16.22,2.88-4.17,5.69-7.14,8.43-8.92,2.74-1.78,5.23-2.66,7.48-2.66,2.04,0,3.6.64,4.69,1.91,1.09,1.27,1.63,3.15,1.63,5.62,0,1.47-.39,4.25-1.16,8.34h.95c1.55,0,2.86.6,3.95,1.8Z"/>
        </g>
        <path class="cls-2" d="M140.41,155.79c.79.71,1.18,1.63,1.18,2.76,0,1.84-.58,3.47-1.74,4.89-1.16,1.42-2.98,2.16-5.45,2.23-5.14.06-11.42-.25-16.08-.94-1.2-.18-2.37.42-2.9,1.45-5.06,9.77-11.07,17.95-18.03,24.53-7.38,6.98-14.67,10.47-21.86,10.47-6.59,0-11.54-3.31-14.84-9.94-2.13-4.27-3.66-9.48-4.6-15.63-.4-2.59-4.14-3.07-5.26-.68-3.38,7.27-7.04,13.01-10.99,17.21-5.66,6.03-11.67,9.04-18.04,9.04-7.19,0-12.63-4.24-16.3-12.71-3.67-8.47-5.51-19.87-5.51-34.19,0-10.42.97-21.87,2.92-34.35.52-3.54,1.48-6.01,2.87-7.39,1.39-1.38,3.58-2.07,6.58-2.07,2.25,0,3.99.46,5.23,1.38,1.24.92,1.85,2.62,1.85,5.1,0,.5-.07,1.45-.22,2.87-2.25,14.53-3.37,26.9-3.37,37.11,0,9.5.86,16.84,2.58,22.01,1.72,5.18,4.05,7.76,6.97,7.76,2.62,0,5.79-2.61,9.5-7.82,3.71-5.21,7.4-12.94,11.07-23.18,3.67-10.24,6.78-22.45,9.33-36.63.6-3.26,1.7-5.51,3.31-6.75,1.61-1.24,3.8-1.86,6.58-1.86,2.32,0,4.03.48,5.11,1.44,1.08.96,1.63,2.39,1.63,4.31,0,1.14-.08,2.02-.23,2.66-2.1,11.55-3.15,23.11-3.15,34.66,0,7.87.28,14.14.84,18.82.56,4.68,1.65,8.24,3.26,10.69,1.61,2.45,3.95,3.67,7.02,3.67,3.6,0,7.6-2.57,12.03-7.71,4.02-4.68,7.73-10.4,11.14-17.16.56-1.11.22-2.48-.84-3.2-3.67-2.51-6.5-5.61-8.5-9.31-2.32-4.29-3.48-9.23-3.48-14.83s.92-10.33,2.75-14.19c1.83-3.86,4.34-6.75,7.53-8.67,3.18-1.91,6.72-2.87,10.62-2.87,4.79,0,8.6,1.63,11.41,4.89,2.81,3.26,4.21,7.73,4.21,13.4,0,7.2-1.48,15.11-4.45,23.74-.54,1.58.63,3.22,2.38,3.38,3.69.35,8.32.53,12.16.53,1.72,0,2.98.36,3.77,1.06ZM104.96,145.87c1.34,1.75,4.24,1.3,4.91-.77,1.98-6.13,2.97-11.32,2.97-15.58,0-2.98-.41-5.16-1.24-6.54-.83-1.38-1.95-2.07-3.37-2.07-2.02,0-3.67,1.12-4.94,3.35-1.28,2.23-1.91,5.41-1.91,9.52,0,4.95,1.2,8.98,3.59,12.09Z"/>
        <path class="cls-2" d="M187.33,52.18c.79.71,1.18,1.63,1.18,2.76,0,1.84-.58,3.47-1.74,4.89-1.16,1.42-2.98,2.16-5.45,2.23-5.07.06-9.71-.24-13.9-.91-1.23-.2-2.43.38-2.98,1.44-5.06,9.76-11.07,17.94-18.02,24.52-7.38,6.98-14.67,10.47-21.86,10.47-6.59,0-11.54-3.31-14.84-9.94-2.13-4.27-3.66-9.48-4.6-15.63-.4-2.59-4.14-3.07-5.26-.68-3.38,7.27-7.04,13.01-10.99,17.21-5.66,6.03-11.67,9.04-18.04,9.04-7.19,0-12.63-4.24-16.3-12.71-3.67-8.47-5.51-19.87-5.51-34.19,0-10.42.97-21.87,2.92-34.34.52-3.54,1.48-6.01,2.87-7.39,1.39-1.38,3.58-2.07,6.58-2.07,2.25,0,3.99.46,5.23,1.38,1.24.92,1.85,2.62,1.85,5.1,0,.5-.07,1.45-.22,2.87-2.25,14.53-3.37,26.9-3.37,37.11,0,9.5.86,16.84,2.58,22.01,1.72,5.18,4.05,7.76,6.97,7.76,2.62,0,5.79-2.61,9.5-7.82,3.71-5.21,7.4-12.94,11.07-23.18,3.67-10.24,6.78-22.45,9.33-36.63.6-3.26,1.7-5.51,3.31-6.75,1.61-1.24,3.8-1.86,6.58-1.86,2.32,0,4.03.48,5.11,1.44,1.08.96,1.63,2.39,1.63,4.31,0,1.14-.08,2.02-.23,2.66-2.1,11.55-3.15,23.11-3.15,34.66,0,7.87.28,14.14.84,18.82.56,4.68,1.65,8.24,3.26,10.69,1.61,2.45,3.95,3.67,7.02,3.67,3.6,0,7.6-2.57,12.03-7.71,4.02-4.68,7.73-10.4,11.14-17.16.56-1.11.22-2.48-.84-3.2-3.67-2.51-6.5-5.61-8.5-9.31-2.32-4.29-3.48-9.23-3.48-14.83s.92-10.33,2.75-14.19c1.83-3.86,4.34-6.75,7.53-8.67,3.18-1.91,6.72-2.87,10.62-2.87,4.79,0,8.6,1.63,11.41,4.89,2.81,3.26,4.21,7.73,4.21,13.4,0,7.21-1.49,15.13-4.46,23.77-.53,1.55.58,3.19,2.3,3.38,3.03.33,6.41.5,10.14.5,1.72,0,2.98.36,3.77,1.06ZM154,42.26c1.34,1.75,4.24,1.3,4.91-.77,1.98-6.13,2.97-11.32,2.97-15.58,0-2.98-.41-5.16-1.24-6.54-.83-1.38-1.95-2.07-3.37-2.07-2.02,0-3.67,1.12-4.94,3.35-1.28,2.23-1.91,5.41-1.91,9.52,0,4.95,1.2,8.98,3.59,12.09Z"/>
        <g>
          <path class="cls-2" d="M461.66,124.86c-4.1-3.38-6.15-7.19-6.15-11.42,0-3.67,1.42-6.84,4.25-9.52,2.83-2.68,7-4.02,12.52-4.02,1.93,0,4.21.18,6.82.53.9.12,1.72.23,2.46.33,1.81.23,3.4-1.24,3.12-2.95-.41-2.43-1.15-4.77-2.23-7-1.57-3.24-3.54-6.38-5.92-9.41-1.4-1.78-2.75-3.42-4.04-4.93s-3.63-1.26-4.58.38c-3.97,6.83-7.92,12.61-11.83,17.35-4.55,5.5-9.5,10.72-14.86,15.65-2.68,2.54-5.52,3.81-8.49,3.81-2.39,0-4.32-.81-5.81-2.43-1.49-1.62-2.23-3.63-2.23-6.03,0-2.82,1.04-5.42,3.13-7.82l2.91-3.38c8.2-9.59,14.38-17.48,18.56-23.69,2.68-4.09,5.4-8.95,8.16-14.59,2.76-5.64,6.37-13.33,10.84-23.05,2.83-6.2,8.72-9.3,17.66-9.3,4.17,0,7.08.35,8.72,1.06,1.64.71,2.46,1.83,2.46,3.38,0,.84-.3,2.19-.9,4.02-.6,1.83-1.42,3.67-2.46,5.5-2.68,5.08-4.02,9.38-4.02,12.9,0,2.11.78,4.44,2.35,6.98,1.57,2.54,3.99,5.71,7.26,9.52,4.77,5.92,8.38,10.96,10.84,15.12,2.46,4.16,3.69,8.71,3.69,13.64,0,5.92-1.45,11.53-4.36,16.82-2.91,5.29-6.97,9.55-12.18,12.8-5.22,3.24-11.18,4.86-17.88,4.86-7.75,0-13.68-1.69-17.77-5.08Z"/>
          <path class="cls-2" d="M276.56,190.51c-6.97-7.12-10.45-16.66-10.45-28.61,0-6.74,1.05-14.94,3.16-24.59l15.06-65.72c.32-1.22,1.09-4.6,2.31-10.11,1.21-5.51,1.82-11.49,1.82-17.92,0-3.68-.77-6.44-2.31-8.27-1.54-1.84-3.61-2.76-6.19-2.76-4.86,0-10.53,2.18-17,6.55-6.48,4.37-13.28,11.07-20.4,20.11-2.27,2.91-4.78,4.37-7.53,4.37-2.17,0-4.07-.95-5.72-2.83-2-2.28-2.94-5.27-2.75-8.22.28-4.51,2.54-9.56,6.77-15.14,16.52-21.45,35.86-32.17,58.05-32.17,9.87,0,17.61,2.84,23.2,8.5,5.59,5.67,8.38,14.02,8.38,25.05,0,7.81-.57,15.02-1.7,21.6-1.13,6.59-3.08,15.55-5.83,26.89l-9.96,42.05c-.33,1.38-.89,3.83-1.7,7.36-.81,3.52-1.45,6.86-1.94,10-.48,3.14-.73,6.24-.73,9.31,0,4.9,1.46,8.81,4.37,11.72,2.91,2.91,7.04,4.37,12.39,4.37,9.71,0,19.55-4.9,29.51-14.71,9.96-9.8,19.19-25.62,27.69-47.45,8.5-21.83,15.1-49.75,19.79-83.76,1.13-7.81,2.79-13.25,4.98-16.32,2.18-3.06,6.44-4.6,12.75-4.6,5.67,0,9.87,1.61,12.63,4.82,2.75,3.22,4.13,8.43,4.13,15.63,0,4.14-.53,9.58-1.58,16.32-1.05,6.74-2.63,16.16-4.73,28.27-4.37,23.44-7.86,44.96-10.45,64.57-1.3,8.88-1.94,15.47-1.94,19.76,0,6.28,1.5,11.07,4.5,14.36,2.99,3.3,7,4.94,12.02,4.94,5.34,0,10.57-1.68,15.67-5.06,5.1-3.37,11.13-8.96,18.09-16.77,1.94-2.15,4.13-3.22,6.56-3.22,2.1,0,3.77.92,4.98,2.76,1.21,1.84,1.82,4.37,1.82,7.58,0,5.97-1.54,10.72-4.61,14.25-8.42,9.65-16.76,16.7-25.02,21.14-8.26,4.45-16.92,6.66-25.99,6.66-13.44,0-23.72-3.25-30.84-9.77-7.13-6.51-10.69-14.97-10.69-25.39,0-2.98.34-7.4,1.02-13.27.34-2.95-3.94-4.08-5.26-1.39-6.51,13.27-14.04,23.97-22.6,32.12-12.39,11.8-26.68,17.7-42.87,17.7-13.6,0-23.89-3.56-30.84-10.69Z"/>
        </g>
        <g>
          <path class="cls-1" d="M144.99,154.94c-2.6-3.48-3.9-8.03-3.9-13.67,0-6.18,1.3-12.03,3.9-17.55,2.6-5.52,6.06-9.96,10.38-13.32,4.32-3.36,8.91-5.04,13.76-5.04,1.54,0,2.58.33,3.11.99.27.34.52.82.75,1.44.42,1.15,1.62,1.86,2.89,1.74.75-.07,1.52-.11,2.31-.11,3.44,0,5.16,1.35,5.16,4.05,0,1.62-.53,5.49-1.58,11.59-1.62,8.88-2.42,15.06-2.42,18.54,0,1.16.26,2.09.79,2.78.53.69,1.21,1.04,2.06,1.04,1.33,0,2.95-.94,4.85-2.84,1.9-1.89,4.46-4.96,7.7-9.21.84-1.08,1.79-1.62,2.85-1.62.91,0,1.63.46,2.16,1.39.53.93.79,2.2.79,3.82,0,3.09-.67,5.48-2,7.18-2.88,3.94-5.94,7.26-9.17,9.96-3.23,2.7-6.36,4.06-9.38,4.06-2.32,0-4.45-.87-6.38-2.61-.92-.83-1.73-1.8-2.44-2.92-1-1.58-3.36-1.79-4.54-.33-3.16,3.9-6.9,5.85-11.2,5.85s-7.84-1.74-10.44-5.21ZM163.65,145.44c1.41-2.01,2.42-4.67,3.06-8l3.17-17.34c.39-2.15-2-3.8-4.03-2.77-1.18.59-2.32,1.41-3.41,2.44-2.5,2.36-4.48,5.47-5.96,9.33-1.48,3.86-2.21,7.96-2.21,12.28,0,2.4.44,4.17,1.32,5.33.88,1.16,2.09,1.74,3.64,1.74s3.02-1,4.43-3.01Z"/>
          <path class="cls-1" d="M238.54,123.26c1.09,1.2,1.63,2.68,1.63,4.46,0,1-.21,2.09-.63,3.24-1.13,2.86-2.71,5.25-4.74,7.18-2.04,1.93-4.29,2.9-6.75,2.9-1.97,0-3.64-.77-5.01-2.32-1.37-1.54-2.05-3.63-2.05-6.26,0-1.47.07-3.05.21-4.75.14-1.23.21-2.09.21-2.55,0-.62-.12-1.08-.37-1.39-.25-.31-.54-.46-.9-.46-.98,0-2.32,1.29-4.01,3.88-1.69,2.59-3.37,6.01-5.06,10.25-1.69,4.25-3.06,8.73-4.11,13.44-.77,3.71-1.65,6.18-2.64,7.42-.98,1.24-2.6,1.85-4.85,1.85-2.67,0-4.55-1.54-5.64-4.63-1.09-3.09-1.63-8.03-1.63-14.83,0-10.04,1.3-19.58,3.9-28.62.63-2.24,1.67-3.88,3.11-4.92,1.44-1.04,3.46-1.56,6.06-1.56,1.41,0,2.39.19,2.95.58.56.39.84,1.12.84,2.2,0,1.24-.53,4.02-1.58,8.34-.7,3.09-1.26,5.79-1.69,8.11-.42,2.32-.77,5.18-1.05,8.57,2.32-6.64,4.92-12.05,7.8-16.22,2.88-4.17,5.69-7.14,8.43-8.92,2.74-1.78,5.23-2.66,7.48-2.66,2.04,0,3.6.64,4.69,1.91,1.09,1.27,1.63,3.15,1.63,5.62,0,1.47-.39,4.25-1.16,8.34h.95c1.55,0,2.86.6,3.95,1.8Z"/>
        </g>
        <path class="cls-1" d="M148.25,150.19c1.14.47,2.42,1.87,2.5,3.25.1,1.7.56,3.32-1.09,4.83-1.36,1.25-9.44,2.16-11.92,2.23-5.07.06-9.71-.24-13.9-.91-1.23-.2-2.43.38-2.98,1.44-5.06,9.76-11.07,17.94-18.02,24.52-7.38,6.98-14.67,10.47-21.86,10.47-6.59,0-11.54-3.31-14.84-9.94-2.13-4.27-3.66-9.48-4.6-15.63-.4-2.59-4.14-3.07-5.26-.68-3.38,7.27-7.04,13.01-10.99,17.21-5.66,6.03-11.67,9.04-18.04,9.04-7.19,0-12.63-4.24-16.3-12.71-3.67-8.47-5.51-19.87-5.51-34.19,0-10.42.97-21.87,2.92-34.35.52-3.54,1.48-6.01,2.87-7.39,1.39-1.38,3.58-2.07,6.58-2.07,2.25,0,3.99.46,5.23,1.38,1.24.92,1.85,2.62,1.85,5.1,0,.5-.07,1.45-.22,2.87-2.25,14.53-3.37,26.9-3.37,37.11,0,9.5.86,16.84,2.58,22.01,1.72,5.18,4.05,7.76,6.97,7.76,2.62,0,5.79-2.61,9.5-7.82,3.71-5.21,7.4-12.94,11.07-23.18,3.67-10.24,6.78-22.45,9.33-36.63.6-3.26,1.7-5.51,3.31-6.75,1.61-1.24,3.8-1.86,6.58-1.86,2.32,0,4.03.48,5.11,1.44,1.08.96,1.63,2.39,1.63,4.31,0,1.14-.08,2.02-.23,2.66-2.1,11.55-3.15,23.11-3.15,34.66,0,7.87.28,14.14.84,18.82.56,4.68,1.65,8.24,3.26,10.69,1.61,2.45,3.95,3.67,7.02,3.67,3.6,0,7.6-2.57,12.03-7.71,4.02-4.68,7.73-10.4,11.14-17.16.56-1.11.22-2.48-.84-3.2-3.67-2.51-6.5-5.61-8.5-9.31-2.32-4.29-3.48-9.23-3.48-14.83s.92-10.33,2.75-14.19c1.83-3.86,4.34-6.75,7.53-8.67,3.18-1.91,6.72-2.87,10.62-2.87,4.79,0,8.6,1.63,11.41,4.89,2.81,3.26,4.21,7.73,4.21,13.4,0,7.21-1.49,15.13-4.46,23.77-.53,1.55.58,3.19,2.3,3.38,3.03.33,6.41.5,10.14.5,1.72,0,7.26.23,8.25.64ZM110.44,140.69c1.34,1.75,4.24,1.3,4.91-.77,1.98-6.13,2.97-11.32,2.97-15.58,0-2.98-.41-5.16-1.24-6.54-.83-1.38-1.95-2.07-3.37-2.07-2.02,0-3.67,1.12-4.94,3.35-1.28,2.23-1.91,5.41-1.91,9.52,0,4.95,1.2,8.98,3.59,12.09Z"/>
        <path class="cls-1" d="M192.8,47c.79.71,1.18,1.63,1.18,2.76,0,1.84-.58,3.47-1.74,4.89-1.16,1.42-2.98,2.16-5.45,2.23-5.07.06-9.71-.24-13.9-.91-1.23-.2-2.43.38-2.98,1.44-5.06,9.76-11.07,17.94-18.02,24.52-7.38,6.98-14.67,10.47-21.86,10.47-6.59,0-11.54-3.31-14.84-9.94-2.13-4.27-3.66-9.48-4.6-15.63-.4-2.59-4.14-3.07-5.26-.68-3.38,7.27-7.04,13.01-10.99,17.21-5.66,6.03-11.67,9.04-18.04,9.04-7.19,0-12.63-4.24-16.3-12.71-3.67-8.47-5.51-19.87-5.51-34.19,0-10.42.97-21.87,2.92-34.34.52-3.54,1.48-6.01,2.87-7.39,1.39-1.38,3.58-2.07,6.58-2.07,2.25,0,3.99.46,5.23,1.38,1.24.92,1.85,2.62,1.85,5.1,0,.5-.07,1.45-.22,2.87-2.25,14.53-3.37,26.9-3.37,37.11,0,9.5.86,16.84,2.58,22.01,1.72,5.18,4.05,7.76,6.97,7.76,2.62,0,5.79-2.61,9.5-7.82,3.71-5.21,7.4-12.94,11.07-23.18,3.67-10.24,6.78-22.45,9.33-36.63.6-3.26,1.7-5.51,3.31-6.75,1.61-1.24,3.8-1.86,6.58-1.86,2.32,0,4.03.48,5.11,1.44,1.08.96,1.63,2.39,1.63,4.31,0,1.14-.08,2.02-.23,2.66-2.1,11.55-3.15,23.11-3.15,34.66,0,7.87.28,14.14.84,18.82.56,4.68,1.65,8.24,3.26,10.69,1.61,2.45,3.95,3.67,7.02,3.67,3.6,0,7.6-2.57,12.03-7.71,4.02-4.68,7.73-10.4,11.14-17.16.56-1.11.22-2.48-.84-3.2-3.67-2.51-6.5-5.61-8.5-9.31-2.32-4.29-3.48-9.23-3.48-14.83s.92-10.33,2.75-14.19c1.83-3.86,4.34-6.75,7.53-8.67,3.18-1.91,6.72-2.87,10.62-2.87,4.79,0,8.6,1.63,11.41,4.89,2.81,3.26,4.21,7.73,4.21,13.4,0,7.21-1.49,15.13-4.46,23.77-.53,1.55.58,3.19,2.3,3.38,3.03.33,6.41.5,10.14.5,1.72,0,2.98.36,3.77,1.06ZM159.47,37.08c1.34,1.75,4.24,1.3,4.91-.77,1.98-6.13,2.97-11.32,2.97-15.58,0-2.98-.41-5.16-1.24-6.54-.83-1.38-1.95-2.07-3.37-2.07-2.02,0-3.67,1.12-4.94,3.35-1.28,2.23-1.91,5.41-1.91,9.52,0,4.95,1.2,8.98,3.59,12.09Z"/>
        <g>
          <path class="cls-1" d="M467.13,119.68c-4.1-3.38-6.15-7.19-6.15-11.42,0-3.67,1.42-6.84,4.25-9.52,2.83-2.68,7-4.02,12.52-4.02,1.93,0,4.21.18,6.82.53.9.12,1.72.23,2.46.33,1.81.23,3.4-1.24,3.12-2.95-.41-2.43-1.15-4.77-2.23-7-1.57-3.24-3.54-6.38-5.92-9.41-1.4-1.78-2.75-3.42-4.04-4.93s-3.63-1.26-4.58.38c-3.97,6.83-7.92,12.61-11.83,17.35-4.55,5.5-9.5,10.72-14.86,15.65-2.68,2.54-5.52,3.81-8.49,3.81-2.39,0-4.32-.81-5.81-2.43-1.49-1.62-2.23-3.63-2.23-6.03,0-2.82,1.04-5.42,3.13-7.82l2.91-3.38c8.2-9.59,14.38-17.48,18.56-23.69,2.68-4.09,5.4-8.95,8.16-14.59,2.76-5.64,6.37-13.33,10.84-23.05,2.83-6.2,8.72-9.3,17.66-9.3,4.17,0,7.08.35,8.72,1.06,1.64.71,2.46,1.83,2.46,3.38,0,.84-.3,2.19-.9,4.02-.6,1.83-1.42,3.67-2.46,5.5-2.68,5.08-4.02,9.38-4.02,12.9,0,2.11.78,4.44,2.35,6.98,1.57,2.54,3.99,5.71,7.26,9.52,4.77,5.92,8.38,10.96,10.84,15.12,2.46,4.16,3.69,8.71,3.69,13.64,0,5.92-1.45,11.53-4.36,16.82-2.91,5.29-6.97,9.55-12.18,12.8-5.22,3.24-11.18,4.86-17.88,4.86-7.75,0-13.68-1.69-17.77-5.08Z"/>
          <path class="cls-1" d="M282.03,185.33c-6.97-7.12-10.45-16.66-10.45-28.61,0-6.74,1.05-14.94,3.16-24.59l15.06-65.72c.32-1.22,1.09-4.6,2.31-10.11,1.21-5.51,1.82-11.49,1.82-17.92,0-3.68-.77-6.44-2.31-8.27-1.54-1.84-3.61-2.76-6.19-2.76-4.86,0-10.53,2.18-17,6.55-6.48,4.37-13.28,11.07-20.4,20.11-2.27,2.91-4.78,4.37-7.53,4.37-2.17,0-4.07-.95-5.72-2.83-2-2.28-2.94-5.27-2.75-8.22.28-4.51,2.54-9.56,6.77-15.14C255.31,10.73,274.66,0,296.85,0,306.72,0,314.45,2.84,320.04,8.5c5.59,5.67,8.38,14.02,8.38,25.05,0,7.81-.57,15.02-1.7,21.6-1.13,6.59-3.08,15.55-5.83,26.89l-9.96,42.05c-.33,1.38-.89,3.83-1.7,7.36s-1.45,6.86-1.94,10c-.48,3.14-.73,6.24-.73,9.31,0,4.9,1.46,8.81,4.37,11.72,2.91,2.91,7.04,4.37,12.39,4.37,9.71,0,19.55-4.9,29.51-14.71,9.96-9.8,19.19-25.62,27.69-47.45,8.5-21.83,15.1-49.75,19.79-83.76,1.13-7.81,2.79-13.25,4.98-16.32C407.48,1.53,411.73,0,418.04,0,423.71,0,427.92,1.61,430.67,4.82c2.75,3.22,4.13,8.43,4.13,15.63,0,4.14-.53,9.58-1.58,16.32-1.05,6.74-2.63,16.16-4.73,28.27-4.37,23.44-7.86,44.96-10.45,64.57-1.3,8.88-1.94,15.47-1.94,19.76,0,6.28,1.5,11.07,4.5,14.36,2.99,3.3,7,4.94,12.02,4.94,5.34,0,10.57-1.68,15.67-5.06,5.1-3.37,11.13-8.96,18.09-16.77,1.94-2.15,4.13-3.22,6.56-3.22,2.1,0,3.77.92,4.98,2.76,1.21,1.84,1.82,4.37,1.82,7.58,0,5.97-1.54,10.72-4.61,14.25-8.42,9.65-16.76,16.7-25.02,21.14-8.26,4.45-16.92,6.66-25.99,6.66-13.44,0-23.72-3.25-30.84-9.77-7.13-6.51-10.69-14.97-10.69-25.39,0-2.98.34-7.4,1.02-13.27.34-2.95-3.94-4.08-5.26-1.39-6.51,13.27-14.04,23.97-22.6,32.12-12.39,11.8-26.68,17.7-42.87,17.7-13.6,0-23.89-3.56-30.84-10.69Z"/>
        </g>
      </g>
    </g>
  </g>
</svg>