<?xml version="1.0" encoding="UTF-8"?>
<svg id="Layer_2" data-name="Layer 2" xmlns="http://www.w3.org/2000/svg" xmlns:xlink="http://www.w3.org/1999/xlink" viewBox="0 0 244.9 442.83">
  <defs>
    <style>
      .cls-1 {
        fill: #efd987;
      }

      .cls-2 {
        fill: #3c5f9e;
      }

      .cls-3 {
        fill: #3a3a39;
      }

      .cls-4 {
        fill: #fcfcfb;
      }

      .cls-5 {
        fill: #d43137;
      }

      .cls-6 {
        font-family: OldEurope, 'Old Europe';
        font-size: 33.48px;
      }

      .cls-7 {
        fill: url(#linear-gradient);
      }

      .cls-7, .cls-8, .cls-9 {
        stroke: #000;
      }

      .cls-7, .cls-8, .cls-9, .cls-10 {
        stroke-miterlimit: 10;
      }

      .cls-7, .cls-10 {
        stroke-width: 3.32px;
      }

      .cls-8 {
        fill: #1d1a1b;
        stroke-width: 4px;
      }

      .cls-9 {
        fill: #f4dd6a;
        stroke-width: 3.14px;
      }

      .cls-10 {
        fill: #d8af7d;
        stroke: #42210b;
      }

      .cls-11 {
        fill: #d9444a;
      }
    </style>
    <linearGradient id="linear-gradient" x1="87.26" y1="230.49" x2="328.83" y2="230.49" gradientTransform="translate(-85.6 -5.26)" gradientUnits="userSpaceOnUse">
      <stop offset="0" stop-color="#dedfe3"/>
      <stop offset=".38" stop-color="#dcdcde"/>
      <stop offset=".78" stop-color="#d6d3d2"/>
      <stop offset="1" stop-color="#d1ccc8"/>
      <stop offset="1" stop-color="#d0cac6"/>
    </linearGradient>
  </defs>
  <g id="_1" data-name="1">
    <g id="Layer_5" data-name="Layer 5">
      <g>
        <g>
          <path class="cls-7" d="M243.23,441.17H1.66V9.28h241.57c.02,143.97,0,287.8,0,431.89Z"/>
          <path class="cls-9" d="M17.46,422.57V27.25c69.98,0,139.9,0,209.98,0v395.38c-1.28.78-208.46.75-209.98-.06Z"/>
          <rect class="cls-11" x="26" y="74.3" width="192.92" height="19.12" rx="2.43" ry="2.43"/>
          <path d="M60.32,110.79c.34,3.64.4,6.74-.34,9.83-.9,3.76-4.19,5.41-8.36,4.14-1.83-.56-3.12-1.58-3.02-3.31.08-1.32.3-2.64.58-3.93.49-2.22,1.39-4.42,1.56-6.65.23-3.07-.55-6.07-2.72-8.7-1.31-1.59-3.2-2.21-5.46-1.86-1.58.25-3.11.74-4.69,1.01-1.85.31-3.77.81-5.58.64-5.48-.49-8.26-3.15-8.12-7.81.12-3.81.64-7.62.99-11.43.19-2.01.6-3.99.82-6.21.86-.08,1.47-.26,2.28-.26,18.31-.01,36.62,0,54.92,0,20.22,0,40.43.02,60.65-.02,24.31-.05,48.62-.15,72.93-.22.55,0,1.45.05,2,.08.11.36.24.57.24.79.15,4.61-.02,9.22.04,13.82.02,1.32-.21,2.65-.5,3.95-.46,2.04-1.46,2.71-4.02,2.94-2.47.23-3.28.81-3.8,2.84-.27,1.07-.45,2.15-.71,3.22-.77,3.12-3.31,5.29-8.31,5.66-4.07.31-7.93-.67-11.72-1.73-6.48-1.8-12.9-3.78-19.39-5.56-4.84-1.33-8.64.4-9.57,4.23-.22.9-.11,1.87-.07,2.8.07,1.48.41,2.97.29,4.43-.33,4-3.35,4.86-7.3,4.16-1.48-.26-2.33-1.16-2.85-2.39-.93-2.19.07-4.33-.03-6.5-.05-1.24-.04-2.5-.26-3.72-.2-1.15-.98-2.03-2.52-2.25-1.54-.22-3.21.27-3.86,1.47-.52.95-.67,2.07-.74,3.12-.11,1.53.23,3.1-.04,4.6-.3,1.68-1.49,2.36-3.54,2.51-.57.04-1.14.03-1.72.03-4.25,0-6.07-2.21-5.93-5.48.06-1.38.53-2.76.83-4.13.49-2.25,0-2.93-2.74-3.57-3.73-.88-7.58-.93-11.34-.54-4.9.5-9.73,1.41-14.6,2.14-7.16,1.08-14.31,1.35-21.52.14-2.49-.42-5.11-.49-7.66-.49-3.68.01-4.76,1.13-4.37,4.12.08.62.33,1.23.34,1.84.04,2.45-1.73,3.96-4.68,4.1-2.26.1-4.36-.19-6.4-1.87ZM32.28,84.32c.36,2.23.53,4.02.96,5.76.43,1.76,1.42,2.38,3.6,2.37,2.57,0,5.13-.16,7.7-.23,8.46-.23,16.93-.38,25.38-.7,4.16-.16,8.35-.44,12.46-1,2.69-.36,5.25-1.34,7.89-1.99,5.4-1.33,10.68-1.97,16.02.48,3.35,1.53,7.17,1.58,10.85.71,3.56-.84,7.1-.86,10.74-.57,6.71.55,13.43,1.03,20.15,1.46,4.83.31,9.69.41,14.52.74,4.49.3,8.89.34,13.25-.89,2.83-.79,5.83-1.01,8.67,0,3.72,1.32,7.29,1.46,10.98-.09,1.63-.68,3.43-.73,5.16.18,3.13,1.63,6.75.59,8.04-2.22.71-1.55.03-2.85-1.91-3.32-1.18-.29-2.42-.45-3.65-.52-10.42-.65-20.84-1.39-31.27-1.87-8.73-.4-17.47-.55-26.22-.7-9.81-.16-19.62-.26-29.43-.27-7.33,0-14.66.27-21.99.25-16.47-.05-32.93.02-49.34,1.18-4.05.29-8.08.8-12.56,1.25Z"/>
          <g>
            <path class="cls-10" d="M122.46,75.18c36.05.07,73.2.14,94.86.18,2.63.01,4-1.5,4.52-4.3l.04-.21c1.66-9.55-1.86-24.27-1.34-35.07-.06-8.67,2.13-17.68.18-25.91-1.43-6.15-4.14-8.41-9.43-8.19-12.72,0-50.81,0-88.8,0h-.08c-37.99,0-76.08,0-88.8,0-5.29-.22-8.01,2.04-9.43,8.19-1.94,8.24.25,17.25.18,25.91.52,10.8-3,25.53-1.34,35.07l.04.21c.52,2.8,1.89,4.31,4.52,4.3,21.66-.03,58.81-.1,94.86-.18"/>
            <path class="cls-10" d="M221.48,15.85c-1.43-6.15-4.41-8.46-10.2-8.68-12.72,0-50.81,0-88.8,0h-.08c-37.99,0-76.08,0-88.8,0-5.29-.22-10.26,1.52-10.1,7.84"/>
          </g>
          <g>
            <path class="cls-8" d="M123.63,365.26c-.87.05-1.49.08-2.38.13v-5.72c-1.98,0-3.7,0-5.5,0v-2.27c1.74,0,3.41,0,5.34,0v-5.64h2.41v5.52h5.21v2.29c-.87.04-1.69.09-2.5.1-.77.02-1.54,0-2.58,0v5.58Z"/>
            <path class="cls-8" d="M128.7,135.72v2.34h-5.08v5.61c-.86.05-1.52.08-2.4.13v-5.67h-5.46c0-.9,0-1.51,0-2.29,1.72,0,3.39,0,5.33,0v-5.46h2.42v5.34h5.19Z"/>
          </g>
        </g>
        <g>
          <g>
            <path d="M160.8,299.8c-.67.34-1.5.19-2.24.18-1.87,0-3.74.01-5.6-.14-1.43-.12-2.85-.48-4.27-.76-.46-.09-.78-.03-1,.44-.17.38-.44.71-.71,1.13-.15-.25-.29-.38-.32-.53-.16-.81-.67-.98-1.42-.93-1.38.09-2.77.11-4.15.13-1.2.01-1.46-.23-1.78-1.37-.37-1.29-.35-2.59,0-3.87.26-.97.64-1.9.95-2.81-4.14,0-8.28,0-12.43,0-.05.05-.09.1-.14.14,1.16,1.03,2.27,2.13,3.5,3.08,1.36,1.04,2.84,1.91,4.23,2.93.71.52,1.49,1.15,1.27,2.19-.22,1.04-1.18,1.2-2.04,1.34-3.54.58-7.04.33-10.51-.51-2.32-.57-4.64-1.17-7.06-1.09-1.38.05-1.78-.32-1.83-1.61-.01-.31-.17-.6-.2-.91-.03-.38-.08-.78.01-1.14.38-1.51.81-3.01,1.23-4.52-5.34.04-10.76.21-16.07-1.64,0,1.53,0,2.99.01,4.44,0,.13.13.31.25.39,1.35.86,1.48,2.18,1.35,3.58-.07.76-.76,1.41-1.42,1.42-1.97,0-3.94,0-5.91-.01-.19,0-.41-.09-.57-.2-1.22-.86-1.44-3.1-.2-4.23.83-.76.9-1.53.85-2.47-.03-.48,0-.97,0-1.46.03-7.61.06-15.23.11-22.84,0-.48-.2-.65-.58-.75-.95-.25-1.91-.48-2.86-.74-1.27-.36-2.53-.74-3.79-1.11-.04.13-.05.15-.05.18-.01,8.9-.02,17.81-.02,26.71,0,.13.09.32.2.39,1.12.75,1.33,1.83,1.15,3.05-.17,1.13-.71,1.59-1.85,1.59-1.46,0-2.92-.02-4.38.01-.7.02-1.14-.28-1.43-.88-.53-1.05-.3-2.77.64-3.45.63-.46.72-.97.72-1.65-.01-17.39,0-34.78-.01-52.17,0-.19,0-.39-.03-.58-.33-1.42-.77-2.83-.99-4.27-.28-1.89-.49-3.8-.56-5.71-.16-3.91.17-7.79.84-11.66.86-5.03,2.49-9.79,4.88-14.29.13-.25.24-.54.24-.81.02-2.04.02-4.09,0-6.13,0-.2-.17-.52-.35-.59-1.68-.71-2.24-3-1.92-4.54.34-1.65,1.77-2.98,3.27-3.21,1.89-.28,3.69.53,4.62,2.07,1.08,1.78,1,3.74.9,5.71-.02.4-.06.8-.11,1.3.96-.29,1.82-.56,2.54-.78-.21-1-.62-1.97-.57-2.91.07-1.3.36-2.62.76-3.87,1.21-3.82,2.55-7.6,3.77-11.41.28-.87.45-1.86.34-2.75-.11-.9-.57-1.78-.97-2.62-1.07-2.26-2.18-4.49-3.31-6.81.64-.18,1.27-.43,1.93-.53,1.67-.27,2.73.35,3.41,1.91.18.42.39.83.6,1.24.39.74,1.15,1,1.98.72.7-.24,1.05-.86.94-1.65-.17-1.24.1-1.98,1.01-2.41.47-.22,1.01-.37,1.53-.4,1.54-.09,2.32.72,2.27,2.27-.04,1.07,1.03,2.05,2.09,1.9,1.15-.15,1.69-.76,1.68-2.06,0-.85.34-1.46,1.06-1.84,1.09-.57,2.26-.7,3.31,0,.49.33,1.01.98,1.05,1.52.07,1.02.56,1.74,1.14,2.44.38.45.9.57,1.51.43.9-.19,1.57-.73,1.99-1.47.84-1.51,2.19-2.14,3.79-2.29.63-.06,1.36,0,1.73.55-.96,2.23-1.81,4.41-2.83,6.5-.88,1.82-1.17,3.53-.27,5.46.52,1.12.64,2.47.18,3.69-.3.79-.28,1.48.03,2.23.51,1.22,1.02,2.44,1.49,3.67.43,1.12.1,1.7-1.05,1.95-.28.06-.55.11-.86.16,0,.14-.02.26,0,.38.15.79.14,1.53-.45,2.18-.09.1-.01.39.03.58.12.51.38,1.02.36,1.52-.05,1.12.11,1.5,1.17,1.8,1.69.48,3.39.92,5.09,1.38,4.78,1.28,9.2,3.32,12.88,6.66,4.39,3.99,8.37,8.37,11.75,13.27,2.57,3.72,3.47,7.8,2.87,12.23-.34,2.48-1.44,4.63-3.08,6.52-1.32,1.53-2.93,2.34-4.98,2.22-.35-.02-.73.04-1.07.13-.19.05-.33.26-.52.42,2.74,0,5.34,0,7.94,0,1.3,0,2.28.53,2.98,1.62.1.15.22.29.34.43v3.07c-1.23,2.59-3.29,3.11-6.24,1.54v1.11c.5.46,1.06.77,1.27,1.23.18.41.08,1.04-.1,1.49-.15.37-.19.59.06.9,1.67,2.04,2.43,4.47,2.97,6.98.92,4.28,1.02,8.65,1.21,13,.16,3.58.45,7.16.69,10.74,0,.13.1.25.15.37v4.67c-.62,1.78-2.23,1.89-3.71,2.18-.82.16-1.66.22-2.56.34,0,1.42-.02,2.85.02,4.27,0,.2.23.46.42.59,1.81,1.28,3.72,2.39,5.83,3.12,0,0,2.66,2,0,3.36ZM153.63,292.86c-1.14-.95-2.4-1.75-3.75-2.71-.13,3.08-.11,5.99-1.81,8.5M116.79,247.98s-.07.09-.11.13c.2.16.39.32.59.48.83.48,1.63,1.01,2.5,1.41.77.35,1.02.22,1.48-.3.78.34,1.51.72,2.29.96.34.1.77-.09,1.16-.14.25-.03.5-.1.74-.08.92.11,1.48-.37,1.52-1.31.05-1.18-.46-2.19-1.09-3.09-.87-1.24-1.91-2.38-2.89-3.54-.11-.13-.3-.19-.54-.15.64.69,1.36,1.32,1.89,2.09.8,1.15,1.51,2.37,2.17,3.61.2.37.16.9.14,1.35-.02.51-.35.74-.87.79-.5.05-.66-.15-.87-.6-.46-1-.97-2-1.62-2.87-1.01-1.34-2.23-2.47-3.7-3.31-.05.04-.1.09-.14.13.12.08.24.15.35.24,1.73,1.35,3.32,2.83,4.43,4.76.17.29.31.6.38.93.18.79-.3,1.22-1.08.97-.45-.15-.89-.36-1.32-.56-.49-.23-.78-.56-1.01-1.11-.71-1.72-2.02-2.94-3.6-3.87-.05.05-.09.1-.14.14.34.26.74.48,1.02.8.83.94,1.63,1.9,2.39,2.89.14.19.16.74.04.81-.28.18-.75.33-1.03.22-.86-.36-1.67-.85-2.49-1.29-.2-.15-.39-.3-.59-.46ZM100.71,235.83c-1.27,1.92-1.91,4.05-2.16,6.31-.02.16.13.4.27.51.35.26.74.46,1.11.69.41.7.82,1.41,1.25,2.1.08.13.25.27.39.29,1.26.13,2.53.22,3.84.33-.79-4.98.86-8.83,4.47-12.07-1.19-.34-2.43-.69-3.67-1.04-.52-.2-1.05-.4-1.57-.6-1.68-.71-3.37-1.41-5.05-2.12-.04.09-.07.19-.11.28,1.66.62,3.32,1.24,4.98,1.86-1.48.91-2.78,2-3.75,3.45ZM143.69,230.16c-.07-.01-.15-.03-.22-.04-.16.65-.35,1.29-.46,1.94-.39,2.29,0,4.52.54,6.74.03.14.04.29.06.43-.05.05-.1.1-.16.14q-1.02.87-2.16.1c-.09-.06-.21-.13-.32-.13-1.45,0-2.9,0-4.39.15,2.11,2.36,4.85,3.49,7.93,4.31-.2-1.45.41-2.88-.5-4.16-.84-3.13-1.3-6.28-.3-9.48ZM144.4,247.12c.01-.09.02-.17.04-.26-1.12-.27-2.24-.53-3.32-.79.07,0,.2-.02.33-.04.71.11,1.44.17,2.14.34.85.2.95.17.96-.68,0-.12,0-.24,0-.41-.53-.17-1.06-.35-1.59-.52.47.04.94.08,1.46.12v-.76c-2.81-.58-5.28-1.8-7.48-3.57-.47-.38-.91-.78-1.61-.62-.21.05-.46-.08-.78,0,.61.53,1.23,1.05,1.83,1.58.22.19.4.42.6.63-.86-.66-1.71-1.32-2.58-1.96-.23-.17-.52-.38-.79-.39-2.26-.03-4.52-.02-6.89.12.43.37.83.79,1.3,1.11,2.92,2.02,6.07,3.55,9.52,4.42.39.1.8.17,1.19.26.03.08.05.16.08.24-4.11-.76-7.8-2.49-11.19-4.91-.44-.32-.82-.74-1.23-1.1-.09-.08-.22-.16-.33-.16-.75-.01-1.5,0-2.25,0-.04.07-.08.14-.13.21,1.26.95,2.49,1.93,3.78,2.83,3.02,2.11,6.4,3.42,10,4.12.96.19,2.01-.04,3.02-.08,1.3.08,2.6.17,3.9.25ZM102.5,197.27s.04-.06.06-.09c-.09-.06-.18-.12-.27-.18-1.7-2.08-1.76-4.44-1.05-6.86,1.03-3.55,2.17-7.07,3.27-10.61.48-1.56.96-3.12,1.44-4.68h-1.49c-.66,2.18-1.28,4.3-1.94,6.41-.87,2.77-1.78,5.53-2.63,8.3-.47,1.54-.78,3.13-.24,4.7.29.84.78,1.64,1.31,2.36.23.31.8.35,1.22.52.11.04.21.09.32.13ZM137.16,223.8c-.24,1.95-.49,3.89-.67,5.84-.29,3.05-.38,6.1.07,9.15,0,.07.05.13.03.09,1.48,0,2.89,0,4.35,0-.86-3-1.04-5.88-.26-8.85-.52.7-.77,1.86-.73,3.65.03,1.23.14,2.46.22,3.72-.82-.09-1.52-.44-2.1-1.01-.96-.96-1.04-1.6-.22-2.5.13-.14.27-.32.29-.49.3-3.21,1.8-5.87,3.89-8.36-1.74-1.09-3.32-2.34-4.44-4.07-.05-.31-.05-.63-.15-.91-.86-2.45-1.42-4.95-1.46-7.55,0-.16-.06-.32-.1-.52-.74,1.01.48,7.38,1.73,9-.15.94-.32,1.87-.44,2.81ZM149.73,279.77c-.03.57-.06,1.15-.09,1.57,3.53,0,7.01,0,10.61,0-.05-.55-.1-1.13-.15-1.71-.17-1.57-.34-3.15-.5-4.72-.23-1.02-.47-2.04-.7-3.05-.06.01-.12.02-.18.04-.8,1.72-1.61,3.45-2.46,5.28-1.48-2.79-2.9-5.45-4.38-8.25-.55,1.49-.98,2.91-1.58,4.25-.86,1.93-.47,3.95-.58,5.93.01.22.02.45.03.67ZM82.35,237.36c.36-.5.6-.97.95-1.31,2.3-2.18,5.02-3.65,8.05-4.58,2.32-.71,4.64-1.39,7.1-1.32.09,0,.18-.02.31-.04-1.22-2.32-2.45-4.57-4.33-6.49-.89,1.82-1.77,3.61-2.66,5.45-1.49-1.64-2.96-3.25-4.52-4.97-.86,2.42-1.71,4.79-2.58,7.24-1.13-1.41-2.23-2.79-3.47-4.34.07,1.28.12,2.41.18,3.54.07,1.11.12,2.23.23,3.34.05.52.21,1.02.32,1.54.14.61.27,1.22.43,1.94ZM122.53,207.39c.08-.02.15-.14.22-.22.09,0,.17-.01.26-.02.89-.32,1.81-.58,2.64-1,.23-.12.19-.74.28-1.13,1.04-2.65,2.07-5.3,3.1-7.91-.9-.32-1.8-.65-2.79-1.01.27,1.08-.02,2.01-.72,2.64-.66.59-1.57.92-2.37,1.36.03-.11.05-.23.07-.31-.84-.19-1.67-.41-2.52-.55-.19-.03-.5.16-.61.34-.44.72-.82,1.48-1.23,2.21-.15.27-.34.52-.56.86-3.05-1.99-6.08-3.91-9.92-3.92.11.13.19.26.31.34,2.81,1.99,5.66,3.92,8.75,5.46.56.28.93.31,1.39-.2,1.1-1.22,2.26-2.4,3.42-3.57.26-.26.6-.44.9-.66-.05.12-.07.26-.15.35-1.31,1.37-2.64,2.71-3.92,4.1-.53.57-.95.66-1.69.29-3.05-1.52-5.87-3.39-8.63-5.35-.39-.28-.75-.61-1.08-.97-.38-.4-.72-.42-1.29.06,1.15,2.25,2.31,4.53,3.47,6.8.22.91.93,1.26,1.74,1.5.44.13.87.27,1.3.4.16.05.33.1.49.15.28.12.56.31.85.35,1.19.13,2.39.22,3.59.32h.94c1.26-.24,2.51-.47,3.77-.71ZM144.28,279c0-1.36,0-2.72,0-4.08,0-.16-.03-.35-.12-.48-.92-1.38-1.86-2.75-2.9-4.27-1.07,2.77-2.1,5.42-3.1,8.03-.13-.85-.28-1.8-.43-2.75-.82-5.06-1.58-10.12-2.51-15.16-.53-2.88-1.76-5.51-3.47-7.9-.49-.68-2.84-2.58-3.74-2.97-.19.76.19,1.34.55,1.94,1.43,2.39,3.07,4.66,3.99,7.33.98,2.86,1.54,5.81,1.97,8.79.33,2.33.68,4.65.97,6.98.25,2.07.43,4.15.64,6.22.06.6.1,1.21.16,1.94,2.65-.08,5.28-.16,7.99-.24v-2.11c0-.42,0-.84,0-1.26ZM135.92,201.39c-3.22,8.14-6.46,16.27-9.7,24.4-.78,1.95-1.56,3.91-2.38,5.85-.4.94.38,1.45.78,2.17.52-1.3,1.04-2.6,1.57-3.89,1.23-2.97,2.5-5.93,3.69-8.91,1.57-3.93,3.08-7.88,4.63-11.82.99-2.52,2.01-5.04,3.01-7.56.07-.18.14-.36.19-.55q.36-1.23-.92-1.69c-.18.23-.36.47-.54.7.04-.21.08-.42.14-.78-1.6-.55-3.25-1.12-4.97-1.71-.68,1.73-1.33,3.38-1.97,5.04-1.16,3.01-2.3,6.02-3.46,9.03-1.77,4.6-3.55,9.2-5.32,13.8-.06.16-.11.39-.05.53.91,1.96,1.84,3.91,2.84,6.02,2.66-6.66,5.26-13.15,7.85-19.66,1.6-4.02,3.19-8.05,4.79-12.07.03-.08.1-.15.15-.22-.12.44-.19.89-.35,1.31ZM130.83,278.13c.03-.86.06-1.72.08-2.59.01-.46,0-.92,0-1.4-.96,1.43-1.9,2.82-2.87,4.26-1.81-3-3.57-5.93-5.4-8.95-1.17,2.11-2.28,4.09-3.4,6.11-1.32-2.75-2.63-5.5-4.02-8.4-1.6,2.9-3.13,5.66-4.71,8.51-1.07-2.09-2.1-4.1-3.2-6.25-1.2,1.84-2.31,3.56-3.43,5.28-.55.85-1.18,1.66-1.64,2.56-.4.78-.69,1.64-.87,2.5-.21,1.01-.25,2.05-.36,3.08-.21.55-.55,1.09-.59,1.66-.09,1.13-.03,2.27-.03,3.36,1.09-.29,2.21-.73,3.36-.87,2.38-.29,4.78-.56,7.17-.57,4.13-.02,8.26.13,12.38.29,2.13.08,4.25.35,6.38.52.33.03.67,0,1.11,0,0-1.58,0-3.13,0-4.78-.43-.04-.95-.11-1.47-.14-3.51-.24-7.02-.59-10.54-.66-3.91-.08-7.82,0-11.72.21-1.94.1-3.86.66-5.78,1-.09.02-.19,0-.29,0,.77-.29,1.52-.67,2.31-.84,3.75-.81,7.57-.91,11.38-.77,4.85.17,9.7.49,14.55.74.53.03,1.06,0,1.65,0v-1.82c-.02-.67-.04-1.34-.05-2.02ZM97.02,196.49s-.06,0-.1,0c.03.03.05.06.08.1.54.97,1.09,1.93,1.61,2.91,2.73,5.18,5.49,10.35,8.16,15.56,3.23,6.31,6.38,12.66,9.57,18.99.45.9.85,1.84,1.35,2.72.2.35.57.65.93.84,1.03.52,2.1.96,3.15,1.45.88.42,1.77.42,2.75.1-.32-.74-.63-1.47-.96-2.18-2.98-6.37-6.01-12.73-9.38-18.9-3.35-6.13-6.71-12.25-10.07-18.38-.16-.29-.28-.6-.41-.9.19.24.43.45.57.71,3.16,5.7,6.34,11.39,9.45,17.11,3.69,6.79,7.08,13.72,10.26,20.76.32.7.69,1.38,1.05,2.11h1.56c-3.14-7.01-6.51-13.89-10.01-20.7-3.5-6.82-7.61-13.32-11.01-20.37h.79c-.96-.93-2.03-.52-3.02-.81.09.44.15.75.21,1.06-.49-1.42-1.84-.99-2.84-1.29-1.13-.33-2.3-.53-3.45-.78-.09-.02-.2.01-.3.02.01-.04.03-.07.04-.11ZM86.77,259.19c0-4.22,0-8.42,0-12.6-.35-.07-.66-.14-.97-.2l.03-.17c2.04.16,4.08.33,6.17.49.07-1.41.51-2.6,1.53-3.62-1.06-.08-2.05-.08-3.01-.23-1.57-.25-3.13-.56-4.68-.94-1.24-.3-2.13-1.17-2.95-2.2,0,17.61,0,35.16,0,52.74h3.99c0-.82,0-1.64,0-2.46,0-8,0-16.01.01-24.01,0-.43.05-.82-.65-.69-.34.07-.75-.21-1.18-.35-.04-.44.15-.49.6-.37,2.58.73,5.16,1.42,7.75,2.12.49.13.99.23,1.59.36,0-1.89,0-3.74,0-5.61-1.65-.34-3.37-.66-5.08-1.07-1.69-.41-3.37-.9-5.05-1.36l.09-.27c.6.15,1.2.29,1.81.44ZM146.76,294.62c-.03-13.04-.07-26.07-.1-39.11,0-.58-.09-1.18.01-1.75.18-1.06-.34-1.63-1.2-2.04-.3-.14-.59-.29-1.04-.51,0,.66,0,1.18,0,1.7,0,6.84,0,13.67.02,20.51.02,6.49.09,12.98.12,19.48.01,2.32.86,4.34,2.08,6.25.06.1.16.18.22.28.05.1.07.21.14.42,1.12-2,2.2-3.94,2.24-6.22.06-3.74.02-7.48.03-11.22.02-7.22.06-14.44.07-21.66,0-2.97-.06-5.93-.09-8.9,0-.16-.02-.32-.04-.59-.7.37-1.36.67-1.96,1.05-.16.1-.2.46-.2.71,0,9.27,0,18.54,0,27.81,0,4.96,0,9.93,0,14.89,0,.25,0,.51,0,.76-.1,0-.21,0-.31,0,0-.62,0-1.23,0-1.85ZM144.21,282.8c-2.73,0-5.44,0-8.27,0-.08-.91-.17-1.87-.26-2.82-.59-6.18-1.28-12.35-2.64-18.41-.61-2.74-1.62-5.33-3.34-7.6-.1-.13-.21-.25-.46-.56.17.85.29,1.49.41,2.12.12.64.27,1.28.35,1.93.3,2.54.74,5.09.84,7.64.24,6.02.32,12.05.45,18.08.02.95-.05,1.89-.1,2.84-.02.47.1.7.63.86,2.82.82,5.68,1.25,8.61.95,1.25-.13,2.48-.33,3.78-.51,0-1.58,0-3.06,0-4.52ZM127.38,291.45c-.22-.62-.36-1.23-.65-1.76-.13-.23-.56-.36-.87-.39-1.61-.14-2.86.54-3.84,1.79-.46.59-.96,1.16-1.46,1.72-.87.97-2.65,1.46-3.89.48-.09-.07-.47.03-.52.14-.8,1.66-.93,3.38-.23,5.11.08.2.5.36.76.36,1.77,0,3.53.04,5.27.47,1.68.41,3.38.82,5.09,1.06,2.72.39,5.46.42,8.19-.08,1-.18,1.33-.9.71-1.7-.48-.61-1.13-1.13-1.8-1.53-2.13-1.28-4.15-2.72-5.84-4.55-.72-.78-1.5-.77-2.37-.58-.67.15-1.32.4-1.98.61.94-.88,2.12-1.09,3.44-1.16ZM95.12,267.72c0,8.83,0,17.62,0,26.44,1.54,0,3.06,0,4.62,0,0-8.77,0-17.58,0-26.44h-4.62ZM106.01,167.37c.9.83.95,2.16.11,3.09-1.45,1.6-3.71,1.79-5.41.43-1-.79-1.08-1.34-.4-2.59-.58-.53-1.28-.65-2.07-.38.79,2.33,1.58,4.66,2.37,6.97,7.89-1.47,15.88-1.11,23.9-.51.81-2.24,1.61-4.47,2.43-6.75-.51-.44-1.41-.38-2.52.31.15.33.29.67.48,1,.33.58.03,1.66-.65,2.19-1.14.9-2.36.63-3.13-.64-.61.23-1.21.65-1.79.64-.62-.01-1.35-.31-1.81-.73-1.03-.96-.86-2.01.45-3.52-1.14-.08-2.23-.16-3.47-.25.17.36.28.63.41.89.77,1.56.5,3.12-1.42,3.66-1.7.49-3.34.45-4.67-.84-.81-.78-1.1-1.79-.69-2.93.06-.17-.1-.59-.25-.65-.76-.28-1.55-.31-2.42.1.25.22.41.36.56.51ZM100.11,261.21c0-3.93,0-7.81,0-11.72-.65.21-1.26.51-1.89.61-1.04.16-2.04-.2-2.7-.95-.77-.87-.94-1.97-.35-3.08.36-.68,1.11-1.03,1.84-.85.81.2,1.17.66,1.2,1.6-.1-.04-.21-.05-.25-.11-.61-.98-1.3-1.27-1.98-.82-.68.46-.88,1.73-.34,2.5,1.07,1.52,3.1,1.69,4.38.19,1.64-1.92.65-4.23-.93-5.22-1.66-1.04-3.51-1.19-5.08.04-2.02,1.57-1.97,4.62.23,5.98.95.59,1.2,1.23,1.18,2.26-.05,3.06-.02,6.13-.01,9.2,0,.12.01.24.02.39,1.6,0,3.13,0,4.69,0ZM114.95,231.87c-1.85-3.72-3.7-7.45-5.59-11.16-2.64-5.18-5.27-10.35-7.97-15.49-1.39-2.65-2.91-5.24-4.38-7.84-.75-1.33-1.32-1.48-2.58-.77,1.94,2.61,3.44,5.47,4.92,8.36,4.67,9.14,9.39,18.25,14.07,27.39.57,1.11,1.04,2.28,1.56,3.42.48,1.03,1.32,1.49,2.53,1.33-.86-1.76-1.69-3.5-2.55-5.22ZM153.42,246.81c.48.01.66-.16.65-.62-.01-.87-.02-1.75,0-2.62.05-1.46,1.71-2.43,2.92-1.73.82.47.94,1.37.2,1.94,0-.33.12-.73-.03-.9-.26-.32-.66-.63-1.04-.71-.67-.13-1.16.28-1.42.89-.47,1.12.44,2.51,1.76,2.73,1.56.25,2.91-.32,3.55-1.51.75-1.39.52-3.1-.51-4.25-.65-.73-1.52-.74-2.34-.74-2.35-.02-4.71.06-7.07.09-.6,0-.54.45-.53.81.03,2.13.07,4.27.11,6.4,0,.07-.03.14-.04.23,1.32,0,2.56-.02,3.79,0ZM88.97,191.11c.66.29.95.89,1.03,1.56.21,1.75-.56,2.65-2.67,3.08,0,1.91,0,3.85,0,5.88.25-.31.48-.58.7-.87.99-1.34,2.17-2.47,3.66-3.24.68-.35,1.09-.82,1.06-1.63-.06-1.43.02-2.87-.15-4.28-.24-1.98-2.11-3.62-3.94-3.63-2.45-.02-4.24,2.34-3.54,4.68.32,1.05.7,2.08,1.96,2.39.79.19,1.76-.11,2.15-.69.39-.57.44-1.82,0-2.35-.22-.26-.62-.39-.96-.52-.21-.08-.46-.07-.83-.12.58-.56,1.08-.46,1.55-.26ZM96.37,208.69c.48-1.01.69-2.07.28-3.16-.66-1.75-2.45-2.25-3.91-1.09-.17.14-.32.3-.52.49-.59-.83-1.36-1.18-2.39-1.04-.94.13-1.76.75-2.04,1.68-.31,1.05-.17,2.06.31,3.03.59,1.21,3.15,4.21,4.24,4.95,1.55-1.48,3.1-2.92,4.03-4.87ZM95.44,267.2c2.65,0,5.26,0,7.95,0,.4-1.92.81-3.84,1.21-5.75-3.06.11-6.09.21-9.16.32,0,1.76,0,3.58,0,5.43ZM114.23,174.41c-1.44-.09-1.43-.09-1.9,1.26-1.37,3.97-2.79,7.93-4.12,11.91-.79,2.35-1.03,4.77-.4,7.21.37,1.45,1.16,2.66,2.38,3.53,1.21.86,2.61.81,3.97.54.31-.06.53-.63.85-1.04-1.05-.56-2.03-1.08-3.17-1.68.23,1.11,1.17,1.27,1.73,1.97-1.23-.34-2.18-.9-2.88-1.79-.94-1.22-1.3-2.66-1.45-4.17-.27-2.77.71-5.27,1.61-7.79,1.16-3.23,2.32-6.46,3.48-9.69.02-.06.01-.14.01-.21-.05-.02-.09-.05-.14-.05ZM116.3,258.05c.52-.72.9-1.61,1.1-2.48.27-1.13-.33-2.22-1.2-2.66-.99-.5-1.81-.3-2.88.72-.17-.15-.36-.31-.53-.47-.69-.64-1.52-.67-2.3-.31-.67.3-.97.96-1.09,1.7-.24,1.53.45,2.75,1.34,3.86.82,1.02,1.73,1.96,2.68,3.02,1.01-1.16,2.03-2.2,2.88-3.38ZM149.61,281.79c0,1.65,0,3.14,0,4.78,3.56-.54,7.07-1.28,10.67-.3v-4.63c-3.61-.1-7.13-.25-10.67.16ZM144.8,210.41c.5-.75.73-1.81.75-2.73.01-.81-.52-1.56-1.45-1.8-.85-.22-1.64-.13-2.27.56-.11.12-.2.28-.31.43-.96-1.19-1.79-1.45-2.83-.94-.94.46-1.46,1.84-1.19,3.03.3,1.29,1.14,2.23,1.99,3.16.62.69,1.3,1.31,2.12,2.14,1.11-1.31,2.29-2.48,3.19-3.84ZM130.25,197.21c-.36-.11-.55,0-.71.38-1.7,4.37-3.43,8.73-5.13,13.1-1.5,3.85-2.91,7.74-4.47,11.57-.49,1.21-.43,2.2.47,3.29,3.59-9.35,7.16-18.65,10.76-28.04-.34-.11-.63-.21-.93-.3ZM151.81,249.62c.28,0,.62,0,.83.15.58.4,1.15.27,1.74.09.79-.25,1.21-.8,1.14-1.49-.06-.55-.79-1.13-1.51-1.12-.83.01-1.65.11-2.47.12-3.99.02-7.98,0-11.97.04-.39,0-.99.11-1.13.36-.34.63-.19,1.39.28,1.9.27.29,1,.55,1.26.4,1.22-.76,2.5-.26,3.74-.34.9-.05,1.8-.01,2.7-.01,0-.03,0-.07,0-.1,1.8,0,3.59,0,5.39,0ZM110.27,175.63c-1.48,4.42-2.98,8.83-4.39,13.27-.69,2.15-.84,4.38-.09,6.57.25.74.69,1.43,1.09,2.11.11.19.35.35.57.41.71.21,1.44.37,2.35.6-.55-.62-1.02-1.06-1.38-1.57-1.4-1.99-1.52-4.26-1.25-6.55.38-3.21,1.7-6.15,2.76-9.16.74-2.11,1.48-4.21,2.21-6.32.05-.16.05-.33.07-.54-1.49-.09-1.51-.1-1.93,1.18ZM104.91,191.96c.15-2.04.7-3.98,1.34-5.9,1.25-3.71,2.54-7.4,3.81-11.11.04-.11.06-.23.12-.46-.59.03-1.13.04-1.66.1-.1.01-.22.23-.27.37-1.12,3.5-2.25,6.99-3.34,10.5-.8,2.6-1.71,5.17-1.65,7.96.03,1.53.54,2.86,1.52,3.96.27.31.97.23,1.47.33-1.03-1.88-1.5-3.74-1.35-5.75ZM102.88,192.29c.3-1.99.78-3.97,1.37-5.9,1.17-3.84,2.46-7.64,3.7-11.45.03-.09.03-.18.06-.32-.56.04-1.08.07-1.62.1-.71,2.31-1.42,4.6-2.14,6.9-.82,2.61-1.69,5.21-2.46,7.84-.56,1.91-.89,3.86-.13,5.83.52,1.34,1.28,1.96,2.72,2.11-1.33-1.5-1.78-3.26-1.5-5.1ZM153.12,257.19c-1.43-.21-2.32.99-1.91,2.53.12.46.3.94.58,1.31.81,1.08,1.69,2.11,2.66,3.31.96-1.09,1.87-2.04,2.7-3.07.65-.8.7-1.81.54-2.78-.22-1.32-1.36-1.8-2.49-1.1-.22.14-.42.33-.58.46-.55-.25-1.01-.59-1.5-.66ZM155.49,231.82c.04-1.62-.24-3.09-.84-4.5-1.09-2.55-2.88-4.37-5.62-5.06-1.43-.36-2.91-.34-4.24.38-.67.37-1.21.99-1.76,1.63,2.46-.92,4.81-.9,6.93.65,2.11,1.55,3.16,3.59,2.21,6.31,1.3-.95,2.4-.77,3.32.58ZM99.44,189.72c.89-3.04,1.92-6.04,2.87-9.06.58-1.86,1.12-3.72,1.72-5.71-.53.07-.99.12-1.44.22-.12.03-.27.2-.31.33-1.03,3.47-2.05,6.95-3.08,10.43-.55,1.86-1.2,3.7-1.64,5.58-.39,1.66-.16,3.32,1.07,4.61.45.47,1.23.62,1.86.91.05-.07.09-.15.14-.22-1.97-2.11-1.92-4.58-1.19-7.08ZM99.98,298.9c.69.02,1.07-.33,1.26-.96.37-1.23-.02-2.42-1.04-3.03-.23-.14-.54-.2-.81-.21-1.26-.02-2.53.06-3.78-.03-1.41-.1-2.23.99-2.18,2.37.05,1.47.49,1.85,1.97,1.86.73,0,1.45,0,2.18,0,.8,0,1.6-.02,2.4,0ZM97.53,189.67c1.01-3.26,2.13-6.49,3.16-9.74.41-1.3.73-2.64,1.08-3.96.05-.2.03-.42.05-.63-1.19-.07-1.17,0-1.49,1.11-.85,3-1.75,5.99-2.68,8.97-.57,1.83-1.29,3.62-1.86,5.45-.44,1.44-.35,2.89.2,4.32.41,1.09,1.23,1.31,2.34,1.2-1.73-2.1-1.52-4.41-.8-6.72ZM111.06,234.99c-.89-.64-1.08-.69-1.88.08-1.73,1.68-2.82,3.74-3.27,6.11-.3,1.56-.34,3.12-.06,4.71.88-.09,1.74-.19,2.56-.28-1.14-4.19.04-7.46,3.79-9.76-.41-.31-.77-.6-1.13-.87ZM148.75,246.9c.53,0,.68-.39.66-.85-.07-1.4-.14-2.8-.21-4.2-.03-.51-.06-1.01-.09-1.46h-2.63c-.05,1-.93.47-1.53.65v5.87c1.29,0,2.55.01,3.81,0ZM144.26,293.89c-1.42-.25-2.78-.48-4.25-.74-.58,1.56-.83,3.31-.08,5.08.11.25.52.52.79.53,1.7.05,3.4.02,5.2.02-.82-1.7-1.63-3.26-1.66-4.89ZM87.19,296.85c.3-.03.73-.28.83-.53.35-.87.32-1.79-.27-2.55-.26-.34-.76-.62-1.19-.67-1.08-.11-2.18-.13-3.26-.09-1.56.06-2.61,2.19-1.72,3.49.14.21.52.34.8.35.8.05,1.6.02,2.4.02h0c.8,0,1.61.05,2.4-.02ZM103.21,267.69h-2.83c0,5.15,0,10.25,0,15.05.91-4.84,1.87-9.95,2.83-15.05ZM154.04,286.35c-.89.08-1.79.16-2.73.24,0,1.27-.02,2.46.02,3.65,0,.22.18.51.36.65.75.56,1.53,1.07,2.35,1.63,0-2.05,0-4.05,0-6.16ZM101.3,221.84c-.11.19-.04.57.09.78.54.94,1.12,1.86,1.72,2.83.65-1,1.3-1.99,1.91-3,.1-.17.13-.49.04-.65-.58-.98-1.21-1.92-1.87-2.96-.66,1.04-1.31,2-1.89,3ZM123.25,263.71c-.08.11-.06.38.02.52.6,1.02,1.22,2.02,1.9,3.14.68-1.14,1.32-2.15,1.89-3.2.11-.2.03-.6-.11-.82-.5-.79-1.06-1.55-1.66-2.43-.68.92-1.37,1.84-2.04,2.78ZM158.54,223.57c-.14-.33-.48-.63-.8-.83-.27-.17-.64-.26-.97-.25-.43,0-1.08.01-1.23.26-.24.39-.38,1.16-.15,1.46.63.83,1.41,1.57,2.24,2.2.52.4.85.16,1-.49.04-.16.09-.33.12-.49.02-.14,0-.29,0-.44.01,0,.02,0,.03,0-.07-.48-.06-.99-.24-1.42ZM132.03,221.22c-.08.18-.15.45-.08.6.46.84.96,1.66,1.5,2.58.59-.9,1.17-1.74,1.69-2.6.09-.15.03-.47-.07-.64-.53-.92-1.1-1.82-1.7-2.78-.47.98-.92,1.91-1.35,2.84ZM141.97,263.63c-.58-.87-1.15-1.73-1.76-2.64-.51.84-1.06,1.67-1.53,2.54-.1.17,0,.53.12.73.41.71.87,1.39,1.34,2.14.62-.94,1.21-1.84,1.82-2.78ZM106.52,264.19c.52-.79.56-1.57.08-2.39-.3-.5-.58-1-.95-1.63-.74,1.68-1.2,3.29-1.22,4.99,0,.44.35.88.6,1.47.55-.91,1-1.69,1.49-2.44ZM118.94,215.49c.56-1.13,1.06-2.1,1.53-3.09.04-.09-.02-.29-.1-.38-.45-.54-.92-1.06-1.42-1.63-.74.78-1.33,1.41-1.99,2.11.63.95,1.24,1.88,1.98,2.99ZM89.04,218.68c-.08.13-.06.4.02.54.45.8.93,1.57,1.46,2.44.54-.94,1.05-1.76,1.49-2.63.1-.19,0-.56-.12-.77-.4-.66-.85-1.28-1.35-2.01-.52.83-1.03,1.62-1.5,2.42ZM104.15,258.03c.1-.06.15-.07.16-.11.43-.78,1.21-1.57,1.19-2.35-.02-.77-.83-1.52-1.36-2.39-.54.81-1.06,1.58-1.62,2.42.55.82,1.09,1.62,1.62,2.42ZM155.26,232.43c.03-.76-.6-1.37-1.45-1.4-.85-.02-1.68.57-1.71,1.23-.04.73.62,1.26,1.61,1.3.93.03,1.53-.4,1.56-1.13ZM144.51,250.19c-.01.47,1.46,1.71,2.25,1.93.41.11,2.41-1.29,2.66-1.93-1.68,0-3.29,0-4.91,0ZM146.11,232.91c-.04,1.25.09,2.51.15,3.77.04.82.15,1.65.07,2.46-.08.86-.83,1.14-1.63,1.35,1.21.48,1.98-.43,1.99-2.27.42.05.84.14,1.26.14.76,0,1.31-.37,1.45-1.14.21-1.13.34-2.29.41-3.44.03-.48.27-.66.61-.86.45-.25.87-.55,1.27-.88-1.4.28-2.21,1.34-2.27,2.86-.03.68,0,1.37-.18,2.01-.11.41-.47.95-.83,1.06-.47.15-1.21.1-1.56-.19-.32-.26-.3-.96-.37-1.47-.27-2-.23-3.99.32-5.96-.08-.01-.17-.03-.25-.04-.16.86-.42,1.72-.44,2.58ZM120.48,183.02c-1.19.12-1.1-.89-1.34-1.6-.57.12-1.11.24-1.65.35.08.8.87,1.59,1.9,1.64.83.04,1.67-.15,2.49-.29.21-.04.42-.24.58-.4.58-.6.49-.99-.29-1.31-.22-.09-.44-.16-.76-.28-.07.83.24,1.78-.94,1.89ZM109.63,249.63c1.19-.74,2.42-1.5,3.67-2.28-1.13-.4-2.21-.78-3.34-1.17-.11,1.21-.22,2.33-.33,3.46ZM99.68,212.98c.2,5.46-.29,10.89-.73,16.31.44-5.43,1.53-10.82.73-16.31ZM154.39,218.5c-2.69-2.21-9.47.64-11.48,4.81,2.86-3.88,6.59-5.72,11.48-4.81ZM132.48,247.94c.01-.68-.72-1.24-1.69-1.25-.55,0-.85.37-.9.87-.06.56.86,1.14,1.76,1.16.53,0,.81-.25.82-.79ZM148.55,215.87c.54-.02,1.04-.59,1.04-1.19,0-.59-.55-1.13-1.12-1.11-.55.02-1.11.61-1.1,1.16.02.62.57,1.16,1.18,1.14ZM86.2,221.5c0-.53-.54-1.1-1.07-1.1-.5,0-1.11.63-1.12,1.16-.01.63.39,1.02,1.06,1.01.66,0,1.12-.43,1.12-1.07ZM118.63,264.33c.36.01.83-.62.84-1.13,0-.51-.48-1.02-1-1.03-.53,0-1.08.51-1.08,1.03,0,.61.55,1.11,1.24,1.13ZM90.07,237.42c.54,0,1.07-.53,1.08-1.08.01-.5-.5-1.01-1.04-1.03-.5-.02-1.1.56-1.1,1.06,0,.6.45,1.05,1.06,1.04ZM87.21,214.05c0-.65-.43-1.13-.98-1.11-.59.02-1.06.53-1.04,1.16.02.63.38.9.98.88.69,0,1.05-.32,1.04-.93ZM96.56,239.68c-.03-.53-.53-1.04-1.02-1.05-.58,0-1.07.43-1.07.96,0,.65.4,1.1.98,1.09.62-.01,1.14-.48,1.11-1ZM127.7,253.06c-.75.16-1.03.53-.9,1.14.11.51.73.99,1.16.91.54-.1.83-.6.73-1.3-.04-.28-.11-.56-.19-.91-.34.07-.57.11-.81.16ZM153.82,253.8c0-.46-.52-.95-1-.95-.52,0-1.05.61-1.04,1.19,0,.48.51.9,1.05.88.55-.02,1-.53.99-1.13ZM129.11,234.79c0-.59-.38-.98-.93-.97-.57.01-1.2.61-1.03,1.15.12.38.58.65.88.96.66-.15,1.09-.61,1.08-1.15ZM106.7,229.3c.53-.01.98-.44.98-.96,0-.52-.51-1.1-.96-1.09-.48.01-.97.5-.97.98,0,.58.43,1.07.95,1.06ZM110.43,266.64c.5.03,1.03-.51,1.04-1,.01-.56-.38-.98-.93-.98-.55,0-1.01.49-1.02,1.09,0,.6.37.86.9.89ZM128.44,272.51c.6.03.91-.32.95-.87.05-.78-.31-1.21-.92-1.22-.71,0-.83.45-.82.82,0,.75.09,1.24.79,1.27ZM130.84,228.11c-.59,0-.91.33-.97.86-.05.54.53,1.2.96,1.18.46-.02.91-.6.9-1.23-.05-.46-.27-.81-.89-.81ZM140.77,218.91c.59.03.99-.34,1-.9.01-.61-.35-1.01-.9-1-.56,0-.94.4-.95.96,0,.58.27.91.85.94ZM96.59,216.72c.57.01.99-.37.98-.91,0-.53-.43-.97-.97-.96-.56,0-.88.31-.9.62-.02.86.32,1.24.89,1.25ZM133.07,235.23c.53-.11.85-.46.86-1.02,0-.6-.42-1.02-.92-.99-.47.03-.99.56-.96,1,.03.52.58,1.1,1.03,1ZM123.79,255.28c-.46,0-.95.57-.96,1.09-.01.53.44.96.97.94.48-.02.86-.5.85-1.13-.09-.45-.25-.9-.87-.91ZM139.92,257.44c.46-.05.9-.25.85-.8-.04-.48-.08-1.07-.81-1.07-.61,0-.84.39-.91.82-.01.65.37,1.1.87,1.05ZM136.51,251.48c-.57.02-.82.37-.81.89.01.52.27.92.84.84.51-.07.92-.33.83-1.09.15-.64-.34-.67-.87-.65ZM96.33,222.51c.48-.02.94-.26.98-.87.04-.55-.32-.98-.83-.96-.57.02-.85.37-.96.88.05.52.25.98.8.95ZM106.82,248.79c-.48,0-.91.22-1,.76-.06.39.54.96.99.86.35-.08.64-.42.84-.56,0-.81-.37-1.06-.83-1.06ZM95.9,233.23c.03.26.43.62.71.67.35.07.81-.12.77-.63-.03-.46-.28-.76-1.03-.77-.12.18-.49.48-.46.73ZM156.74,269.25c.31-.08.72-.42.79-.72.1-.46-.35-.75-.77-.71-.27.03-.5.36-.95.71.44.35.75.77.94.72ZM152.68,221.62c.36.05.69-.17.69-.65,0-.64-.56-.62-.93-.68-.17-.03-.41.36-.78.72.43.28.71.57,1.02.62ZM116.75,198.83s0-.06,0-.09c-.48-.21-.96-.42-1.5-.65-.06.18-.12.37-.21.65.65.04,1.18.06,1.7.09ZM152.04,231.64s-.08-.08-.12-.12c-.07.12-.13.24-.2.35l.07.05c.08-.1.17-.19.25-.29Z"/>
            <path class="cls-5" d="M160.92,296.92c-2.69-.9-5.11-2.25-7.3-4.06-1.13-.93-2.37-1.73-3.7-2.67-.02-.01-.05,0-.05.02-.13,3.05-.12,5.91-1.79,8.41-.01.02,0,.04.02.05,4.22.72,8.36,1.13,12.53.72.19-.06.5-.19.69-.5.33-.52.19-1.34-.41-1.96Z"/>
            <path class="cls-1" d="M84.95,258.74c.6.15,1.2.29,1.81.44,0-4.22,0-8.42,0-12.6-.35-.07-.66-.14-.97-.2l.03-.17c2.04.16,4.08.33,6.17.49.07-1.41.51-2.6,1.53-3.62-1.06-.08-2.05-.08-3.01-.23-1.57-.25-3.13-.56-4.68-.94-1.24-.3-2.13-1.17-2.95-2.2,0,17.61,0,35.16,0,52.74h3.99c0-.82,0-1.64,0-2.46,0-8,0-16.01.01-24.01,0-.43.05-.82-.65-.69-.34.07-.75-.21-1.18-.35-.04-.44.15-.49.6-.37,2.58.73,5.16,1.42,7.75,2.12.49.13.99.23,1.59.36,0-1.89,0-3.74,0-5.61-1.65-.34-3.37-.66-5.08-1.07-1.69-.41-3.37-.9-5.05-1.36l.09-.27Z"/>
            <path class="cls-4" d="M103.56,198.63c.05.05.1.1.15.16h-.01c.14.29.26.61.41.9,3.35,6.13,6.72,12.25,10.07,18.38,3.38,6.18,6.4,12.53,9.38,18.9.33.71.64,1.44.96,2.18-.98.31-1.87.31-2.75-.1-1.05-.49-2.12-.93-3.15-1.45-.36-.18-.73-.49-.93-.84-.5-.88-.9-1.81-1.35-2.72-3.18-6.33-6.33-12.68-9.57-18.99-2.67-5.21-5.43-10.38-8.16-15.56-.52-.98-1.07-1.94-1.61-2.91h-.02c.1,0,.2-.03.3-.01,1.15.25,2.32.44,3.45.78.99.29,2.35-.13,2.84,1.29h0ZM110.76,217.42c-.11-.04-.47.23-.46.31.21,1.01.29,2.1,1.13,2.84.25.22.84.47.97.35.28-.24.66-.55.38-1.15-.15-.33.12-.86.23-1.46-.71-.29-1.47-.61-2.25-.88ZM117.03,228.91c-.74.84-.25,2.41,1.05,3.3,1.3-1.74,1.06-2.46-1.05-3.3ZM105,209.46c.53-.11,1-.1,1.34-.31.28-.17.63-.7.55-.9-.21-.49-.63-.91-1.01-1.3-.17-.18-.48-.23-.87-.4v2.9ZM103.19,203.22c.1.03.41-.25.42-.4.12-1.27-.52-2.03-1.76-2.36-.73,1.14.26,2.45,1.34,2.75ZM113.82,224.93c-.11.41.58,1.26.9,1.12.38-.17.76-.56.93-.95.18-.41-.57-1.15-1.27-1.17-.16.27-.45.61-.55,1ZM108.11,212.74c-.57.43-.4.95-.03,1.3.24.22.8.35,1.08.22.57-.26.49-.85.25-1.32-.16-.3-.47-.53-.77-.85-.23.29-.34.52-.52.66ZM119.89,236.6c.22.22.67.42.91.33.5-.17.77-.6.42-1.15-.26-.41-.54-.79-.81-1.19-.86.87-.97,1.55-.52,2Z"/>
            <path class="cls-2" d="M146.76,296.47c0-.62,0-1.23,0-1.85-.03-13.04-.07-26.07-.1-39.11,0-.58-.09-1.18.01-1.75.18-1.06-.34-1.63-1.2-2.04-.3-.14-.59-.29-1.04-.51,0,.66,0,1.18,0,1.7,0,6.84,0,13.67.02,20.51.02,6.49.09,12.98.12,19.48.01,2.32.86,4.34,2.08,6.25.06.1.16.18.22.28.05.1.07.21.14.42,1.12-2,2.2-3.94,2.24-6.22.06-3.74.02-7.48.03-11.22.02-7.22.06-14.44.07-21.66,0-2.97-.06-5.93-.09-8.9,0-.16-.02-.32-.04-.59-.7.37-1.36.67-1.96,1.05-.16.1-.2.46-.2.71,0,9.27,0,18.54,0,27.81,0,4.96,0,9.93,0,14.89,0,.25,0,.51,0,.76-.1,0-.21,0-.31,0Z"/>
            <path class="cls-1" d="M129.26,279.91c.6.09,1.11.16,1.62.24,0,.6,0,1.2,0,1.82-.59,0-1.12.02-1.65,0-4.85-.25-9.7-.57-14.55-.74-3.81-.13-7.63-.04-11.38.77-.8.17-1.54.55-2.31.84,0,0,.01,0,.01,0,.11-1.03.15-2.07.36-3.08.18-.86.47-1.72.87-2.5.46-.9,1.09-1.71,1.64-2.56,1.12-1.72,2.23-3.44,3.43-5.28,1.1,2.15,2.13,4.16,3.2,6.25,1.57-2.84,3.1-5.61,4.71-8.51,1.39,2.91,2.7,5.65,4.02,8.4,1.12-2.02,2.23-4,3.4-6.11,1.82,3.02,3.59,5.95,5.4,8.95.97-1.44,1.91-2.83,2.87-4.26,0,.48,0,.94,0,1.4-.02.86-.05,1.72-.08,2.59-.51.57-1.01,1.15-1.57,1.78ZM114.99,271.93c-1.49,2.53-2.9,4.93-4.33,7.36,2.75,0,5.42,0,8.25,0-1.3-2.45-2.57-4.83-3.92-7.36ZM106.93,273.63c-1.48,2.12-2.95,4.22-4.54,6.5,2.69-.3,5.18-.58,7.73-.87-1.05-1.85-2.1-3.71-3.19-5.64ZM122.77,273.75c-1.19,1.89-2.33,3.71-3.5,5.56,2.33.19,4.66.38,7.23.59-1.32-2.17-2.52-4.15-3.73-6.15Z"/>
            <path class="cls-2" d="M144.21,287.32c0-1.58,0-3.06,0-4.52-2.73,0-5.44,0-8.27,0-.08-.91-.17-1.87-.26-2.82-.59-6.18-1.28-12.35-2.64-18.41-.61-2.74-1.62-5.33-3.34-7.6-.1-.13-.21-.25-.46-.56.17.85.29,1.49.41,2.12.12.64.27,1.28.35,1.93.3,2.54.74,5.09.84,7.64.24,6.02.32,12.05.45,18.08.02.95-.05,1.89-.1,2.84-.02.47.1.7.63.86,2.82.82,5.68,1.25,8.61.95,1.25-.13,2.48-.33,3.78-.51Z"/>
            <path class="cls-4" d="M136.27,200.08c-.05.07-.12.14-.15.22-1.6,4.02-3.18,8.05-4.79,12.07-2.59,6.5-5.19,13-7.85,19.66-1-2.12-1.93-4.06-2.84-6.02-.07-.14-.01-.37.05-.53,1.77-4.6,3.55-9.2,5.32-13.8,1.16-3.01,2.3-6.02,3.46-9.03.64-1.65,1.29-3.3,1.97-5.04,1.72.59,3.36,1.16,4.97,1.71-.07.36-.11.57-.14.78h0ZM124.75,219.16c-.32.29-.47,2.03-.17,2.35.12.12.47.2.59.12.82-.54,1.63-1.11,1.17-2.57-.1-.32-.16-.64-.26-1.05-.51.44-.93.79-1.34,1.16ZM122.13,227.98c.06.22.28.45.49.54.1.04.39-.18.5-.35.61-.97.95-1.98.34-3.14-1.37.78-1.73,1.57-1.33,2.94ZM130.42,206.9c-1.74,1.15-2.21,1.64-1.19,3.12,1.91-.67,1.59-.97,1.19-3.12ZM131.26,202.56c-.05.25.11.65.31.8.16.12.59.06.8-.08.68-.44.82-1.16.81-1.91,0-.26-.1-.52-.19-.92-.88.54-1.55,1.14-1.73,2.11ZM127.27,215.18c.26.26.59.36.95,0,.67-.67.62-1.24-.26-2.11-.88.74-1.17,1.61-.68,2.11Z"/>
            <path class="cls-2" d="M100.99,282.84s.01,0,.01,0c-.21.55-.55,1.09-.59,1.66-.09,1.13-.03,2.27-.03,3.36,1.09-.29,2.21-.73,3.36-.87,2.38-.29,4.78-.56,7.17-.57,4.13-.02,8.26.13,12.38.29,2.13.08,4.25.35,6.38.52.33.03.67,0,1.11,0,0-1.58,0-3.13,0-4.78-.43-.04-.95-.11-1.47-.14-3.51-.24-7.02-.59-10.54-.66-3.91-.08-7.82,0-11.72.21-1.94.1-3.86.66-5.78,1-.09.02-.19,0-.29,0Z"/>
            <path class="cls-5" d="M123.94,292.61c.94-.88,2.12-1.09,3.44-1.16-.22-.62-.36-1.23-.65-1.76-.13-.23-.56-.36-.87-.39-1.61-.14-2.86.54-3.84,1.79-.46.59-.96,1.16-1.46,1.72-.87.97-2.65,1.46-3.89.48-.09-.07-.47.03-.52.14-.8,1.66-.93,3.38-.23,5.11.08.2.5.36.76.36,1.77,0,3.53.04,5.27.47,1.68.41,3.38.82,5.09,1.06,2.72.39,5.46.42,8.19-.08,1-.18,1.33-.9.71-1.7-.48-.61-1.13-1.13-1.8-1.53-2.13-1.28-4.15-2.72-5.84-4.55-.72-.78-1.5-.77-2.37-.58-.67.15-1.32.4-1.98.61Z"/>
            <path class="cls-1" d="M99.74,267.72h-4.62c0,8.83,0,17.62,0,26.44,1.54,0,3.06,0,4.62,0,0-8.77,0-17.58,0-26.44Z"/>
            <path class="cls-1" d="M144.28,279c0-1.36,0-2.72,0-4.08,0-.16-.03-.35-.12-.48-.92-1.38-1.86-2.75-2.9-4.27-1.07,2.77-2.1,5.42-3.1,8.03-.13-.85-.28-1.8-.43-2.75-.82-5.06-1.58-10.12-2.51-15.16-.53-2.88-1.76-5.51-3.47-7.9-.49-.68-2.84-2.58-3.74-2.97-.19.76.19,1.34.55,1.94,1.43,2.39,3.07,4.66,3.99,7.33.98,2.86,1.54,5.81,1.97,8.79.33,2.33.68,4.65.97,6.98.25,2.07.43,4.15.64,6.22.06.6.1,1.21.16,1.94,2.65-.08,5.28-.16,7.99-.24,0-.77,0-1.44,0-2.11-1.69,0-3.38,0-5.13,0,.79-1.71,1.62-3.52,2.46-5.35.93,1.43,1.8,2.76,2.67,4.09Z"/>
            <path class="cls-1" d="M105.45,166.87c.25.22.41.36.56.51.9.83.95,2.16.11,3.09-1.45,1.6-3.71,1.79-5.41.43-1-.79-1.08-1.34-.4-2.59-.58-.53-1.28-.65-2.07-.38.79,2.33,1.58,4.66,2.37,6.97,7.89-1.47,15.88-1.11,23.9-.51.81-2.24,1.61-4.47,2.43-6.75-.51-.44-1.41-.38-2.52.31.15.33.29.67.48,1,.33.58.03,1.66-.65,2.19-1.14.9-2.36.63-3.13-.64-.61.23-1.21.65-1.79.64-.62-.01-1.35-.31-1.81-.73-1.03-.96-.86-2.01.45-3.52-1.14-.08-2.23-.16-3.47-.25.17.36.28.63.41.89.77,1.56.5,3.12-1.42,3.66-1.7.49-3.34.45-4.67-.84-.81-.78-1.1-1.79-.69-2.93.06-.17-.1-.59-.25-.65-.76-.28-1.55-.31-2.42.1Z"/>
            <path class="cls-1" d="M95.42,261.21c1.6,0,3.13,0,4.69,0,0-3.93,0-7.81,0-11.72-.65.21-1.26.51-1.89.61-1.04.16-2.04-.2-2.7-.95-.77-.87-.94-1.97-.35-3.08.36-.68,1.11-1.03,1.84-.85.81.2,1.17.66,1.2,1.6-.1-.04-.21-.05-.25-.11-.61-.98-1.3-1.27-1.98-.82-.68.46-.88,1.73-.34,2.5,1.07,1.52,3.1,1.69,4.38.19,1.64-1.92.65-4.23-.93-5.22-1.66-1.04-3.51-1.19-5.08.04-2.02,1.57-1.97,4.62.23,5.98.95.59,1.2,1.23,1.18,2.26-.05,3.06-.02,6.13-.01,9.2,0,.12.01.24.02.39Z"/>
            <path class="cls-2" d="M112.88,207.3c.16.05.33.1.49.15.65-.76,1.3-1.53,1.99-2.34.96,1.18,1.7,2.09,2.44,3,.31,0,.63,0,.94-.01.46-.99.92-1.99,1.37-2.95.94.73,1.78,1.38,2.63,2.03.09,0,.17-.01.26-.02.29-1.33.58-2.67.92-4.23.76.8,1.38,1.45,2,2.1,1.04-2.65,2.07-5.3,3.1-7.91-.9-.32-1.8-.65-2.79-1.01.27,1.08-.02,2.01-.72,2.64-.66.59-1.57.92-2.37,1.36h0c-.05.12-.07.27-.15.35-1.31,1.37-2.64,2.71-3.92,4.1-.53.57-.95.66-1.69.29-3.05-1.52-5.87-3.39-8.63-5.35-.39-.28-.75-.61-1.08-.97-.38-.4-.72-.42-1.29.06,1.15,2.25,2.31,4.53,3.47,6.8.49-.68.98-1.36,1.46-2.04.09.03.19.06.28.08.43,1.29.86,2.57,1.29,3.86Z"/>
            <path class="cls-5" d="M117.5,237.09c-.86-1.76-1.69-3.5-2.55-5.22-1.85-3.72-3.7-7.45-5.59-11.16-2.64-5.18-5.27-10.35-7.97-15.49-1.39-2.65-2.91-5.24-4.38-7.84-.75-1.33-1.32-1.48-2.58-.77,1.94,2.61,3.44,5.47,4.92,8.36,4.67,9.14,9.39,18.25,14.07,27.39.57,1.11,1.04,2.28,1.56,3.42.48,1.03,1.32,1.49,2.53,1.33Z"/>
            <path class="cls-1" d="M83.78,233.71c.3-.27.32-.5.02-.79-.82-.79-1.62-1.59-2.43-2.38-.06-1.13-.12-2.26-.18-3.54,1.24,1.55,2.34,2.93,3.47,4.34.88-2.45,1.72-4.82,2.58-7.24,1.56,1.71,3.03,3.32,4.52,4.97.9-1.84,1.78-3.63,2.66-5.45,1.87,1.92,3.1,4.17,4.33,6.49-.14.02-.22.04-.31.04-2.46-.07-4.78.62-7.1,1.32-3.03.92-5.74,2.39-8.05,4.58-.36.34-.59.81-.95,1.31-.16-.72-.3-1.33-.43-1.94.62-.57,1.24-1.15,1.86-1.71ZM87.87,227.41c-.57,1.64-1.07,3.1-1.62,4.68,1.42-.65,2.72-1.25,4.14-1.9-.84-.92-1.62-1.79-2.52-2.78ZM96.81,229c-.76-.86-1.41-1.61-2.15-2.45-.34.96-.64,1.79-.96,2.67,1.05.43,1.97-.29,3.11-.22Z"/>
            <path class="cls-5" d="M103.7,198.78c.19.24.43.45.57.71,3.16,5.7,6.34,11.39,9.45,17.11,3.69,6.79,7.08,13.72,10.26,20.76.32.7.69,1.38,1.05,2.11h1.56c-3.14-7.01-6.51-13.89-10.01-20.7-3.5-6.82-7.61-13.32-11.01-20.37h.79c-.96-.93-2.03-.52-3.02-.81.09.44.15.75.21,1.06,0,0,0,0,0,0,.05.05.1.1.15.16h-.01Z"/>
            <path class="cls-1" d="M149.63,246.8c1.32,0,2.56-.02,3.79,0,.48.01.66-.16.65-.62-.01-.87-.02-1.75,0-2.62.05-1.46,1.71-2.43,2.92-1.73.82.47.94,1.37.2,1.94,0-.33.12-.73-.03-.9-.26-.32-.66-.63-1.04-.71-.67-.13-1.16.28-1.42.89-.47,1.12.44,2.51,1.76,2.73,1.56.25,2.91-.32,3.55-1.51.75-1.39.52-3.1-.51-4.25-.65-.73-1.52-.74-2.34-.74-2.35-.02-4.71.06-7.07.09-.6,0-.54.45-.53.81.03,2.13.07,4.27.11,6.4,0,.07-.03.14-.04.23Z"/>
            <path class="cls-1" d="M87.42,191.37c.58-.56,1.08-.46,1.55-.26.66.29.95.89,1.03,1.56.21,1.75-.56,2.65-2.67,3.08,0,1.91,0,3.85,0,5.88.25-.31.48-.58.7-.87.99-1.34,2.17-2.47,3.66-3.24.68-.35,1.09-.82,1.06-1.63-.06-1.43.02-2.87-.15-4.28-.24-1.98-2.11-3.62-3.94-3.63-2.45-.02-4.24,2.34-3.54,4.68.32,1.05.7,2.08,1.96,2.39.79.19,1.76-.11,2.15-.69.39-.57.44-1.82,0-2.35-.22-.26-.62-.39-.96-.52-.21-.08-.46-.07-.83-.12Z"/>
            <path class="cls-5" d="M99.93,243.34c.41.7.82,1.41,1.25,2.1.08.13.25.27.39.29,1.26.13,2.53.22,3.84.33-.79-4.98.86-8.83,4.47-12.07-1.19-.34-2.43-.69-3.67-1.04-.52.26-1.11.45-1.56.81-1.42,1.16-2.54,2.57-3.27,4.26-.73,1.7-1.28,3.46-1.45,5.31Z"/>
            <path class="cls-5" d="M92.35,213.56c1.55-1.48,3.1-2.92,4.03-4.87.48-1.01.69-2.07.28-3.16-.66-1.75-2.45-2.25-3.91-1.09-.17.14-.32.3-.52.49-.59-.83-1.36-1.18-2.39-1.04-.94.13-1.76.75-2.04,1.68-.31,1.05-.17,2.06.31,3.03.59,1.21,3.15,4.21,4.24,4.95Z"/>
            <path class="cls-1" d="M149.73,279.77c-.03.57-.06,1.15-.09,1.57,3.53,0,7.01,0,10.61,0-.05-.55-.1-1.13-.15-1.71h-3.07c.94-1.72,1.75-3.22,2.56-4.72-.23-1.02-.47-2.04-.7-3.05-.06.01-.12.02-.18.04-.8,1.72-1.61,3.45-2.46,5.28-1.48-2.79-2.9-5.45-4.38-8.25-.55,1.49-.98,2.91-1.58,4.25-.86,1.93-.47,3.95-.58,5.93.8-1.75,1.6-3.51,2.44-5.35,1.14,1.98,2.23,3.86,3.3,5.72-1.89.08-3.69.16-5.49.25-.07,0-.14.03-.21.04Z"/>
            <path class="cls-5" d="M136.27,200.08c-.12.44-.19.89-.35,1.31-3.22,8.14-6.46,16.27-9.7,24.4-.78,1.95-1.56,3.91-2.38,5.85-.4.94.38,1.45.78,2.17.52-1.3,1.04-2.6,1.57-3.89,1.23-2.97,2.5-5.93,3.69-8.91,1.57-3.93,3.08-7.88,4.63-11.82.99-2.52,2.01-5.04,3.01-7.56.07-.18.14-.36.19-.55q.36-1.23-.92-1.69c-.18.23-.36.47-.53.7h0Z"/>
            <path class="cls-1" d="M95.44,261.77c0,1.76,0,3.58,0,5.43,2.65,0,5.26,0,7.95,0,.4-1.92.81-3.84,1.21-5.75-3.06.11-6.09.21-9.16.32Z"/>
            <path class="cls-4" d="M114.37,174.46c-.05-.02-.09-.05-.14-.05-1.44-.09-1.43-.09-1.9,1.26-1.37,3.97-2.79,7.93-4.12,11.91-.79,2.35-1.03,4.77-.4,7.21.37,1.45,1.16,2.66,2.38,3.53,1.21.86,2.61.81,3.97.54.31-.06.53-.63.85-1.04-1.05-.56-2.03-1.08-3.17-1.68.23,1.11,1.17,1.27,1.73,1.97-1.23-.34-2.18-.9-2.88-1.79-.94-1.22-1.3-2.66-1.45-4.17-.27-2.77.71-5.27,1.61-7.79,1.16-3.23,2.32-6.46,3.48-9.69.02-.06.01-.14.01-.21Z"/>
            <path class="cls-5" d="M113.42,261.43c1.01-1.16,2.03-2.2,2.88-3.38.52-.72.9-1.61,1.1-2.48.27-1.13-.33-2.22-1.2-2.66-.99-.5-1.81-.3-2.88.72-.17-.15-.36-.31-.53-.47-.69-.64-1.52-.67-2.3-.31-.67.3-.97.96-1.09,1.7-.24,1.53.45,2.75,1.34,3.86.82,1.02,1.73,1.96,2.68,3.02Z"/>
            <path class="cls-2" d="M160.28,281.63c-3.61-.1-7.13-.25-10.67.16,0,1.65,0,3.14,0,4.78,3.56-.54,7.07-1.28,10.67-.3v-4.63Z"/>
            <path class="cls-5" d="M141.61,214.25c1.11-1.31,2.29-2.48,3.19-3.84.5-.75.73-1.81.75-2.73.01-.81-.52-1.56-1.45-1.8-.85-.22-1.64-.13-2.27.56-.11.12-.2.28-.31.43-.96-1.19-1.79-1.45-2.83-.94-.94.46-1.46,1.84-1.19,3.03.3,1.29,1.14,2.23,1.99,3.16.62.69,1.3,1.31,2.12,2.14Z"/>
            <path class="cls-5" d="M131.17,197.51c-.34-.11-.63-.21-.93-.3-.36-.11-.55,0-.71.38-1.7,4.37-3.43,8.73-5.13,13.1-1.5,3.85-2.91,7.74-4.47,11.57-.49,1.21-.43,2.2.47,3.29,3.59-9.35,7.16-18.65,10.76-28.04Z"/>
            <path class="cls-1" d="M146.42,249.62c1.8,0,3.59,0,5.39,0,.28,0,.62,0,.83.15.58.4,1.15.27,1.74.09.79-.25,1.21-.8,1.14-1.49-.06-.55-.79-1.13-1.51-1.12-.83.01-1.65.11-2.47.12-3.99.02-7.98,0-11.97.04-.39,0-.99.11-1.13.36-.34.63-.19,1.39.28,1.9.27.29,1,.55,1.26.4,1.22-.76,2.5-.26,3.74-.34.9-.05,1.8-.01,2.7-.01,0-.03,0-.07,0-.1Z"/>
            <path class="cls-4" d="M112.2,174.45c-1.49-.09-1.51-.1-1.93,1.18-1.48,4.42-2.98,8.83-4.39,13.27-.69,2.15-.84,4.38-.09,6.57.25.74.69,1.43,1.09,2.11.11.19.35.35.57.41.71.21,1.44.37,2.35.6-.55-.62-1.02-1.06-1.38-1.57-1.4-1.99-1.52-4.26-1.25-6.55.38-3.21,1.7-6.15,2.76-9.16.74-2.11,1.48-4.21,2.21-6.32.05-.16.05-.33.07-.54Z"/>
            <path class="cls-4" d="M138.74,245.73c-.4-.09-.8-.16-1.19-.26-3.45-.87-6.6-2.4-9.52-4.42-.47-.32-.87-.74-1.3-1.11,2.37-.14,4.63-.16,6.89-.12.27,0,.55.21.79.39.87.64,1.72,1.31,2.58,1.96v-.02c.24.15.48.3.73.44h0c.78.39,1.56.78,2.34,1.17h0c.49.19.98.39,1.47.58h0c.49.14.98.29,1.47.44h-.02c.53.17,1.06.35,1.59.52,0,.17,0,.29,0,.41-.01.84-.12.88-.96.68-.7-.17-1.43-.23-2.15-.34-.9-.11-1.8-.21-2.7-.32ZM131.54,240.64c-.26-.09-.62.12-.94.2.13.33.16.81.41.96.41.26.94.4,1.42.41.22,0,.45-.42.73-.72-.65-.36-1.11-.69-1.63-.86ZM136.91,243.34c-.44-.14-.98-.48-1.33.19.43.88,1.39,1.33,2.49,1.12,0-.83-.56-1.12-1.16-1.31Z"/>
            <path class="cls-4" d="M106.27,197.71c-1.03-1.88-1.5-3.74-1.35-5.75.15-2.04.7-3.98,1.34-5.9,1.25-3.71,2.54-7.4,3.81-11.11.04-.11.06-.23.12-.46-.59.03-1.13.04-1.66.1-.1.01-.22.23-.27.37-1.12,3.5-2.25,6.99-3.34,10.5-.8,2.6-1.71,5.17-1.65,7.96.03,1.53.54,2.86,1.52,3.96.27.31.97.23,1.47.33Z"/>
            <path class="cls-4" d="M104.39,197.39c-1.33-1.5-1.78-3.26-1.5-5.1.3-1.99.78-3.97,1.37-5.9,1.17-3.84,2.46-7.64,3.7-11.45.03-.09.03-.18.06-.32-.56.04-1.08.07-1.62.1-.71,2.31-1.42,4.6-2.14,6.9-.82,2.61-1.69,5.21-2.46,7.84-.56,1.91-.89,3.86-.13,5.83.52,1.34,1.28,1.96,2.72,2.11Z"/>
            <path class="cls-5" d="M154.63,257.86c-.55-.25-1.01-.59-1.5-.66-1.43-.21-2.32.99-1.91,2.53.12.46.3.94.58,1.31.81,1.08,1.69,2.11,2.66,3.31.96-1.09,1.87-2.04,2.7-3.07.65-.8.7-1.81.54-2.78-.22-1.32-1.36-1.8-2.49-1.1-.22.14-.42.33-.58.46Z"/>
            <path class="cls-5" d="M152.17,231.23c1.3-.95,2.4-.77,3.32.58.04-1.62-.24-3.09-.84-4.5-1.09-2.55-2.88-4.37-5.62-5.06-1.43-.36-2.91-.34-4.24.38-.67.37-1.21.99-1.76,1.63,2.46-.92,4.81-.9,6.93.65,2.11,1.55,3.16,3.59,2.21,6.31Z"/>
            <path class="cls-4" d="M100.63,196.81c-1.97-2.11-1.92-4.58-1.19-7.08.89-3.04,1.92-6.04,2.87-9.06.58-1.86,1.12-3.72,1.72-5.71-.53.07-.99.12-1.44.22-.12.03-.27.2-.31.33-1.03,3.47-2.05,6.95-3.08,10.43-.55,1.86-1.2,3.7-1.64,5.58-.39,1.66-.16,3.32,1.07,4.61.45.47,1.23.62,1.86.91.05-.07.09-.15.14-.22Z"/>
            <path class="cls-4" d="M102.29,196.99c-1.7-2.08-1.76-4.44-1.05-6.86,1.03-3.55,2.17-7.07,3.27-10.61.48-1.56.96-3.12,1.44-4.68h-1.49c-.66,2.18-1.28,4.3-1.94,6.41-.87,2.77-1.78,5.53-2.63,8.3-.47,1.54-.78,3.13-.24,4.7.29.84.78,1.64,1.31,2.36.23.31.8.35,1.22.52.03-.05.07-.09.1-.14Z"/>
            <path class="cls-1" d="M97.58,298.9c.8,0,1.6-.01,2.4,0,.69.02,1.07-.33,1.26-.96.37-1.23-.02-2.42-1.04-3.03-.23-.14-.54-.2-.81-.21-1.26-.02-2.53.06-3.78-.03-1.41-.1-2.23.99-2.18,2.37.05,1.47.49,1.85,1.97,1.86.73,0,1.45,0,2.18,0Z"/>
            <path class="cls-5" d="M123.15,200.1c.03-.11.05-.23.07-.31-.84-.19-1.67-.41-2.52-.55-.19-.03-.5.16-.61.34-.44.72-.82,1.48-1.23,2.21-.15.27-.34.52-.56.86-3.05-1.99-6.08-3.91-9.92-3.92.11.13.19.26.31.34,2.81,1.99,5.66,3.92,8.75,5.46.56.28.93.31,1.39-.2,1.1-1.22,2.26-2.4,3.42-3.57.26-.26.6-.44.9-.66,0,0,0,0,0,0Z"/>
            <path class="cls-4" d="M98.33,196.39c-1.73-2.1-1.52-4.41-.8-6.72,1.01-3.26,2.13-6.49,3.16-9.74.41-1.3.73-2.64,1.08-3.96.05-.2.03-.42.05-.63-1.19-.07-1.17,0-1.49,1.11-.85,3-1.75,5.99-2.68,8.97-.57,1.83-1.29,3.62-1.86,5.45-.44,1.44-.35,2.89.2,4.32.41,1.09,1.23,1.31,2.34,1.2Z"/>
            <path class="cls-2" d="M112.2,235.86c-.41-.31-.77-.6-1.13-.87-.89-.64-1.08-.69-1.88.08-1.73,1.68-2.82,3.74-3.27,6.11-.3,1.56-.34,3.12-.06,4.71.88-.09,1.74-.19,2.56-.28-1.14-4.19.04-7.46,3.79-9.76Z"/>
            <path class="cls-2" d="M144.94,246.91c1.29,0,2.55.01,3.81,0,.53,0,.68-.39.66-.85-.07-1.4-.14-2.8-.21-4.2-.03-.51-.06-1.01-.09-1.46h-2.63c-.05,1-.93.47-1.53.65v5.87Z"/>
            <path class="cls-5" d="M145.92,298.78c-.82-1.7-1.63-3.26-1.66-4.89-1.42-.25-2.78-.48-4.25-.74-.58,1.56-.83,3.31-.08,5.08.11.25.52.52.79.53,1.7.05,3.4.02,5.2.02Z"/>
            <path class="cls-1" d="M84.79,296.88c.8,0,1.61.05,2.4-.03.3-.03.73-.28.83-.53.35-.87.32-1.79-.27-2.55-.26-.34-.76-.62-1.19-.67-1.08-.11-2.18-.13-3.26-.09-1.56.06-2.61,2.19-1.72,3.49.14.21.52.34.8.35.8.05,1.6.02,2.4.02h0Z"/>
            <path class="cls-5" d="M138.82,245.97c-4.11-.76-7.8-2.49-11.19-4.91-.44-.32-.82-.74-1.23-1.1-.09-.08-.22-.16-.33-.16-.75-.01-1.5,0-2.25,0-.04.07-.08.14-.13.21,1.26.95,2.49,1.93,3.78,2.83,3.02,2.11,6.4,3.42,10,4.12.96.19,2.01-.04,3.02-.08-.56-.3-1.12-.6-1.68-.9Z"/>
            <path class="cls-1" d="M143.6,239.23c-.05.05-.1.1-.16.14q-1.02.87-2.16.1c-.09-.06-.21-.13-.32-.13-1.45,0-2.9,0-4.39.15,2.11,2.36,4.85,3.49,7.93,4.31-.2-1.45.41-2.88-.5-4.16-.13-.14-.26-.27-.39-.41Z"/>
            <path class="cls-1" d="M99.93,243.34c.18-1.85.72-3.61,1.45-5.31.73-1.69,1.86-3.1,3.27-4.26.44-.36,1.03-.54,1.56-.81-.52-.2-1.05-.4-1.57-.6-.06,0-.12.01-.18.02-1.48.91-2.78,2-3.75,3.45-1.27,1.92-1.91,4.05-2.16,6.31-.02.16.13.4.27.51.35.26.74.46,1.11.69Z"/>
            <path class="cls-5" d="M149.73,279.77c.07-.02.14-.04.21-.04,1.8-.08,3.6-.16,5.49-.25-1.07-1.86-2.16-3.75-3.3-5.72-.84,1.84-1.64,3.59-2.44,5.35.01.22.02.45.03.67Z"/>
            <path class="cls-5" d="M144.28,279c-.87-1.33-1.73-2.66-2.67-4.09-.84,1.83-1.68,3.64-2.46,5.35,1.76,0,3.44,0,5.13,0,0-.42,0-.84,0-1.26Z"/>
            <path class="cls-1" d="M154.04,292.51c0-2.05,0-4.05,0-6.16-.89.08-1.79.16-2.73.24,0,1.27-.02,2.46.02,3.65,0,.22.18.51.36.65.75.56,1.53,1.07,2.35,1.63Z"/>
            <path class="cls-5" d="M103.18,218.84c-.66,1.04-1.31,2-1.89,3-.11.19-.04.57.09.78.54.94,1.12,1.86,1.72,2.83.65-1,1.3-1.99,1.91-3,.1-.17.13-.49.04-.65-.58-.98-1.21-1.92-1.87-2.96Z"/>
            <path class="cls-5" d="M125.29,260.93c-.68.92-1.37,1.84-2.04,2.78-.08.11-.06.38.02.52.6,1.02,1.22,2.02,1.9,3.14.68-1.14,1.32-2.15,1.89-3.2.11-.2.03-.6-.11-.82-.5-.79-1.06-1.55-1.66-2.43Z"/>
            <path class="cls-5" d="M158.79,224.99c-.07-.48-.06-.99-.24-1.42-.14-.33-.48-.63-.8-.83-.27-.17-.64-.26-.97-.25-.43,0-1.08.01-1.23.26-.24.39-.38,1.16-.15,1.46.63.83,1.41,1.57,2.24,2.2.52.4.85.16,1-.49.04-.16.09-.33.12-.49.02-.14,0-.29,0-.44.01,0,.02,0,.03,0Z"/>
            <path class="cls-5" d="M133.38,218.37c-.47.98-.92,1.91-1.35,2.84-.08.18-.15.45-.08.6.46.84.96,1.66,1.5,2.58.59-.9,1.17-1.74,1.69-2.6.09-.15.03-.47-.07-.64-.53-.92-1.1-1.82-1.7-2.78Z"/>
            <path class="cls-4" d="M117.27,248.59c.83.48,1.63,1.01,2.5,1.41.77.35,1.02.22,1.48-.3.78.34,1.51.72,2.29.96.34.1.77-.09,1.16-.14.25-.03.5-.1.74-.08.92.11,1.48-.37,1.52-1.31.05-1.18-.46-2.19-1.09-3.09-.87-1.24-1.91-2.38-2.89-3.54-.11-.13-.3-.19-.54-.15.64.69,1.36,1.32,1.89,2.09.8,1.15,1.51,2.37,2.17,3.61.2.37.16.9.14,1.35-.02.51-.35.74-.87.79-.5.05-.66-.15-.87-.6-.46-1-.97-2-1.62-2.87-1.01-1.34-2.23-2.47-3.7-3.31-.05.04-.1.09-.14.13.12.08.24.15.35.24,1.73,1.35,3.32,2.83,4.43,4.76.17.29.31.6.38.93.18.79-.3,1.22-1.08.97-.45-.15-.89-.36-1.32-.56-.49-.23-.78-.56-1.01-1.11-.71-1.72-2.02-2.94-3.6-3.87-.05.05-.09.1-.14.14.34.26.74.48,1.02.8.83.94,1.63,1.9,2.39,2.89.14.19.16.74.04.81-.28.18-.75.33-1.03.22-.86-.36-1.67-.85-2.49-1.29-.04.05-.07.1-.11.15Z"/>
            <path class="cls-5" d="M142.96,244.78c.47.04.94.08,1.46.12v-.76c-2.81-.58-5.28-1.8-7.48-3.57-.47-.38-.91-.78-1.61-.62-.21.05-.46-.08-.78,0,.61.53,1.23,1.05,1.83,1.58.22.19.4.42.6.63,0,0,0-.02,0-.02.24.15.48.3.73.44,0,0,0,0,0,0,.78.39,1.56.78,2.34,1.17h0c.49.19.98.39,1.47.58,0,0,0,0,0,0,.49.15.98.3,1.47.44h-.02Z"/>
            <path class="cls-5" d="M140.15,266.41c.62-.94,1.21-1.84,1.82-2.78-.58-.87-1.15-1.73-1.76-2.64-.51.84-1.06,1.67-1.53,2.54-.1.17,0,.53.12.73.41.71.87,1.39,1.34,2.14Z"/>
            <path class="cls-5" d="M105.03,266.63c.55-.91,1-1.69,1.49-2.44.52-.79.56-1.57.08-2.39-.3-.5-.58-1-.95-1.63-.74,1.68-1.2,3.29-1.22,4.99,0,.44.35.88.6,1.47Z"/>
            <path class="cls-2" d="M116.96,212.5c.63.95,1.24,1.88,1.98,2.99.56-1.13,1.06-2.1,1.53-3.09.04-.09-.02-.29-.1-.38-.45-.54-.92-1.06-1.42-1.63-.74.78-1.33,1.41-1.99,2.11Z"/>
            <path class="cls-2" d="M90.54,216.25c-.52.83-1.03,1.62-1.5,2.42-.08.13-.06.4.02.54.45.8.93,1.57,1.46,2.44.54-.94,1.05-1.76,1.49-2.63.1-.19,0-.56-.12-.77-.4-.66-.85-1.28-1.35-2.01Z"/>
            <path class="cls-2" d="M102.53,255.61c.55.82,1.09,1.62,1.62,2.42.1-.06.15-.07.16-.11.43-.78,1.21-1.57,1.19-2.35-.02-.77-.83-1.52-1.36-2.39-.54.81-1.06,1.58-1.62,2.42Z"/>
            <path class="cls-5" d="M159.59,274.9c-.81,1.5-1.63,3-2.56,4.72h3.07c-.17-1.57-.34-3.15-.5-4.72Z"/>
            <path class="cls-5" d="M125.93,205.03c-.62-.65-1.24-1.3-2-2.1-.34,1.57-.63,2.9-.92,4.23.89-.32,1.81-.58,2.64-1,.23-.12.19-.74.28-1.13Z"/>
            <path class="cls-5" d="M81.92,235.42c.62-.57,1.24-1.15,1.86-1.71.3-.27.32-.5.02-.79-.82-.79-1.62-1.59-2.43-2.38.07,1.11.12,2.23.23,3.34.05.52.21,1.02.32,1.54Z"/>
            <path class="cls-1" d="M153.7,233.57c.93.03,1.53-.4,1.56-1.13.03-.76-.6-1.37-1.45-1.4-.85-.02-1.68.57-1.71,1.23-.04.73.62,1.26,1.61,1.3Z"/>
            <path class="cls-1" d="M149.42,250.19c-1.68,0-3.29,0-4.91,0-.01.47,1.46,1.71,2.25,1.93.41.11,2.41-1.29,2.66-1.93Z"/>
            <path class="cls-5" d="M112.88,207.3c-.43-1.29-.86-2.57-1.29-3.86-.09-.03-.19-.06-.28-.08-.49.68-.98,1.36-1.46,2.04.22.91.93,1.26,1.74,1.5.44.13.87.27,1.3.4Z"/>
            <path class="cls-4" d="M146.56,230.32c-.16.86-.42,1.72-.44,2.58-.04,1.25.09,2.51.15,3.77.04.82.15,1.65.07,2.46-.08.86-.83,1.14-1.63,1.35,1.21.48,1.98-.43,1.99-2.27.42.05.84.14,1.26.14.76,0,1.31-.37,1.45-1.14.21-1.13.34-2.29.41-3.44.03-.48.27-.66.61-.86.45-.25.87-.55,1.27-.88-1.4.28-2.21,1.34-2.27,2.86-.03.68,0,1.37-.18,2.01-.11.41-.47.95-.83,1.06-.47.15-1.21.1-1.56-.19-.32-.26-.3-.96-.37-1.47-.27-2-.23-3.99.32-5.96-.08-.01-.17-.03-.25-.04Z"/>
            <path class="cls-5" d="M117.81,208.11c-.74-.91-1.48-1.82-2.44-3-.69.81-1.34,1.58-1.99,2.34.28.12.56.31.85.35,1.19.13,2.39.22,3.59.32Z"/>
            <path class="cls-4" d="M121.42,181.12c-.07.83.24,1.78-.94,1.89-1.19.12-1.1-.89-1.34-1.6-.57.12-1.11.24-1.65.35.08.8.87,1.59,1.9,1.64.83.04,1.67-.15,2.49-.29.21-.04.42-.24.58-.4.58-.6.49-.99-.29-1.31-.22-.09-.44-.16-.76-.28Z"/>
            <path class="cls-2" d="M109.96,246.17c-.11,1.21-.22,2.33-.33,3.46,1.19-.74,2.42-1.5,3.67-2.28-1.13-.4-2.21-.78-3.34-1.17Z"/>
            <path class="cls-5" d="M122.75,207.18c-.84-.65-1.68-1.3-2.63-2.03-.44.96-.91,1.95-1.37,2.95,1.26-.23,2.51-.46,3.77-.7.08-.02.15-.14.22-.22Z"/>
            <path class="cls-4" d="M98.94,229.29c.44-5.43,1.53-10.82.73-16.31.2,5.46-.29,10.89-.73,16.31Z"/>
            <path class="cls-4" d="M142.91,223.31c2.86-3.88,6.59-5.72,11.48-4.81-2.69-2.21-9.47.64-11.48,4.81Z"/>
            <path class="cls-2" d="M131.66,248.73c.53,0,.81-.25.82-.79.01-.68-.72-1.24-1.69-1.25-.55,0-.85.37-.9.87-.06.56.86,1.14,1.76,1.16Z"/>
            <path class="cls-2" d="M147.37,214.74c.02.62.57,1.16,1.18,1.14.54-.02,1.04-.59,1.04-1.19,0-.59-.55-1.13-1.12-1.11-.55.02-1.11.61-1.1,1.16Z"/>
            <path class="cls-2" d="M138.82,245.97c.56.3,1.12.6,1.68.9,1.3.08,2.6.17,3.9.25.01-.09.02-.17.04-.26-1.12-.27-2.24-.53-3.32-.79.07,0,.2-.02.33-.04-.9-.11-1.8-.21-2.71-.32.03.08.05.16.08.24Z"/>
            <path class="cls-2" d="M85.07,222.57c.66,0,1.12-.43,1.12-1.07,0-.53-.54-1.1-1.07-1.1-.5,0-1.11.63-1.12,1.16-.01.63.39,1.02,1.06,1.01Z"/>
            <path class="cls-4" d="M137.58,220.97c-.05-.31-.05-.63-.15-.91-.86-2.45-1.42-4.95-1.46-7.55,0-.16-.06-.32-.1-.52-.74,1.01.48,7.38,1.73,9,0,0-.02-.02-.02-.02Z"/>
            <path class="cls-4" d="M117.39,263.2c0,.61.55,1.11,1.24,1.13.36.01.83-.62.84-1.13,0-.51-.48-1.02-1-1.03-.53,0-1.08.51-1.08,1.03Z"/>
            <path class="cls-2" d="M89.01,236.37c0,.6.45,1.05,1.06,1.04.54,0,1.07-.53,1.08-1.08.01-.5-.5-1.01-1.04-1.03-.5-.02-1.1.56-1.1,1.06Z"/>
            <path class="cls-4" d="M86.17,214.98c.69,0,1.05-.32,1.04-.93,0-.65-.43-1.13-.98-1.11-.59.02-1.06.53-1.04,1.16.02.63.38.9.98.88Z"/>
            <path class="cls-2" d="M95.45,240.68c.62-.01,1.14-.48,1.11-1-.03-.53-.53-1.04-1.02-1.05-.58,0-1.07.43-1.07.96,0,.65.4,1.1.98,1.09Z"/>
            <path class="cls-2" d="M128.5,252.91c-.34.07-.57.11-.81.16-.75.16-1.03.53-.9,1.14.11.51.73.99,1.16.91.54-.1.83-.6.73-1.3-.04-.28-.11-.56-.19-.91Z"/>
            <path class="cls-2" d="M152.83,254.92c.55-.02,1-.53.99-1.13,0-.46-.52-.95-1-.95-.52,0-1.05.61-1.04,1.19,0,.48.51.9,1.05.88Z"/>
            <path class="cls-4" d="M128.03,235.94c.66-.15,1.09-.61,1.08-1.15,0-.59-.38-.98-.93-.97-.57.01-1.2.61-1.03,1.15.12.38.58.65.88.96Z"/>
            <path class="cls-2" d="M105.75,228.24c0,.58.43,1.07.95,1.06.53-.01.98-.44.98-.96,0-.52-.51-1.1-.96-1.09-.48.01-.97.5-.97.98Z"/>
            <path class="cls-2" d="M109.53,265.75c0,.6.37.86.9.89.5.03,1.03-.51,1.04-1,.01-.56-.38-.98-.93-.98-.55,0-1.01.49-1.02,1.09Z"/>
            <path class="cls-2" d="M127.65,271.24c0,.75.09,1.24.79,1.27.6.03.91-.32.95-.87.05-.78-.31-1.21-.92-1.22-.71,0-.83.45-.82.82Z"/>
            <path class="cls-2" d="M131.73,228.92c-.05-.46-.27-.81-.89-.81-.59,0-.91.33-.97.86-.05.54.53,1.2.96,1.18.46-.02.91-.6.9-1.23Z"/>
            <path class="cls-4" d="M139.92,217.97c0,.58.27.91.85.94.59.03.99-.34,1-.9.01-.61-.35-1.01-.9-1-.56,0-.94.4-.95.96Z"/>
            <path class="cls-4" d="M95.7,215.47c-.02.86.32,1.24.89,1.25.57.01.99-.37.98-.91,0-.53-.43-.97-.97-.96-.56,0-.88.31-.9.62Z"/>
            <path class="cls-2" d="M132.04,234.23c.03.52.58,1.1,1.03,1,.53-.11.85-.46.86-1.02,0-.6-.42-1.02-.92-.99-.47.03-.99.56-.96,1Z"/>
            <path class="cls-2" d="M124.66,256.18c-.09-.45-.25-.9-.87-.91-.46,0-.95.57-.96,1.09-.01.53.44.96.97.94.48-.02.86-.5.85-1.13Z"/>
            <path class="cls-4" d="M143.6,239.23c.13.14.26.27.39.41-.84-3.13-1.3-6.28-.3-9.48-.07-.01-.15-.03-.22-.04-.16.65-.35,1.29-.46,1.94-.39,2.29,0,4.52.54,6.74.03.14.04.29.06.43Z"/>
            <path class="cls-2" d="M139.05,256.39c-.01.65.37,1.1.87,1.05.46-.05.9-.25.85-.8-.04-.48-.08-1.07-.81-1.07-.61,0-.84.39-.91.82Z"/>
            <path class="cls-4" d="M137.38,252.13c.15-.64-.34-.67-.87-.65-.57.02-.82.37-.81.89.01.52.27.92.84.84.51-.07.92-.33.83-1.09Z"/>
            <path class="cls-2" d="M95.54,221.56c.05.52.25.98.8.95.48-.02.94-.26.98-.87.04-.55-.32-.98-.83-.96-.57.02-.85.37-.96.88Z"/>
            <path class="cls-4" d="M107.65,249.85c0-.81-.37-1.06-.83-1.06-.48,0-.91.22-1,.76-.06.39.54.96.99.86.35-.08.64-.42.84-.56Z"/>
            <path class="cls-4" d="M96.36,232.5c-.12.18-.49.48-.46.73.03.26.43.62.71.67.35.07.81-.12.77-.63-.03-.46-.28-.76-1.03-.77Z"/>
            <path class="cls-5" d="M130.83,278.13c-.51.57-1.01,1.15-1.57,1.78.6.09,1.11.16,1.62.24-.02-.67-.04-1.34-.05-2.02Z"/>
            <path class="cls-4" d="M155.8,268.53c.44.35.75.77.94.72.31-.08.72-.42.79-.72.1-.46-.35-.75-.77-.71-.27.03-.5.36-.95.71Z"/>
            <path class="cls-2" d="M151.66,221c.43.28.71.57,1.02.62.36.05.69-.17.69-.65,0-.64-.56-.62-.93-.68-.17-.03-.41.36-.78.72Z"/>
            <path class="cls-4" d="M104.45,232.38c.06,0,.12-.01.18-.02-1.68-.71-3.37-1.41-5.05-2.12-.04.09-.07.19-.11.28,1.66.62,3.32,1.24,4.98,1.86Z"/>
            <path class="cls-4" d="M115.05,198.74c.65.04,1.18.06,1.7.09,0-.03,0-.06,0-.09-.48-.21-.96-.42-1.5-.65-.06.18-.12.37-.21.65Z"/>
            <path class="cls-4" d="M117.38,248.44c-.2-.15-.39-.3-.59-.46-.04.04-.07.09-.11.13.2.16.39.32.59.48.04-.05.07-.1.11-.15Z"/>
            <path class="cls-4" d="M151.79,231.93c.08-.1.17-.19.25-.29-.04-.04-.08-.08-.12-.12-.07.12-.13.24-.2.35l.07.05Z"/>
            <path class="cls-4" d="M102.19,197.14c.11.04.21.09.32.13.02-.03.04-.06.06-.09-.09-.06-.18-.12-.27-.18-.03.05-.07.09-.1.14Z"/>
            <path class="cls-4" d="M96.99,196.6s.03-.07.04-.11c-.03,0-.06,0-.1,0,.03.03.05.06.08.1,0,0-.02.01-.02.01Z"/>
            <path class="cls-2" d="M113.01,218.3c-.71-.29-1.47-.61-2.25-.88-.11-.04-.47.23-.46.31.21,1.01.29,2.1,1.13,2.84.25.22.84.47.97.35.28-.24.66-.55.38-1.15-.15-.33.12-.86.23-1.46Z"/>
            <path class="cls-2" d="M118.08,232.21c1.3-1.74,1.06-2.46-1.05-3.3-.74.84-.25,2.41,1.05,3.3Z"/>
            <path class="cls-2" d="M105,206.56v2.9c.53-.11,1-.1,1.34-.31.28-.17.63-.7.55-.9-.21-.49-.63-.91-1.01-1.3-.17-.18-.48-.23-.87-.4Z"/>
            <path class="cls-2" d="M101.85,200.47c-.73,1.14.26,2.45,1.34,2.75.1.03.41-.25.42-.4.12-1.27-.52-2.03-1.76-2.36Z"/>
            <path class="cls-2" d="M114.37,223.93c-.16.27-.45.61-.55,1-.11.41.58,1.26.9,1.12.38-.17.76-.56.93-.95.18-.41-.57-1.15-1.27-1.17Z"/>
            <path class="cls-2" d="M108.63,212.07c-.23.29-.34.52-.52.66-.57.43-.4.95-.03,1.3.24.22.8.35,1.08.22.57-.26.49-.85.25-1.32-.16-.3-.47-.53-.77-.85Z"/>
            <path class="cls-2" d="M120.41,234.59c-.86.87-.97,1.55-.52,2,.22.22.67.42.91.33.5-.17.77-.6.42-1.15-.26-.41-.54-.79-.81-1.19Z"/>
            <path class="cls-3" d="M103.71,198.79c-.05-.05-.1-.1-.15-.16.05.05.1.1.15.16Z"/>
            <path class="cls-5" d="M118.9,279.29c-1.3-2.45-2.57-4.83-3.92-7.36-1.49,2.53-2.9,4.93-4.33,7.36,2.75,0,5.42,0,8.25,0Z"/>
            <path class="cls-5" d="M110.12,279.26c-1.05-1.85-2.1-3.71-3.19-5.64-1.48,2.12-2.95,4.22-4.54,6.5,2.69-.3,5.18-.58,7.73-.87Z"/>
            <path class="cls-5" d="M126.5,279.9c-1.32-2.17-2.52-4.15-3.73-6.15-1.19,1.89-2.33,3.71-3.5,5.56,2.33.19,4.66.38,7.23.59Z"/>
            <path class="cls-2" d="M126.09,218c-.51.44-.93.79-1.34,1.16-.32.29-.47,2.03-.17,2.35.12.12.47.2.59.12.82-.54,1.63-1.11,1.17-2.57-.1-.32-.16-.64-.26-1.05Z"/>
            <path class="cls-2" d="M123.46,225.03c-1.37.78-1.73,1.57-1.33,2.94.06.22.28.45.49.54.1.04.39-.18.5-.35.61-.97.95-1.98.34-3.14Z"/>
            <path class="cls-2" d="M129.23,210.02c1.91-.67,1.59-.97,1.19-3.12-1.74,1.15-2.21,1.64-1.19,3.12Z"/>
            <path class="cls-2" d="M132.99,200.45c-.88.54-1.55,1.14-1.73,2.11-.05.25.11.65.31.8.16.12.59.06.8-.08.68-.44.82-1.16.81-1.91,0-.26-.1-.52-.19-.92Z"/>
            <path class="cls-2" d="M127.95,213.07c-.88.74-1.17,1.61-.68,2.11.26.26.59.36.95,0,.67-.67.62-1.24-.26-2.11Z"/>
            <path class="cls-5" d="M90.39,230.18c-.84-.92-1.62-1.79-2.52-2.78-.57,1.64-1.07,3.1-1.62,4.68,1.42-.65,2.72-1.25,4.14-1.9Z"/>
            <path class="cls-5" d="M93.7,229.22c1.05.43,1.97-.29,3.11-.22-.76-.86-1.41-1.61-2.15-2.45-.34.96-.64,1.79-.96,2.67Z"/>
            <path class="cls-2" d="M133.17,241.5c-.65-.36-1.11-.69-1.63-.86-.26-.09-.62.12-.94.2.13.33.16.81.41.96.41.26.94.4,1.42.41.22,0,.45-.42.73-.72Z"/>
            <path class="cls-2" d="M138.07,244.66c0-.83-.56-1.12-1.16-1.31-.44-.14-.98-.48-1.33.19.43.88,1.39,1.33,2.49,1.12Z"/>
            <path class="cls-3" d="M140.06,243.76c-.78-.39-1.56-.78-2.34-1.17.78.39,1.56.78,2.34,1.17Z"/>
            <path class="cls-3" d="M141.52,244.34c-.49-.2-.98-.39-1.47-.59.49.2.98.39,1.47.59Z"/>
            <path class="cls-3" d="M142.98,244.78c-.49-.15-.98-.3-1.47-.44.49.15.98.3,1.47.44Z"/>
            <path class="cls-3" d="M137.72,242.59c-.24-.15-.48-.3-.73-.44.24.15.48.3.73.44Z"/>
          </g>
          <text class="cls-6" transform="translate(26.7 330.64)"><tspan x="0" y="0">We Wear Us</tspan></text>
        </g>
      </g>
    </g>
  </g>
</svg>